{
.appVersion = "1286";
DisplayStrings = (
OHno,
"012nHH¹½ªnº//o% ½ kilo /fraction ¼ taza ¾\012H¹/fraction/fraction 123456789\012H¹²³/foursuperior   1H3ªaºn1ºo",
"½¼¾/fraction",
"H¹²³/foursuperior",
"",
H,
"1H3ªºn1º",
"ª+/minus ±¬>^vsS",
"uµpy/eng",
"-/endash/emdash _\012self­conscious\012self-conscious",
"1/Placeholder 1 2/Placeholder 2 3/Placeholder 3 4/Placeholder 4 5/Placeholder 5 \0126/Placeholder 6 7/Placeholder 7 8/Placeholder 8 9/Placeholder 9 0/Placeholder 0\012% HH/divisionslash HH 100/divisionslash 00 \012128/divisionslash 542 108/divisionslash 10 \012100/fraction 500",
"/J.salt QSOSÞ-))·Vn_(O)_¿DD_?/quotedblright W/Q.salt _z/Q.salt \012QQVO/Q.salt V/Q.salt OV/r.salt/idotless Q/five.numr 1/divisionslash 81/one.numr/six.numr/fraction/eight.dnom"
);
classes = (
{
code = "I\012J\012P\012Q\012R";
name = salt_uc_01;
},
{
code = "I.salt\012J.salt\012P.salt\012Q.salt\012R.salt";
name = salt_uc_02;
},
{
code = "Iacute\012Ibreve\012Icircumflex\012Idieresis\012Idotaccent\012Igrave\012Imacron\012Iogonek\012Itilde\012Jcircumflex\012Racute\012Rcaron\012Rcommaaccent";
name = salt_uc_03;
},
{
code = "Iacute.salt\012Ibreve.salt\012Icircumflex.salt\012Idieresis.salt\012Idotaccent.salt\012Igrave.salt\012Imacron.salt\012Iogonek.salt\012Itilde.salt\012Jcircumflex.salt\012Racute.salt\012Rcaron.salt\012Rcommaaccent.salt";
name = salt_uc_04;
},
{
code = "f\012l\012r\012t\012u";
name = salt_lc_01;
},
{
code = "f.salt\012l.salt\012r.salt\012t.salt\012u.salt";
name = salt_lc_02;
},
{
code = "lacute\012lcaron\012lcommaaccent\012lslash\012racute\012rcaron\012rcommaaccent\012tbar\012tcaron\012tcedilla\012tcommaaccent\012uacute\012ubreve\012ucircumflex\012udieresis\012ugrave\012uhungarumlaut\012umacron\012uogonek\012uring\012utilde";
name = salt_lc_03;
},
{

glyphs = (
{
color = 4;
glyphname = .notdef;
lastChange = "2020-05-26 18:39:37 +0000";
layers = (
{
background = {
paths = (
{
closed = 1;
nodes = (
"390 224 LINE",
"390 344 LINE",
"385 327 LINE",
"486 327 OFFCURVE",
"536 396 OFFCURVE",
"536 472 CURVE SMOOTH",
"536 479 LINE SMOOTH",
"536 557 OFFCURVE",
"480 624 OFFCURVE",
"393 624 CURVE SMOOTH",
"303 624 OFFCURVE",
"246 556 OFFCURVE",
"246 466 CURVE",
"272 466 LINE",
"272 546 OFFCURVE",
"322 598 OFFCURVE",
"393 598 CURVE SMOOTH",
"462 598 OFFCURVE",
"508 548 OFFCURVE",
"508 475 CURVE SMOOTH",
"508 405 OFFCURVE",
"465 353 OFFCURVE",
"390 353 CURVE SMOOTH",
"362 353 LINE",
"362 224 LINE"
);
},
{
closed = 1;
nodes = (
"396 100 LINE",
"396 144 LINE",
"356 144 LINE",
"356 100 LINE"
);
},
{
closed = 1;
nodes = (
"118 -5 LINE",
"118 739 LINE",
"95 739 LINE",
"95 -5 LINE"
);
},
{
closed = 1;
nodes = (
"683 -5 LINE",
"683 17 LINE",
"95 17 LINE",
"95 -5 LINE"
);
},
{
closed = 1;
nodes = (
"683 717 LINE",
"683 739 LINE",
"95 739 LINE",
"95 717 LINE"
);
},
{
closed = 1;
nodes = (
"695 -5 LINE",
"695 739 LINE",
"672 739 LINE",
"672 -5 LINE"
);
}
);
};
layerId = "C54A1B2C-2BC8-455F-8AA9-31AEAFF53136";
paths = (
{
closed = 1;
nodes = (
"388 224 LINE",
"388 329 LINE",
"383 312 LINE",
"485 312 OFFCURVE",
"536 381 OFFCURVE",
"536 457 CURVE SMOOTH",
"536 464 LINE SMOOTH",
"536 542 OFFCURVE",
"480 609 OFFCURVE",
"393 609 CURVE SMOOTH",
"303 609 OFFCURVE",
"246 541 OFFCURVE",
"246 451 CURVE",
"272 451 LINE",
"272 531 OFFCURVE",
"322 583 OFFCURVE",
"393 583 CURVE SMOOTH",
"462 583 OFFCURVE",
"508 533 OFFCURVE",
"508 460 CURVE SMOOTH",
"508 390 OFFCURVE",
"465 338 OFFCURVE",
"391 338 CURVE SMOOTH",
"363 338 LINE",
"363 224 LINE"
);
},
{
closed = 1;
nodes = (
"394 100 LINE",
"394 144 LINE",
"357 144 LINE",
"357 100 LINE"
);
},
{
closed = 1;
nodes = (
"695 -5 LINE",
"695 739 LINE",
"95 739 LINE",
"95 -5 LINE"
);
},
{
closed = 1;
nodes = (
"118 717 LINE",
"672 717 LINE",
"672 17 LINE",
"118 17 LINE"
);
}
);
userData = {
RMXScaler = {
height = 70;
verticalShift = 100;
weight = -4;
width = 68;
};
};
width = 790;
},
{
background = {
paths = (
{
closed = 1;
nodes = (
"427 236 LINE",
"428 334 LINE",
"404 308 LINE",
"511 310 OFFCURVE",
"569 373 OFFCURVE",
"569 456 CURVE SMOOTH",
"569 464 LINE SMOOTH",
"569 548 OFFCURVE",
"508 613 OFFCURVE",
"413 613 CURVE SMOOTH",
"315 613 OFFCURVE",
"252 545 OFFCURVE",
"252 452 CURVE",
"320 452 LINE",
"320 510 OFFCURVE",
"356 551 OFFCURVE",
"411 551 CURVE SMOOTH",
"466 551 OFFCURVE",
"500 512 OFFCURVE",
"500 457 CURVE SMOOTH",
"500 402 OFFCURVE",
"466 362 OFFCURVE",
"406 362 CURVE SMOOTH",
"365 362 LINE",
"365 236 LINE"
);
},
{
closed = 1;
nodes = (
"434 90 LINE",
"434 166 LINE",
"358 166 LINE",
"358 90 LINE"
);
},
{
closed = 1;
nodes = (
"150 -42 LINE",
"150 776 LINE",
"90 776 LINE",
"90 -42 LINE"
);
},
{
closed = 1;
nodes = (
"716 -42 LINE",
"716 12 LINE",
"123 12 LINE",
"123 -42 LINE"
);
},
{
closed = 1;
nodes = (
"716 722 LINE",
"716 776 LINE",
"123 776 LINE",
"123 722 LINE"
);
},
{
closed = 1;
nodes = (
"769 -42 LINE",
"769 776 LINE",
"709 776 LINE",
"709 -42 LINE"
);
}
);
};
layerId = "445E0A7C-B12F-48FD-B0B3-D474C1FC2A30";
paths = (
{
closed = 1;
nodes = (
"447 236 LINE",
"448 344 LINE",
"424 318 LINE",
"531 320 OFFCURVE",
"589 383 OFFCURVE",
"589 466 CURVE SMOOTH",
"589 474 LINE SMOOTH",
"589 558 OFFCURVE",
"528 623 OFFCURVE",
"433 623 CURVE SMOOTH",
"335 623 OFFCURVE",
"272 555 OFFCURVE",
"272 462 CURVE",
"340 462 LINE",
"340 520 OFFCURVE",
"376 561 OFFCURVE",
"431 561 CURVE SMOOTH",
"486 561 OFFCURVE",
"520 522 OFFCURVE",
"520 467 CURVE SMOOTH",
"520 412 OFFCURVE",
"486 372 OFFCURVE",
"426 372 CURVE SMOOTH",
"385 372 LINE",
"385 236 LINE"
);
},
{
closed = 1;
nodes = (
"454 100 LINE",
"454 176 LINE",
"378 176 LINE",
"378 100 LINE"
);
},
{
closed = 1;
nodes = (
"769 -42 LINE",
"769 776 LINE",
"90 776 LINE",
"90 -42 LINE"
);
},
{
closed = 1;
nodes = (
"146 722 LINE",
"713 722 LINE",
"713 12 LINE",
"146 12 LINE"
);
}
);
userData = {
RMXScaler = {
height = 70;
verticalShift = 90;
weight = -25;
width = 68;
};
};
width = 859;
},
{
layerId = "7C8656A8-8591-4735-94A0-92D633732231";
paths = (
{
closed = 1;
nodes = (
"468 252 LINE",
"470 355 LINE",
"427 312 LINE",
"543 315 OFFCURVE",
"610 376 OFFCURVE",
"610 469 CURVE SMOOTH",
"610 478 LINE SMOOTH",
"610 570 OFFCURVE",
"544 637 OFFCURVE",
"437 637 CURVE SMOOTH",
"318 637 OFFCURVE",
"255 559 OFFCURVE",
"255 467 CURVE",
"371 467 LINE",
"371 503 OFFCURVE",
"394 533 OFFCURVE",
"434 533 CURVE SMOOTH",
"471 533 OFFCURVE",
"494 507 OFFCURVE",
"494 468 CURVE SMOOTH",
"494 433 OFFCURVE",
"474 403 OFFCURVE",
"427 403 CURVE SMOOTH",
"358 403 LINE",
"358 252 LINE"
);
},
{
closed = 1;
nodes = (
"471 100 LINE",
"471 204 LINE",
"355 204 LINE",
"355 100 LINE"
);
},
{
closed = 1;
nodes = (
"784 -54 LINE",
"784 788 LINE",
"85 788 LINE",
"85 -54 LINE"
);
},
{
closed = 1;
nodes = (
"155 722 LINE",
"714 722 LINE",
"714 12 LINE",
"155 12 LINE"
);
}
);
userData = {
RMXScaler = {
height = 78;
verticalShift = 80;
weight = -50;
width = 75;
};
};
width = 869;
}
);
userData = {
RMXScaler = {
source = question;
};
};
},
{
color = 7;
glyphname = A;
lastChange = "2019-06-10 16:49:32 +0000";
layers = (
{
anchors = (
{
name = ogonek;
position = "{720, 10}";
},
{
name = top;
position = "{374, 730}";
}
);
background = {
anchors = (
{
name = ogonek;
position = "{713, 10}";
},
{
name = top;
position = "{370, 720}";
}
);
paths = (
{
closed = 1;
nodes = (
"125 0 LINE",
"360 656 LINE",
"310 632 LINE",
"424 632 LINE",
"374 656 LINE",
"617 0 LINE",
"721 0 LINE",
"452 720 LINE",
"288 720 LINE",
"27 0 LINE"
);
},
{
closed = 1;
nodes = (
"558 216 LINE",
"525 304 LINE",
"216 304 LINE",
"183 216 LINE"
);
}
);
};
layerId = "445E0A7C-B12F-48FD-B0B3-D474C1FC2A30";
paths = (
{
closed = 1;
nodes = (
"126 0 LINE",
"363 666 LINE",
"312 642 LINE",
"430 642 LINE",
"382 666 LINE",
"627 0 LINE",
"728 0 LINE",
"457 730 LINE",
"291 730 LINE",
"28 0 LINE"
);
},
{
closed = 1;
nodes = (
"566 218 LINE",
"533 306 LINE",
"218 306 LINE",
"185 218 LINE"
);
}
);
width = 756;
},
{
anchors = (
{
name = ogonek;
position = "{738, 10}";
},
{
name = top;
position = "{391, 730}";
}
);
background = {
anchors = (
{
name = ogonek;
position = "{731, 10}";
},
{
name = top;
position = "{387, 720}";
}
);
paths = (
{
closed = 1;
nodes = (
"193 0 LINE",
"373 590 LINE",
"324 570 LINE",
"446 570 LINE",
"398 590 LINE",
"583 0 LINE",
"775 0 LINE",
"536 720 LINE",
"238 720 LINE",
"7 0 LINE"
);
},
{
closed = 1;
nodes = (
"582 165 LINE",
"526 317 LINE",
"249 317 LINE",
"193 165 LINE"
);
}
);
};
layerId = "7C8656A8-8591-4735-94A0-92D633732231";
paths = (
{
closed = 1;
nodes = (
"194 0 LINE",
"377 600 LINE",
"323 580 LINE",
"455 580 LINE",
"402 600 LINE",
"590 0 LINE",
"782 0 LINE",
"540 730 LINE",
"242 730 LINE",
"8 0 LINE"
);
},
{
closed = 1;
nodes = (
"588 169 LINE",
"532 321 LINE",
"255 321 LINE",
"199 169 LINE"
);
}
);
width = 790;
},
{
anchors = (
{
name = ogonek;
position = "{692, 10}";
},
{
name = top;
position = "{362, 730}";
}
);
layerId = "C54A1B2C-2BC8-455F-8AA9-31AEAFF53136";
paths = (
{
closed = 1;
nodes = (
"74 0 LINE",
"348 715 LINE",
"322 700 LINE",
"400 700 LINE",
"374 715 LINE",
"659 0 LINE",
"692 0 LINE",
"401 730 LINE",
"323 730 LINE",
"42 0 LINE"
);
},
{
closed = 1;
nodes = (
"569 260 LINE",
"557 290 LINE",
"171 290 LINE",
"160 260 LINE"
);
}
);
width = 734;
}
);
leftKerningGroup = UC_A;
rightKerningGroup = UC_A;
unicode = 0041;
},
{
color = 7;
glyphname = AE;
lastChange = "2019-06-10 16:26:53 +0000";
layers = (
{
background = {
paths = (
{
closed = 1;
nodes = (
"110 0 LINE",
"369 656 LINE",
"319 632 LINE",
"494 632 LINE",
"494 720 LINE",
"298 720 LINE",
"12 0 LINE"
);
},
{
closed = 1;
nodes = (
"494 243 LINE",
"494 331 LINE",
"213 331 LINE",
"177 243 LINE"
);
},
{
closed = 1;
nodes = (
"572 0 LINE",
"572 720 LINE",
"474 720 LINE",
"474 0 LINE"
);
},
{
closed = 1;
nodes = (
"902 0 LINE",
"902 88 LINE",
"552 88 LINE",
"552 0 LINE"
);
},
{
closed = 1;
nodes = (
"872 322 LINE",
"872 410 LINE",
"552 410 LINE",
"552 322 LINE"
);
},
{
closed = 1;
nodes = (
"892 632 LINE",
"892 720 LINE",
"552 720 LINE",
"552 632 LINE"
);
}
);
};
layerId = "445E0A7C-B12F-48FD-B0B3-D474C1FC2A30";
paths = (
{
closed = 1;
nodes = (
"110 0 LINE",
"372 666 LINE",
"321 642 LINE",
"499 642 LINE",
"499 730 LINE",
"301 730 LINE",
"12 0 LINE"
);
},
{
closed = 1;
nodes = (
"499 247 LINE",
"499 336 LINE",
"214 336 LINE",
"178 247 LINE"
);
},
{
closed = 1;
nodes = (
"577 0 LINE",
"577 730 LINE",
"478 730 LINE",
"478 0 LINE"
);
},
{
closed = 1;
nodes = (
"910 0 LINE",
"910 88 LINE",
"556 88 LINE",
"556 0 LINE"
);
},
{
closed = 1;
nodes = (
"880 327 LINE",
"880 415 LINE",
"556 415 LINE",
"556 327 LINE"
);
},
{
closed = 1;
nodes = (
"900 642 LINE",
"900 730 LINE",
"556 730 LINE",
"556 642 LINE"
);
}
);
width = 972;
},
{
background = {
paths = (
{
closed = 1;
nodes = (
"178 0 LINE",
"412 590 LINE",
"363 570 LINE",
"488 570 LINE",
"488 720 LINE",
"277 720 LINE",
"-8 0 LINE"
);
},
{
closed = 1;
nodes = (
"488 175 LINE",
"488 327 LINE",
"272 327 LINE",
"216 175 LINE"
);
},
{
closed = 1;
nodes = (
"644 0 LINE",
"644 720 LINE",
"468 720 LINE",
"468 0 LINE"
);
},
{
closed = 1;
nodes = (
"928 0 LINE",
"928 152 LINE",
"624 152 LINE",
"624 0 LINE"
);
},
{
closed = 1;
nodes = (
"908 290 LINE",
"908 442 LINE",
"624 442 LINE",
"624 290 LINE"
);
},
{
closed = 1;
nodes = (
"922 568 LINE",
"922 720 LINE",
"624 720 LINE",
"624 568 LINE"
);
}
);
};
layerId = "7C8656A8-8591-4735-94A0-92D633732231";
paths = (
{
closed = 1;
nodes = (
"178 0 LINE",
"415 600 LINE",
"365 580 LINE",
"493 580 LINE",
"493 730 LINE",
"280 730 LINE",
"-8 0 LINE"
);
},
{
closed = 1;
nodes = (
"493 179 LINE",
"493 332 LINE",
"273 332 LINE",
"217 179 LINE"
);
},
{
closed = 1;
nodes = (
"649 0 LINE",
"649 730 LINE",
"472 730 LINE",
"472 0 LINE"
);
},
{
closed = 1;
nodes = (
"936 0 LINE",
"936 152 LINE",
"628 152 LINE",
"628 0 LINE"
);
},
{
closed = 1;
nodes = (
"916 295 LINE",
"916 447 LINE",
"628 447 LINE",
"628 295 LINE"
);
},
{
closed = 1;
nodes = (
"930 578 LINE",
"930 730 LINE",
"628 730 LINE",
"628 578 LINE"
);
}
);
width = 986;
},
{
layerId = "C54A1B2C-2BC8-455F-8AA9-31AEAFF53136";
paths = (
{
closed = 1;
nodes = (
"58 0 LINE",
"346 715 LINE",
"324 700 LINE",
"502 700 LINE",
"502 730 LINE",
"323 730 LINE",
"26 0 LINE"
);
},
{
closed = 1;
nodes = (
"502 313 LINE",
"502 343 LINE",
"180 343 LINE",
"171 313 LINE"
);
},
{
closed = 1;
nodes = (
"521 0 LINE",
"521 730 LINE",
"489 730 LINE",
"489 0 LINE"
);
},
{
closed = 1;
nodes = (
"888 0 LINE",
"888 30 LINE",
"506 30 LINE",
"506 0 LINE"
);
},
{
closed = 1;
nodes = (
"849 352 LINE",
"849 382 LINE",
"506 382 LINE",
"506 352 LINE"
);
},
{
closed = 1;
nodes = (
"875 700 LINE",
"875 730 LINE",
"506 730 LINE",
"506 700 LINE"
);
}
);
width = 962;
}
);
leftKerningGroup = UC_AE;
leftMetricsKey = "=A-16";
rightKerningGroup = UC_E;
rightMetricsKey = E;
unicode = 00C6;
},
{
color = 7;
glyphname = B;
lastChange = "2020-05-28 00:05:29 +0000";
layers = (
{
background = {
paths = (
{
closed = 1;
nodes = (
"370 -4 LINE SMOOTH",
"529 -4 OFFCURVE",
"606 67 OFFCURVE",
"606 193 CURVE SMOOTH",
"606 207 LINE SMOOTH",
"606 340 OFFCURVE",
"510 386 OFFCURVE",
"370 386 CURVE SMOOTH",
"183 386 LINE",
"183 322 LINE",
"384 322 LINE SMOOTH",
"463 322 OFFCURVE",
"506 277 OFFCURVE",
"506 202 CURVE SMOOTH",
"506 127 OFFCURVE",
"463 82 OFFCURVE",
"384 82 CURVE SMOOTH",
"183 82 LINE",
"183 -4 LINE"
);
},
{
closed = 1;
nodes = (
"203 -4 LINE",
"203 724 LINE",
"105 724 LINE",
"105 -4 LINE"
);
},
{
closed = 1;
nodes = (
"340 340 LINE SMOOTH",
"480 340 OFFCURVE",
"576 383 OFFCURVE",
"576 516 CURVE SMOOTH",
"576 530 LINE SMOOTH",
"576 656 OFFCURVE",
"499 724 OFFCURVE",
"340 724 CURVE SMOOTH",
"183 724 LINE",
"183 638 LINE",
"357 638 LINE SMOOTH",
"438 638 OFFCURVE",
"476 590 OFFCURVE",
"476 521 CURVE SMOOTH",
"476 452 OFFCURVE",
"438 404 OFFCURVE",
"357 404 CURVE SMOOTH",
"183 404 LINE",
"183 340 LINE"
);
}
);
};
layerId = "445E0A7C-B12F-48FD-B0B3-D474C1FC2A30";
paths = (
{
closed = 1;
nodes = (
"374 -4 LINE SMOOTH",
"534 -4 OFFCURVE",
"612 68 OFFCURVE",
"612 196 CURVE SMOOTH",
"612 210 LINE SMOOTH",
"612 345 OFFCURVE",
"514 391 OFFCURVE",
"374 391 CURVE SMOOTH",
"184 391 LINE",
"184 327 LINE",
"388 327 LINE SMOOTH",
"468 327 OFFCURVE",
"512 281 OFFCURVE",
"512 205 CURVE SMOOTH",
"512 130 OFFCURVE",
"467 82 OFFCURVE",
"388 82 CURVE SMOOTH",
"184 82 LINE",
"184 -4 LINE"
);
},
{
closed = 1;
nodes = (
"204 -4 LINE",
"204 734 LINE",
"106 734 LINE",
"106 -4 LINE"
);
},
{
closed = 1;
nodes = (
"344 345 LINE SMOOTH",
"485 345 OFFCURVE",
"582 389 OFFCURVE",
"582 524 CURVE SMOOTH",
"582 538 LINE SMOOTH",
"582 665 OFFCURVE",
"504 734 OFFCURVE",
"344 734 CURVE SMOOTH",
"184 734 LINE",
"184 648 LINE",
"361 648 LINE SMOOTH",
"443 648 OFFCURVE",
"482 599 OFFCURVE",
"482 528 CURVE SMOOTH",
"482 458 OFFCURVE",
"443 409 OFFCURVE",
"361 409 CURVE SMOOTH",
"184 409 LINE",
"184 345 LINE"
);
}
);
width = 680;
},
{
background = {
paths = (
{
closed = 1;
nodes = (
"385 -6 LINE SMOOTH",
"557 -6 OFFCURVE",
"652 70 OFFCURVE",
"652 201 CURVE SMOOTH",
"652 215 LINE SMOOTH",
"652 353 OFFCURVE",
"539 404 OFFCURVE",
"385 404 CURVE SMOOTH",
"233 404 LINE",
"233 294 LINE",
"391 294 LINE SMOOTH",
"445 294 OFFCURVE",
"470 267 OFFCURVE",
"470 215 CURVE SMOOTH",
"470 163 OFFCURVE",
"445 136 OFFCURVE",
"391 136 CURVE SMOOTH",
"233 136 LINE",
"233 -6 LINE"
);
},
{
closed = 1;
nodes = (
"253 -6 LINE",
"253 726 LINE",
"73 726 LINE",
"73 -6 LINE"
);
},
{
closed = 1;
nodes = (
"356 322 LINE SMOOTH",
"506 322 OFFCURVE",
"622 370 OFFCURVE",
"622 508 CURVE SMOOTH",
"622 522 LINE SMOOTH",
"622 653 OFFCURVE",
"525 726 OFFCURVE",
"356 726 CURVE SMOOTH",
"233 726 LINE",
"233 584 LINE",
"364 584 LINE SMOOTH",
"417 584 OFFCURVE",
"440 556 OFFCURVE",
"440 508 CURVE SMOOTH",
"440 460 OFFCURVE",
"417 432 OFFCURVE",
"364 432 CURVE SMOOTH",
"233 432 LINE",
"233 322 LINE"
);
}
);
};
layerId = "7C8656A8-8591-4735-94A0-92D633732231";
paths = (
{
closed = 1;
nodes = (
"389 -6 LINE SMOOTH",
"562 -6 OFFCURVE",
"658 71 OFFCURVE",
"658 204 CURVE SMOOTH",
"658 218 LINE SMOOTH",
"658 358 OFFCURVE",
"543 409 OFFCURVE",
"389 409 CURVE SMOOTH",
"234 409 LINE",
"234 299 LINE",
"395 299 LINE SMOOTH",
"450 299 OFFCURVE",
"476 271 OFFCURVE",
"476 218 CURVE SMOOTH",
"476 164 OFFCURVE",
"450 136 OFFCURVE",
"395 136 CURVE SMOOTH",
"234 136 LINE",
"234 -6 LINE"
);
},
{
closed = 1;
nodes = (
"254 -6 LINE",
"254 736 LINE",
"74 736 LINE",
"74 -6 LINE"
);
},
{
closed = 1;
nodes = (
"360 327 LINE SMOOTH",
"511 327 OFFCURVE",
"628 376 OFFCURVE",
"628 515 CURVE SMOOTH",
"628 530 LINE SMOOTH",
"628 662 OFFCURVE",
"530 736 OFFCURVE",
"360 736 CURVE SMOOTH",
"234 736 LINE",
"234 594 LINE",
"368 594 LINE SMOOTH",
"422 594 OFFCURVE",
"446 565 OFFCURVE",
"446 515 CURVE SMOOTH",
"446 466 OFFCURVE",
"422 437 OFFCURVE",
"368 437 CURVE SMOOTH",
"234 437 LINE",
"234 327 LINE"
);
}
);
width = 696;
},
{
layerId = "C54A1B2C-2BC8-455F-8AA9-31AEAFF53136";
paths = (
{
closed = 1;
nodes = (
"373 -2 LINE SMOOTH",
"508 -2 OFFCURVE",
"576 85 OFFCURVE",
"576 188 CURVE SMOOTH",
"576 196 LINE SMOOTH",
"576 310 OFFCURVE",
"492 380 OFFCURVE",
"373 380 CURVE SMOOTH",
"146 380 LINE",
"146 356 LINE",
"379 356 LINE SMOOTH",
"484 356 OFFCURVE",
"544 287 OFFCURVE",
"544 192 CURVE SMOOTH",
"544 96 OFFCURVE",
"482 28 OFFCURVE",
"379 28 CURVE SMOOTH",
"146 28 LINE",
"146 -2 LINE"
);
},
{
closed = 1;
nodes = (
"162 -2 LINE",
"162 732 LINE",
"130 732 LINE",
"130 -2 LINE"
);
},
{
closed = 1;
nodes = (
"346 362 LINE SMOOTH",
"471 362 OFFCURVE",
"546 430 OFFCURVE",
"546 540 CURVE SMOOTH",
"546 548 LINE SMOOTH",
"546 654 OFFCURVE",
"481 732 OFFCURVE",
"346 732 CURVE SMOOTH",
"146 732 LINE",
"146 702 LINE",
"352 702 LINE SMOOTH",
"463 702 OFFCURVE",
"514 636 OFFCURVE",
"514 544 CURVE SMOOTH",
"514 452 OFFCURVE",
"463 386 OFFCURVE",
"352 386 CURVE SMOOTH",
"146 386 LINE",
"146 362 LINE"
);
}
);
width = 660;
}
);
leftKerningGroup = UC_Stem;
leftMetricsKey = H;
rightKerningGroup = UC_B;
unicode = 0042;
},
{
color = 7;
glyphname = C;
lastChange = "2019-06-04 21:03:46 +0000";
layers = (
{
anchors = (
{
name = bottom;
position = "{418, 0}";
},
{
name = top;
position = "{417, 730}";
}
);
background = {
anchors = (
{
name = bottom;
position = "{414, 0}";
},
{
name = top;
position = "{413, 720}";
}
);
paths = (
{
closed = 1;
nodes = (
"623 -20 OFFCURVE",
"732 106 OFFCURVE",
"751 252 CURVE",
"651 252 LINE",
"633 135 OFFCURVE",
"541 70 OFFCURVE",
"418 70 CURVE SMOOTH",
"243 70 OFFCURVE",
"155 205 OFFCURVE",
"155 360 CURVE SMOOTH",
"155 522 OFFCURVE",
"242 650 OFFCURVE",
"413 650 CURVE SMOOTH",
"528 650 OFFCURVE",
"621 594 OFFCURVE",
"639 470 CURVE",
"739 470 LINE",
"720 633 OFFCURVE",
"606 740 OFFCURVE",
"413 740 CURVE SMOOTH",
"157 740 OFFCURVE",
"55 549 OFFCURVE",
"55 372 CURVE SMOOTH",
"55 350 LINE SMOOTH",
"55 190 OFFCURVE",
"150 -20 OFFCURVE",
"418 -20 CURVE SMOOTH"
);
}
);
};
layerId = "445E0A7C-B12F-48FD-B0B3-D474C1FC2A30";
paths = (
{
closed = 1;
nodes = (
"627 -18 OFFCURVE",
"739 105 OFFCURVE",
"759 255 CURVE",
"659 255 LINE",
"640 136 OFFCURVE",
"548 72 OFFCURVE",
"423 72 CURVE SMOOTH",
"245 72 OFFCURVE",
"156 209 OFFCURVE",
"156 366 CURVE SMOOTH",
"156 530 OFFCURVE",
"244 660 OFFCURVE",
"417 660 CURVE SMOOTH",
"536 660 OFFCURVE",
"629 601 OFFCURVE",
"646 477 CURVE",
"746 477 LINE",
"727 642 OFFCURVE",
"612 750 OFFCURVE",
"417 750 CURVE SMOOTH",
"160 750 OFFCURVE",
"56 554 OFFCURVE",
"56 378 CURVE SMOOTH",
"56 356 LINE SMOOTH",
"56 193 OFFCURVE",
"155 -18 OFFCURVE",
"423 -18 CURVE SMOOTH"
);
}
);
width = 795;
},
{
anchors = (
{
name = bottom;
position = "{416, 0}";
},
{
name = top;
position = "{412, 730}";
}
);
layerId = "7C8656A8-8591-4735-94A0-92D633732231";
paths = (
{
closed = 1;
nodes = (
"626 -20 OFFCURVE",
"760 114 OFFCURVE",
"778 279 CURVE",
"592 279 LINE",
"579 203 OFFCURVE",
"508 154 OFFCURVE",
"415 154 CURVE SMOOTH",
"296 154 OFFCURVE",
"226 235 OFFCURVE",
"226 366 CURVE SMOOTH",
"226 496 OFFCURVE",
"294 578 OFFCURVE",
"410 578 CURVE SMOOTH",
"502 578 OFFCURVE",
"567 528 OFFCURVE",
"581 453 CURVE",
"767 453 LINE",
"750 631 OFFCURVE",
"610 752 OFFCURVE",
"410 752 CURVE SMOOTH",
"158 752 OFFCURVE",
"38 561 OFFCURVE",
"38 378 CURVE SMOOTH",
"38 356 LINE SMOOTH",
"38 190 OFFCURVE",
"152 -20 OFFCURVE",
"415 -20 CURVE SMOOTH"
);
}
);
width = 802;
},
{
anchors = (
{
name = bottom;
position = "{425, 0}";
},
{
name = top;
position = "{421, 730}";
}
);
background = {
paths = (
{
closed = 1;
nodes = (
"674 -16 OFFCURVE",
"802 177 OFFCURVE",
"802 360 CURVE SMOOTH",
"802 373 LINE SMOOTH",
"802 561 OFFCURVE",
"666 748 OFFCURVE",
"437 748 CURVE SMOOTH",
"208 748 OFFCURVE",
"70 561 OFFCURVE",
"70 373 CURVE SMOOTH",
"70 361 LINE SMOOTH",
"70 177 OFFCURVE",
"200 -16 OFFCURVE",
"437 -16 CURVE SMOOTH"
);
},
{
closed = 1;
nodes = (
"221 14 OFFCURVE",
"102 189 OFFCURVE",
"102 366 CURVE SMOOTH",
"102 549 OFFCURVE",
"228 718 OFFCURVE",
"437 718 CURVE SMOOTH",
"646 718 OFFCURVE",
"770 549 OFFCURVE",
"770 366 CURVE SMOOTH",
"770 189 OFFCURVE",
"652 14 OFFCURVE",
"437 14 CURVE SMOOTH"
);
}
);
};
layerId = "C54A1B2C-2BC8-455F-8AA9-31AEAFF53136";
paths = (
{
closed = 1;
nodes = (
"602 -16 OFFCURVE",
"719 84 OFFCURVE",
"744 237 CURVE",
"712 237 LINE",
"688 94 OFFCURVE",
"578 14 OFFCURVE",
"429 14 CURVE SMOOTH",
"208 14 OFFCURVE",
"102 194 OFFCURVE",
"102 366 CURVE SMOOTH",
"102 551 OFFCURVE",
"213 718 OFFCURVE",
"421 718 CURVE SMOOTH",
"565 718 OFFCURVE",
"679 637 OFFCURVE",
"697 495 CURVE",
"729 495 LINE",
"710 647 OFFCURVE",
"591 748 OFFCURVE",
"421 748 CURVE SMOOTH",
"185 748 OFFCURVE",
"70 557 OFFCURVE",
"70 372 CURVE SMOOTH",
"70 360 LINE SMOOTH",
"70 188 OFFCURVE",
"180 -16 OFFCURVE",
"429 -16 CURVE SMOOTH"
);
}
);
width = 792;
}
);
leftKerningGroup = UC_Round;
leftMetricsKey = O;
rightKerningGroup = UC_C;
unicode = 0043;
},
{
color = 7;
glyphname = D;
lastChange = "2020-05-27 23:54:24 +0000";
layers = (
{
anchors = (
{
name = bottom;
position = "{391, 0}";
},
{
name = center;
position = "{205, 365}";
},
{
name = top;
position = "{376, 730}";
}
);
background = {
anchors = (
{
name = bottom;
position = "{388, 0}";
},
{
name = center;
position = "{203, 360}";
},
{
name = top;
position = "{373, 720}";
}
);
paths = (
{
closed = 1;
nodes = (
"352 -4 LINE SMOOTH",
"616 -4 OFFCURVE",
"738 181 OFFCURVE",
"738 348 CURVE SMOOTH",
"738 374 LINE SMOOTH",
"738 556 OFFCURVE",
"616 724 OFFCURVE",
"352 724 CURVE SMOOTH",
"183 724 LINE",
"183 634 LINE",
"362 634 LINE SMOOTH",
"535 634 OFFCURVE",
"636 521 OFFCURVE",
"636 360 CURVE SMOOTH",
"636 206 OFFCURVE",
"535 86 OFFCURVE",
"362 86 CURVE SMOOTH",
"183 86 LINE",
"183 -4 LINE"
);
},
{
closed = 1;
nodes = (
"203 -4 LINE",
"203 724 LINE",
"105 724 LINE",
"105 -4 LINE"
);
}
);
};
layerId = "445E0A7C-B12F-48FD-B0B3-D474C1FC2A30";
paths = (
{
closed = 1;
nodes = (
"356 -4 LINE SMOOTH",
"619 -4 OFFCURVE",
"746 183 OFFCURVE",
"746 355 CURVE SMOOTH",
"746 377 LINE SMOOTH",
"746 553 OFFCURVE",
"619 734 OFFCURVE",
"356 734 CURVE SMOOTH",
"184 734 LINE",
"184 644 LINE",
"366 644 LINE SMOOTH",
"541 644 OFFCURVE",
"646 530 OFFCURVE",
"646 366 CURVE SMOOTH",
"646 208 OFFCURVE",
"541 86 OFFCURVE",
"366 86 CURVE SMOOTH",
"184 86 LINE",
"184 -4 LINE"
);
},
{
closed = 1;
nodes = (
"204 -4 LINE",
"204 734 LINE",
"106 734 LINE",
"106 -4 LINE"
);
}
);
width = 791;
},
{
anchors = (
{
name = bottom;
position = "{389, 0}";
},
{
name = center;
position = "{208, 365}";
},
{
name = top;
position = "{381, 730}";
}
);
layerId = "7C8656A8-8591-4735-94A0-92D633732231";
paths = (
{
closed = 1;
nodes = (
"352 -4 LINE SMOOTH",
"615 -4 OFFCURVE",
"750 176 OFFCURVE",
"750 356 CURVE SMOOTH",
"750 378 LINE SMOOTH",
"750 573 OFFCURVE",
"615 736 OFFCURVE",
"352 736 CURVE SMOOTH",
"240 736 LINE",
"240 562 LINE",
"360 562 LINE SMOOTH",
"486 562 OFFCURVE",
"562 495 OFFCURVE",
"562 367 CURVE SMOOTH",
"562 245 OFFCURVE",
"486 170 OFFCURVE",
"360 170 CURVE SMOOTH",
"240 170 LINE",
"240 -4 LINE"
);
},
{
closed = 1;
nodes = (
"260 -4 LINE",
"260 736 LINE",
"74 736 LINE",
"74 -4 LINE"
);
}
);
width = 778;
},
{
anchors = (
{
name = bottom;
position = "{393, 0}";
},
{
name = center;
position = "{206, 365}";
},
{
name = top;
position = "{391, 730}";
}
);
layerId = "C54A1B2C-2BC8-455F-8AA9-31AEAFF53136";
paths = (
{
closed = 1;
nodes = (
"372 -3 LINE SMOOTH",
"636 -3 OFFCURVE",
"744 183 OFFCURVE",
"744 360 CURVE SMOOTH",
"744 373 LINE SMOOTH",
"744 555 OFFCURVE",
"628 732 OFFCURVE",
"372 732 CURVE SMOOTH",
"143 732 LINE",
"143 702 LINE",
"376 702 LINE SMOOTH",
"607 702 OFFCURVE",
"712 543 OFFCURVE",
"712 366 CURVE SMOOTH",
"712 195 OFFCURVE",
"613 27 OFFCURVE",
"376 27 CURVE SMOOTH",
"143 27 LINE",
"143 -3 LINE"
);
},
{
closed = 1;
nodes = (
"162 -3 LINE",
"162 732 LINE",
"130 732 LINE",
"130 -3 LINE"
);
}
);
width = 804;
}
);
leftKerningGroup = UC_Stem;
leftMetricsKey = H;
rightKerningGroup = UC_Round;
rightMetricsKey = "=O-10";
unicode = 0044;
},
{
color = 7;
glyphname = E;
lastChange = "2019-06-10 16:48:47 +0000";
layers = (
{
anchors = (
{
name = bottom;
position = "{322, 0}";
},
{
name = ogonek;
position = "{538, 10}";
},
{
name = top;
position = "{323, 730}";
}
);
background = {
anchors = (
{
name = bottom;
position = "{319, 0}";
},
{
name = ogonek;
position = "{533, 10}";
},
{
name = top;
position = "{320, 720}";
}
);
paths = (
{
closed = 1;
nodes = (
"203 0 LINE",
"203 720 LINE",
"105 720 LINE",
"105 0 LINE"
);
},
{
closed = 1;
nodes = (
"533 0 LINE",
"533 88 LINE",
"183 88 LINE",
"183 0 LINE"
);
},
{
closed = 1;
nodes = (
"503 322 LINE",
"503 410 LINE",
"183 410 LINE",
"183 322 LINE"
);
},
{
closed = 1;
nodes = (
"523 632 LINE",
"523 720 LINE",
"183 720 LINE",
"183 632 LINE"
);
}
);
};
layerId = "445E0A7C-B12F-48FD-B0B3-D474C1FC2A30";
paths = (
{
closed = 1;
nodes = (
"204 0 LINE",
"204 730 LINE",
"106 730 LINE",
"106 0 LINE"
);
},
{
closed = 1;
nodes = (
"538 0 LINE",
"538 88 LINE",
"184 88 LINE",
"184 0 LINE"
);
},
{
closed = 1;
nodes = (
"507 327 LINE",
"507 415 LINE",
"184 415 LINE",
"184 327 LINE"
);
},
{
closed = 1;
nodes = (
"528 642 LINE",
"528 730 LINE",
"184 730 LINE",
"184 642 LINE"
);
}
);
width = 600;
},
{
anchors = (
{
name = bottom;
position = "{308, 0}";
},
{
name = ogonek;
position = "{539, 10}";
},
{
name = top;
position = "{304, 730}";
}
);
background = {
anchors = (
{
name = bottom;
position = "{305, 0}";
},
{
name = ogonek;
position = "{534, 10}";
},
{
name = top;
position = "{301, 720}";
}
);
paths = (
{
closed = 1;
nodes = (
"253 0 LINE",
"253 720 LINE",
"73 720 LINE",
"73 0 LINE"
);
},
{
closed = 1;
nodes = (
"537 0 LINE",
"537 152 LINE",
"233 152 LINE",
"233 0 LINE"
);
},
{
closed = 1;
nodes = (
"517 290 LINE",
"517 442 LINE",
"233 442 LINE",
"233 290 LINE"
);
},
{
closed = 1;
nodes = (
"531 568 LINE",
"531 720 LINE",
"233 720 LINE",
"233 568 LINE"
);
}
);
};
layerId = "7C8656A8-8591-4735-94A0-92D633732231";
paths = (
{
closed = 1;
nodes = (
"254 0 LINE",
"254 730 LINE",
"74 730 LINE",
"74 0 LINE"
);
},
{
closed = 1;
nodes = (
"542 0 LINE",
"542 152 LINE",
"234 152 LINE",
"234 0 LINE"
);
},
{
closed = 1;
nodes = (
"521 295 LINE",
"521 447 LINE",
"234 447 LINE",
"234 295 LINE"
);
},
{
closed = 1;
nodes = (
"536 578 LINE",
"536 730 LINE",
"234 730 LINE",
"234 578 LINE"
);
}
);
width = 592;
},
{
anchors = (
{
name = bottom;
position = "{333, 0}";
},
{
name = ogonek;
position = "{534, 10}";
},
{
name = top;
position = "{324, 730}";
}
);
layerId = "C54A1B2C-2BC8-455F-8AA9-31AEAFF53136";
paths = (
{
closed = 1;
nodes = (
"162 0 LINE",
"162 730 LINE",
"130 730 LINE",
"130 0 LINE"
);
},
{
closed = 1;
nodes = (
"534 0 LINE",
"534 30 LINE",
"147 30 LINE",
"147 0 LINE"
);
},
{
closed = 1;
nodes = (
"495 356 LINE",
"495 386 LINE",
"147 386 LINE",
"147 356 LINE"
);
},
{
closed = 1;
nodes = (
"521 700 LINE",
"521 730 LINE",
"147 730 LINE",
"147 700 LINE"
);
}
);
width = 608;
}
);
leftKerningGroup = UC_Stem;
leftMetricsKey = H;
rightKerningGroup = UC_E;
unicode = 0045;
},
{
color = 7;
glyphname = F;
lastChange = "2020-05-27 22:06:07 +0000";
layers = (
{
background = {
paths = (
{
closed = 1;
nodes = (
"203 0 LINE",
"203 720 LINE",
"105 720 LINE",
"105 0 LINE"
);
},
{
closed = 1;
nodes = (
"493 321 LINE",
"493 409 LINE",
"183 408 LINE",
"183 320 LINE"
);
},
{
closed = 1;
nodes = (
"509 633 LINE",
"509 721 LINE",
"183 720 LINE",
"183 632 LINE"
);
}
);
};
layerId = "445E0A7C-B12F-48FD-B0B3-D474C1FC2A30";
paths = (
{
closed = 1;
nodes = (
"204 0 LINE",
"204 730 LINE",
"106 730 LINE",
"106 0 LINE"
);
},
{
closed = 1;
nodes = (
"497 326 LINE",
"497 414 LINE",
"184 413 LINE",
"184 325 LINE"
);
},
{
closed = 1;
nodes = (
"514 642 LINE",
"514 730 LINE",
"184 730 LINE",
"184 642 LINE"
);
}
);
width = 560;
},
{
background = {
paths = (
{
closed = 1;
nodes = (
"259 0 LINE",
"259 720 LINE",
"73 720 LINE",
"73 0 LINE"
);
},
{
closed = 1;
nodes = (
"507 278 LINE",
"507 430 LINE",
"239 430 LINE",
"239 278 LINE"
);
},
{
closed = 1;
nodes = (
"517 568 LINE",
"517 720 LINE",
"239 720 LINE",
"239 568 LINE"
);
}
);
};
layerId = "7C8656A8-8591-4735-94A0-92D633732231";
paths = (
{
closed = 1;
nodes = (
"260 0 LINE",
"260 730 LINE",
"74 730 LINE",
"74 0 LINE"
);
},
{
closed = 1;
nodes = (
"511 283 LINE",
"511 435 LINE",
"240 435 LINE",
"240 283 LINE"
);
},
{
closed = 1;
nodes = (
"522 578 LINE",
"522 730 LINE",
"240 730 LINE",
"240 578 LINE"
);
}
);
width = 560;
},
{
layerId = "C54A1B2C-2BC8-455F-8AA9-31AEAFF53136";
paths = (
{
closed = 1;
nodes = (
"162 0 LINE",
"162 730 LINE",
"130 730 LINE",
"130 0 LINE"
);
},
{
closed = 1;
nodes = (
"486 362 LINE",
"486 392 LINE",
"143 391 LINE",
"143 360 LINE"
);
},
{
closed = 1;
nodes = (
"508 701 LINE",
"508 731 LINE",
"143 730 LINE",
"143 701 LINE"
);
}
);
width = 560;
}
);
leftKerningGroup = UC_Stem;
leftMetricsKey = H;
unicode = 0046;
},
{
color = 7;
glyphname = G;
lastChange = "2019-06-04 22:13:30 +0000";
layers = (
{
anchors = (
{
name = bottom;
position = "{434, 0}";
},
{
name = top;
position = "{414, 730}";
}
);
background = {
anchors = (
{
name = bottom;
position = "{429, 0}";
},
{
name = top;
position = "{410, 720}";
}
);
paths = (
{
closed = 1;
nodes = (
"627 -18 OFFCURVE",
"739 105 OFFCURVE",
"759 255 CURVE",
"659 255 LINE",
"640 136 OFFCURVE",
"548 72 OFFCURVE",
"423 72 CURVE SMOOTH",
"245 72 OFFCURVE",
"156 209 OFFCURVE",
"156 366 CURVE SMOOTH",
"156 530 OFFCURVE",
"244 660 OFFCURVE",
"417 660 CURVE SMOOTH",
"536 660 OFFCURVE",
"629 601 OFFCURVE",
"646 477 CURVE",
"746 477 LINE",
"727 642 OFFCURVE",
"612 750 OFFCURVE",
"417 750 CURVE SMOOTH",
"159 750 OFFCURVE",
"56 557 OFFCURVE",
"56 378 CURVE SMOOTH",
"56 356 LINE SMOOTH",
"56 194 OFFCURVE",
"152 -18 OFFCURVE",
"423 -18 CURVE SMOOTH"
);
}
);
};
layerId = "445E0A7C-B12F-48FD-B0B3-D474C1FC2A30";
paths = (
{
closed = 1;
nodes = (
"565 -18 OFFCURVE",
"670 32 OFFCURVE",
"735 118 CURVE",
"735 292 LINE",
"643 292 LINE",
"643 75 LINE",
"679 194 LINE",
"635 120 OFFCURVE",
"545 70 OFFCURVE",
"432 70 CURVE SMOOTH",
"272 70 OFFCURVE",
"156 170 OFFCURVE",
"156 371 CURVE SMOOTH",
"156 546 OFFCURVE",
"263 660 OFFCURVE",
"416 660 CURVE SMOOTH",
"527 660 OFFCURVE",
"628 599 OFFCURVE",
"642 477 CURVE",
"742 477 LINE",
"727 638 OFFCURVE",
"598 750 OFFCURVE",
"416 750 CURVE SMOOTH",
"191 750 OFFCURVE",
"56 570 OFFCURVE",
"56 383 CURVE SMOOTH",
"56 361 LINE SMOOTH",
"56 142 OFFCURVE",
"206 -18 OFFCURVE",
"432 -18 CURVE SMOOTH"
);
},
{
closed = 1;
nodes = (
"797 272 LINE",
"797 354 LINE",
"406 354 LINE",
"406 272 LINE"
);
}
);
width = 831;
},
{
anchors = (
{
name = bottom;
position = "{429, 0}";
},
{
name = top;
position = "{409, 730}";
}
);
background = {
anchors = (
{
name = bottom;
position = "{424, 0}";
},
{
name = top;
position = "{405, 720}";
}
);
paths = (
{
closed = 1;
nodes = (
"572 -22 OFFCURVE",
"687 39 OFFCURVE",
"746 141 CURVE",
"746 290 LINE",
"576 290 LINE",
"576 135 LINE",
"589 241 LINE",
"566 185 OFFCURVE",
"503 148 OFFCURVE",
"422 148 CURVE SMOOTH",
"292 148 OFFCURVE",
"225 240 OFFCURVE",
"225 360 CURVE SMOOTH",
"225 480 OFFCURVE",
"288 568 OFFCURVE",
"407 568 CURVE SMOOTH",
"499 568 OFFCURVE",
"562 518 OFFCURVE",
"576 454 CURVE",
"762 454 LINE",
"745 625 OFFCURVE",
"606 742 OFFCURVE",
"407 742 CURVE SMOOTH",
"154 742 OFFCURVE",
"37 551 OFFCURVE",
"37 372 CURVE SMOOTH",
"37 350 LINE SMOOTH",
"37 184 OFFCURVE",
"145 -22 OFFCURVE",
"422 -22 CURVE SMOOTH"
);
},
{
closed = 1;
nodes = (
"805 254 LINE",
"805 384 LINE",
"403 384 LINE",
"403 254 LINE"
);
}
);
};
layerId = "7C8656A8-8591-4735-94A0-92D633732231";
paths = (
{
closed = 1;
nodes = (
"575 -20 OFFCURVE",
"692 39 OFFCURVE",
"753 144 CURVE",
"753 294 LINE",
"583 294 LINE",
"583 135 LINE",
"597 245 LINE",
"573 188 OFFCURVE",
"510 150 OFFCURVE",
"427 150 CURVE SMOOTH",
"295 150 OFFCURVE",
"226 242 OFFCURVE",
"226 366 CURVE SMOOTH",
"226 489 OFFCURVE",
"291 578 OFFCURVE",
"411 578 CURVE SMOOTH",
"505 578 OFFCURVE",
"571 527 OFFCURVE",
"583 461 CURVE",
"769 461 LINE",
"752 632 OFFCURVE",
"612 752 OFFCURVE",
"411 752 CURVE SMOOTH",
"161 752 OFFCURVE",
"38 560 OFFCURVE",
"38 378 CURVE SMOOTH",
"38 356 LINE SMOOTH",
"38 187 OFFCURVE",
"152 -20 OFFCURVE",
"427 -20 CURVE SMOOTH"
);
},
{
closed = 1;
nodes = (
"813 258 LINE",
"813 388 LINE",
"407 388 LINE",
"407 258 LINE"
);
}
);
width = 833;
},
{
anchors = (
{
name = bottom;
position = "{430, 0}";
},
{
name = top;
position = "{419, 730}";
}
);
layerId = "C54A1B2C-2BC8-455F-8AA9-31AEAFF53136";
paths = (
{
closed = 1;
nodes = (
"562 -16 OFFCURVE",
"657 31 OFFCURVE",
"714 102 CURVE",
"714 302 LINE",
"682 302 LINE",
"682 87 LINE",
"699 132 LINE",
"646 58 OFFCURVE",
"552 14 OFFCURVE",
"435 14 CURVE SMOOTH",
"196 14 OFFCURVE",
"102 194 OFFCURVE",
"102 366 CURVE SMOOTH",
"102 551 OFFCURVE",
"211 718 OFFCURVE",
"419 718 CURVE SMOOTH",
"563 718 OFFCURVE",
"675 637 OFFCURVE",
"693 495 CURVE",
"725 495 LINE",
"706 647 OFFCURVE",
"589 748 OFFCURVE",
"419 748 CURVE SMOOTH",
"183 748 OFFCURVE",
"70 557 OFFCURVE",
"70 372 CURVE SMOOTH",
"70 360 LINE SMOOTH",
"70 188 OFFCURVE",
"168 -16 OFFCURVE",
"435 -16 CURVE SMOOTH"
);
},
{
closed = 1;
nodes = (
"785 292 LINE",
"785 320 LINE",
"407 320 LINE",
"407 292 LINE"
);
}
);
width = 831;
}
);
leftKerningGroup = UC_Round;
leftMetricsKey = O;
rightKerningGroup = UC_G;
unicode = 0047;
},
{
color = 7;
glyphname = H;
lastChange = "2020-05-27 00:57:23 +0000";
layers = (
{
anchors = (
{
name = bottom;
position = "{402, 0}";
},
{
name = center;
position = "{402, 606}";
},
{
name = top;
position = "{402, 730}";
}
);
background = {
anchors = (
{
name = bottom;
position = "{398, 0}";
},
{
name = center;
position = "{398, 598}";
},
{
name = top;
position = "{398, 720}";
}
);
paths = (
{
closed = 1;
nodes = (
"691 0 LINE",
"691 720 LINE",
"593 720 LINE",
"593 0 LINE"
);
},
{
closed = 1;
nodes = (
"203 0 LINE",
"203 720 LINE",
"105 720 LINE",
"105 0 LINE"
);
},
{
closed = 1;
nodes = (
"613 314 LINE",
"613 402 LINE",
"183 402 LINE",
"183 314 LINE"
);
}
);
};
layerId = "445E0A7C-B12F-48FD-B0B3-D474C1FC2A30";
paths = (
{
closed = 1;
nodes = (
"698 0 LINE",
"698 730 LINE",
"600 730 LINE",
"600 0 LINE"
);
},
{
closed = 1;
nodes = (
"204 0 LINE",
"204 730 LINE",
"106 730 LINE",
"106 0 LINE"
);
},
{
closed = 1;
nodes = (
"620 319 LINE",
"620 407 LINE",
"184 407 LINE",
"184 319 LINE"
);
}
);
width = 804;
},
{
anchors = (
{
name = bottom;
position = "{399, 0}";
},
{
name = center;
position = "{399, 606}";
},
{
name = top;
position = "{399, 730}";
}
);
layerId = "7C8656A8-8591-4735-94A0-92D633732231";
paths = (
{
closed = 1;
nodes = (
"724 0 LINE",
"724 730 LINE",
"538 730 LINE",
"538 0 LINE"
);
},
{
closed = 1;
nodes = (
"260 0 LINE",
"260 730 LINE",
"74 730 LINE",
"74 0 LINE"
);
},
{
closed = 1;
nodes = (
"570 287 LINE",
"570 449 LINE",
"228 449 LINE",
"228 287 LINE"
);
}
);
width = 798;
},
{
anchors = (
{
name = bottom;
position = "{405, 0}";
},
{
name = center;
position = "{405, 606}";
},
{
name = top;
position = "{405, 730}";
}
);
layerId = "C54A1B2C-2BC8-455F-8AA9-31AEAFF53136";
paths = (
{
closed = 1;
nodes = (
"680 0 LINE",
"680 730 LINE",
"648 730 LINE",
"648 0 LINE"
);
},
{
closed = 1;
nodes = (
"162 0 LINE",
"162 730 LINE",
"130 730 LINE",
"130 0 LINE"
);
},
{
closed = 1;
nodes = (
"660 345 LINE",
"660 375 LINE",
"150 375 LINE",
"150 345 LINE"
);
}
);
width = 810;
}
);
leftKerningGroup = UC_Stem;
rightKerningGroup = UC_Stem;
unicode = 0048;
},
{
color = 6;
glyphname = Hbar;
lastChange = "2019-05-29 22:43:47 +0000";
layers = (
{
components = (
{
name = H;
}
);
layerId = "445E0A7C-B12F-48FD-B0B3-D474C1FC2A30";
paths = (
{
closed = 1;
nodes = (
"762 556 LINE",
"762 636 LINE",
"42 636 LINE",
"42 556 LINE"
);
}
);
width = 804;
},
{
background = {
components = (
{
name = H;
}
);
paths = (
{
closed = 1;
nodes = (
"770 528 LINE",
"770 652 LINE",
"26 652 LINE",
"26 528 LINE"
);
}
);
};
components = (
{
name = H;
}
);
layerId = "7C8656A8-8591-4735-94A0-92D633732231";
paths = (
{
closed = 1;
nodes = (
"773 533 LINE",
"773 657 LINE",
"25 657 LINE",
"25 533 LINE"
);
}
);
width = 798;
},
{
components = (
{
name = H;
}
);
layerId = "C54A1B2C-2BC8-455F-8AA9-31AEAFF53136";
paths = (
{
closed = 1;
nodes = (
"752 592 LINE",
"752 620 LINE",
"58 620 LINE",
"58 592 LINE"
);
}
);
width = 810;
}
);
leftKerningGroup = UC_Stem;
widthMetricsKey = H;
rightKerningGroup = UC_Stem;
unicode = 0126;
},
{
color = 7;
glyphname = I;
lastChange = "2019-05-29 22:43:47 +0000";
layers = (
{
anchors = (
{
name = bottom;
position = "{157, 0}";
},
{
name = ogonek;
position = "{204, 10}";
},
{
name = top;
position = "{157, 730}";
},
{
name = topleft;
position = "{21, 730}";
}
);
background = {
anchors = (
{
name = bottom;
position = "{156, 0}";
},
{
name = ogonek;
position = "{203, 10}";
},
{
name = top;
position = "{156, 720}";
},
{
name = topleft;
position = "{21, 720}";
}
);
paths = (
{
closed = 1;
nodes = (
"205 0 LINE",
"205 720 LINE",
"107 720 LINE",
"107 0 LINE"
);
}
);
};
layerId = "445E0A7C-B12F-48FD-B0B3-D474C1FC2A30";
paths = (
{
closed = 1;
nodes = (
"206 0 LINE",
"206 730 LINE",
"108 730 LINE",
"108 0 LINE"
);
}
);
width = 314;
},
{
anchors = (
{
name = bottom;
position = "{169, 0}";
},
{
name = ogonek;
position = "{249, 10}";
},
{
name = top;
position = "{169, 730}";
},
{
name = topleft;
position = "{-11, 730}";
}
);
background = {
anchors = (
{
name = bottom;
position = "{168, 0}";
},
{
name = ogonek;
position = "{248, 10}";
},
{
name = top;
position = "{168, 720}";
},
{
name = topleft;
position = "{-11, 720}";
}
);
paths = (
{
closed = 1;
nodes = (
"261 0 LINE",
"261 720 LINE",
"75 720 LINE",
"75 0 LINE"
);
}
);
};
layerId = "7C8656A8-8591-4735-94A0-92D633732231";
paths = (
{
closed = 1;
nodes = (
"262 0 LINE",
"262 730 LINE",
"76 730 LINE",
"76 0 LINE"
);
}
);
width = 338;
},
{
anchors = (
{
name = bottom;
position = "{148, 0}";
},
{
name = ogonek;
position = "{164, 10}";
},
{
name = top;
position = "{148, 730}";
},
{
name = topleft;
position = "{46, 730}";
}
);
layerId = "C54A1B2C-2BC8-455F-8AA9-31AEAFF53136";
paths = (
{
closed = 1;
nodes = (
"164 0 LINE",
"164 730 LINE",
"132 730 LINE",
"132 0 LINE"
);
}
);
width = 296;
}
);
leftMetricsKey = "=H+2";
rightMetricsKey = "=H+2";
unicode = 0049;
},
{
color = 7;
glyphname = J;
lastChange = "2019-06-10 16:49:25 +0000";
layers = (
{
anchors = (
{
name = bottom;
position = "{323, 0}";
},
{
name = top;
position = "{340, 730}";
}
);
background = {
anchors = (
{
name = bottom;
position = "{320, 0}";
},
{
name = top;
position = "{337, 720}";
}
);
paths = (
{
closed = 1;
nodes = (
"431 -20 OFFCURVE",
"541 69 OFFCURVE",
"541 243 CURVE SMOOTH",
"541 652 LINE",
"443 652 LINE",
"443 225 LINE SMOOTH",
"443 127 OFFCURVE",
"378 70 OFFCURVE",
"288 70 CURVE SMOOTH",
"198 70 OFFCURVE",
"133 127 OFFCURVE",
"133 225 CURVE SMOOTH",
"133 268 LINE",
"35 268 LINE",
"35 243 LINE SMOOTH",
"35 69 OFFCURVE",
"145 -20 OFFCURVE",
"288 -20 CURVE SMOOTH"
);
},
{
closed = 1;
nodes = (
"541 632 LINE",
"541 720 LINE",
"133 720 LINE",
"133 632 LINE"
);
}
);
};
layerId = "445E0A7C-B12F-48FD-B0B3-D474C1FC2A30";
paths = (
{
closed = 1;
nodes = (
"436 -18 OFFCURVE",
"546 72 OFFCURVE",
"546 248 CURVE SMOOTH",
"546 662 LINE",
"448 662 LINE",
"448 230 LINE SMOOTH",
"448 130 OFFCURVE",
"383 72 OFFCURVE",
"292 72 CURVE SMOOTH",
"201 72 OFFCURVE",
"136 130 OFFCURVE",
"136 230 CURVE SMOOTH",
"136 273 LINE",
"38 273 LINE",
"38 248 LINE SMOOTH",
"38 72 OFFCURVE",
"149 -18 OFFCURVE",
"292 -18 CURVE SMOOTH"
);
},
{
closed = 1;
nodes = (
"546 642 LINE",
"546 730 LINE",
"134 730 LINE",
"134 642 LINE"
);
}
);
width = 640;
},
{
anchors = (
{
name = bottom;
position = "{325, 0}";
},
{
name = top;
position = "{348, 730}";
}
);
background = {
anchors = (
{
name = bottom;
position = "{322, 0}";
},
{
name = top;
position = "{345, 720}";
}
);
paths = (
{
closed = 1;
nodes = (
"478 -20 OFFCURVE",
"577 78 OFFCURVE",
"577 248 CURVE SMOOTH",
"577 578 LINE",
"391 578 LINE",
"391 242 LINE SMOOTH",
"391 190 OFFCURVE",
"359 154 OFFCURVE",
"303 154 CURVE SMOOTH",
"247 154 OFFCURVE",
"215 190 OFFCURVE",
"215 242 CURVE SMOOTH",
"215 288 LINE",
"31 288 LINE",
"31 248 LINE SMOOTH",
"31 78 OFFCURVE",
"130 -20 OFFCURVE",
"304 -20 CURVE SMOOTH"
);
},
{
closed = 1;
nodes = (
"577 558 LINE",
"577 720 LINE",
"113 720 LINE",
"113 558 LINE"
);
}
);
};
layerId = "7C8656A8-8591-4735-94A0-92D633732231";
paths = (
{
closed = 1;
nodes = (
"482 -20 OFFCURVE",
"582 79 OFFCURVE",
"582 251 CURVE SMOOTH",
"582 588 LINE",
"396 588 LINE",
"396 245 LINE SMOOTH",
"396 191 OFFCURVE",
"363 154 OFFCURVE",
"306 154 CURVE SMOOTH",
"249 154 OFFCURVE",
"216 191 OFFCURVE",
"216 245 CURVE SMOOTH",
"216 291 LINE",
"32 291 LINE",
"32 251 LINE SMOOTH",
"32 79 OFFCURVE",
"133 -20 OFFCURVE",
"307 -20 CURVE SMOOTH"
);
},
{
closed = 1;
nodes = (
"582 568 LINE",
"582 730 LINE",
"114 730 LINE",
"114 568 LINE"
);
}
);
width = 644;
},
{
anchors = (
{
name = bottom;
position = "{281, 0}";
},
{
name = top;
position = "{333, 730}";
}
);
layerId = "C54A1B2C-2BC8-455F-8AA9-31AEAFF53136";
paths = (
{
closed = 1;
nodes = (
"430 -16 OFFCURVE",
"516 77 OFFCURVE",
"516 221 CURVE SMOOTH",
"516 718 LINE",
"484 718 LINE",
"484 217 LINE SMOOTH",
"484 91 OFFCURVE",
"412 14 OFFCURVE",
"281 14 CURVE SMOOTH",
"150 14 OFFCURVE",
"78 91 OFFCURVE",
"78 217 CURVE SMOOTH",
"78 249 LINE",
"46 249 LINE",
"46 221 LINE SMOOTH",
"46 77 OFFCURVE",
"132 -16 OFFCURVE",
"281 -16 CURVE SMOOTH"
);
},
{
closed = 1;
nodes = (
"516 700 LINE",
"516 730 LINE",
"145 730 LINE",
"145 700 LINE"
);
}
);
width = 634;
}
);
leftKerningGroup = UC_J;
rightKerningGroup = UC_J;
rightMetricsKey = "=H-12";
unicode = 004A;
},
{
color = 7;
glyphname = K;
lastChange = "2019-06-10 16:49:06 +0000";
layers = (
{
anchors = (
{
name = bottom;
position = "{379, 0}";
},
{
name = top;
position = "{351, 730}";
}
);
background = {
anchors = (
{
name = bottom;
position = "{376, 0}";
},
{
name = top;
position = "{348, 720}";
}
);
paths = (
{
closed = 1;
nodes = (
"683 0 LINE",
"295 441 LINE",
"304 373 LINE",
"609 720 LINE",
"497 720 LINE",
"161 336 LINE",
"267 336 LINE",
"561 0 LINE"
);
},
{
closed = 1;
nodes = (
"203 0 LINE",
"203 720 LINE",
"105 720 LINE",
"105 0 LINE"
);
}
);
};
layerId = "445E0A7C-B12F-48FD-B0B3-D474C1FC2A30";
paths = (
{
closed = 1;
nodes = (
"688 0 LINE",
"296 447 LINE",
"305 378 LINE",
"613 730 LINE",
"501 730 LINE",
"162 341 LINE",
"269 341 LINE",
"566 0 LINE"
);
},
{
closed = 1;
nodes = (
"204 0 LINE",
"204 730 LINE",
"106 730 LINE",
"106 0 LINE"
);
}
);
width = 678;
},
{
anchors = (
{
name = bottom;
position = "{405, 0}";
},
{
name = top;
position = "{389, 730}";
}
);
background = {
anchors = (
{
name = bottom;
position = "{402, 0}";
},
{
name = top;
position = "{386, 720}";
}
);
paths = (
{
closed = 1;
nodes = (
"777 0 LINE",
"466 447 LINE",
"466 377 LINE",
"727 720 LINE",
"513 720 LINE",
"221 336 LINE",
"319 336 LINE",
"553 0 LINE"
);
},
{
closed = 1;
nodes = (
"259 0 LINE",
"259 720 LINE",
"73 720 LINE",
"73 0 LINE"
);
}
);
};
layerId = "7C8656A8-8591-4735-94A0-92D633732231";
paths = (
{
closed = 1;
nodes = (
"784 0 LINE",
"469 453 LINE",
"469 382 LINE",
"733 730 LINE",
"519 730 LINE",
"224 341 LINE",
"323 341 LINE",
"560 0 LINE"
);
},
{
closed = 1;
nodes = (
"260 0 LINE",
"260 730 LINE",
"74 730 LINE",
"74 0 LINE"
);
}
);
width = 777;
},
{
anchors = (
{
name = bottom;
position = "{356, 0}";
},
{
name = top;
position = "{323, 730}";
}
);
layerId = "C54A1B2C-2BC8-455F-8AA9-31AEAFF53136";
paths = (
{
closed = 1;
nodes = (
"629 0 LINE",
"216 403 LINE",
"217 374 LINE",
"549 730 LINE",
"510 730 LINE",
"158 352 LINE",
"226 352 LINE",
"586 0 LINE"
);
},
{
closed = 1;
nodes = (
"162 0 LINE",
"162 730 LINE",
"130 730 LINE",
"130 0 LINE"
);
}
);
width = 617;
}
);
leftKerningGroup = UC_Stem;
leftMetricsKey = H;
rightKerningGroup = UC_K;
unicode = 004B;
},
{
color = 7;
glyphname = L;
lastChange = "2019-06-04 22:19:25 +0000";
layers = (
{
anchors = (
{
name = bottom;
position = "{312, 0}";
},
{
name = center;
position = "{155, 365}";
},
{
name = top;
position = "{155, 730}";
},
{
name = topright;
position = "{270, 541}";
}
);
background = {
anchors = (
{
name = bottom;
position = "{309, 0}";
},
{
name = center;
position = "{154, 360}";
},
{
name = top;
position = "{154, 720}";
},
{
name = topright;
position = "{269, 534}";
}
);
paths = (
{
closed = 1;
nodes = (
"203 0 LINE",
"203 720 LINE",
"105 720 LINE",
"105 0 LINE"
);
},
{
closed = 1;
nodes = (
"513 0 LINE",
"513 88 LINE",
"183 88 LINE",
"183 0 LINE"
);
}
);
};
layerId = "445E0A7C-B12F-48FD-B0B3-D474C1FC2A30";
paths = (
{
closed = 1;
nodes = (
"204 0 LINE",
"204 730 LINE",
"106 730 LINE",
"106 0 LINE"
);
},
{
closed = 1;
nodes = (
"518 0 LINE",
"518 88 LINE",
"184 88 LINE",
"184 0 LINE"
);
}
);
width = 544;
},
{
anchors = (
{
name = bottom;
position = "{305, 0}";
},
{
name = center;
position = "{167, 365}";
},
{
name = top;
position = "{167, 730}";
},
{
name = topright;
position = "{278, 541}";
}
);
background = {
anchors = (
{
name = bottom;
position = "{302, 0}";
},
{
name = center;
position = "{166, 360}";
},
{
name = top;
position = "{166, 720}";
},
{
name = topright;
position = "{277, 534}";
}
);
paths = (
{
closed = 1;
nodes = (
"259 0 LINE",
"259 720 LINE",
"73 720 LINE",
"73 0 LINE"
);
},
{
closed = 1;
nodes = (
"531 0 LINE",
"531 162 LINE",
"239 162 LINE",
"239 0 LINE"
);
}
);
};
layerId = "7C8656A8-8591-4735-94A0-92D633732231";
paths = (
{
closed = 1;
nodes = (
"260 0 LINE",
"260 730 LINE",
"74 730 LINE",
"74 0 LINE"
);
},
{
closed = 1;
nodes = (
"536 0 LINE",
"536 162 LINE",
"240 162 LINE",
"240 0 LINE"
);
}
);
width = 562;
},
{
anchors = (
{
name = bottom;
position = "{324, -1}";
},
{
name = center;
position = "{147, 365}";
},
{
name = top;
position = "{146, 730}";
},
{
name = topright;
position = "{244, 541}";
}
);
layerId = "C54A1B2C-2BC8-455F-8AA9-31AEAFF53136";
paths = (
{
closed = 1;
nodes = (
"162 0 LINE",
"162 730 LINE",
"130 730 LINE",
"130 0 LINE"
);
},
{
closed = 1;
nodes = (
"504 0 LINE",
"504 30 LINE",
"143 30 LINE",
"143 0 LINE"
);
}
);
width = 530;
}
);
leftKerningGroup = UC_Stem;
leftMetricsKey = H;
rightKerningGroup = UC_L;
unicode = 004C;
},
{
color = 7;
glyphname = Lslash;
lastChange = "2019-06-04 20:31:00 +0000";
layers = (
{
background = {
components = (
{
name = L;
}
);
paths = (
{
closed = 1;
nodes = (
"379 420 LINE",
"379 504 LINE",
"167 381 LINE",
"167 297 LINE"
);
},
{
closed = 1;
nodes = (
"137 284 LINE",
"137 368 LINE",
"30 306 LINE",
"30 222 LINE"
);
}
);
};
components = (
{
name = L;
}
);
guideLines = (
{
angle = 210.0897;
position = "{87, 257}";
}
);
layerId = "445E0A7C-B12F-48FD-B0B3-D474C1FC2A30";
paths = (
{
closed = 1;
nodes = (
"379 420 LINE",
"379 504 LINE",
"167 381 LINE",
"167 297 LINE"
);
},
{
closed = 1;
nodes = (
"137 284 LINE",
"137 368 LINE",
"30 306 LINE",
"30 222 LINE"
);
}
);
width = 544;
},
{
background = {
components = (
{
name = L;
}
);
paths = (
{
closed = 1;
nodes = (
"397 410 LINE",
"397 556 LINE",
"167 423 LINE",
"167 277 LINE"
);
},
{
closed = 1;
nodes = (
"137 264 LINE",
"137 410 LINE",
"18 341 LINE",
"18 195 LINE"
);
}
);
};
components = (
{
name = L;
}
);
guideLines = (
{
angle = 210.0897;
position = "{87, 257}";
}
);
layerId = "7C8656A8-8591-4735-94A0-92D633732231";
paths = (
{
closed = 1;
nodes = (
"397 410 LINE",
"397 556 LINE",
"167 423 LINE",
"167 277 LINE"
);
},
{
closed = 1;
nodes = (
"137 264 LINE",
"137 410 LINE",
"18 341 LINE",
"18 195 LINE"
);
}
);
width = 562;
},
{
components = (
{
alignment = -1;
name = L;
}
);
layerId = "C54A1B2C-2BC8-455F-8AA9-31AEAFF53136";
paths = (
{
closed = 1;
nodes = (
"355 434 LINE",
"355 464 LINE",
"156 348 LINE",
"156 318 LINE"
);
},
{
closed = 1;
nodes = (
"137 307 LINE",
"137 337 LINE",
"40 280 LINE",
"40 250 LINE"
);
}
);
width = 530;
}
);
leftKerningGroup = UC_Eth;
widthMetricsKey = L;
rightKerningGroup = UC_L;
unicode = 0141;
},
{
color = 7;
glyphname = M;
lastChange = "2019-05-29 22:43:47 +0000";
layers = (
{
background = {
paths = (
{
closed = 1;
nodes = (
"195 0 LINE",
"195 614 LINE",
"187 612 LINE",
"393 149 LINE",
"511 149 LINE",
"717 612 LINE",
"709 614 LINE",
"709 0 LINE",
"807 0 LINE",
"807 720 LINE",
"676 720 LINE",
"463 241 LINE",
"448 241 LINE",
"235 720 LINE",
"105 720 LINE",
"105 0 LINE"
);
}
);
};
guideLines = (
{
position = "{6, 587}";
}
);
layerId = "445E0A7C-B12F-48FD-B0B3-D474C1FC2A30";
paths = (
{
closed = 1;
nodes = (
"196 0 LINE",
"196 623 LINE",
"188 621 LINE",
"396 151 LINE",
"516 151 LINE",
"723 621 LINE",
"716 623 LINE",
"716 0 LINE",
"814 0 LINE",
"814 730 LINE",
"683 730 LINE",
"468 243 LINE",
"452 243 LINE",
"236 730 LINE",
"106 730 LINE",
"106 0 LINE"
);
}
);
width = 920;
},
{
background = {
paths = (
{
closed = 1;
nodes = (
"243 0 LINE",
"246 614 LINE",
"214 612 LINE",
"401 145 LINE",
"567 145 LINE",
"753 612 LINE",
"723 614 LINE",
"723 0 LINE",
"907 0 LINE",
"907 720 LINE",
"644 720 LINE",
"498 343 LINE",
"480 343 LINE",
"333 720 LINE",
"71 720 LINE",
"75 0 LINE"
);
}
);
};
guideLines = (
{
position = "{36, 536}";
}
);
layerId = "7C8656A8-8591-4735-94A0-92D633732231";
paths = (
{
closed = 1;
nodes = (
"244 0 LINE",
"244 623 LINE",
"213 621 LINE",
"402 147 LINE",
"571 147 LINE",
"759 621 LINE",
"730 623 LINE",
"730 0 LINE",
"914 0 LINE",
"914 730 LINE",
"651 730 LINE",
"502 345 LINE",
"482 345 LINE",
"332 730 LINE",
"74 730 LINE",
"74 0 LINE"
);
}
);
width = 988;
},
{
background = {
paths = (
{
closed = 0;
nodes = (
"712 0 LINE",
"744 0 LINE"
);
}
);
};
layerId = "C54A1B2C-2BC8-455F-8AA9-31AEAFF53136";
paths = (
{
closed = 1;
nodes = (
"160 0 LINE",
"160 690 LINE",
"153 690 LINE",
"406 160 LINE",
"464 160 LINE",
"717 690 LINE",
"712 690 LINE",
"712 0 LINE",
"744 0 LINE",
"744 730 LINE",
"704 730 LINE",
"446 189 LINE",
"424 189 LINE",
"166 730 LINE",
"130 730 LINE",
"130 0 LINE"
);
}
);
width = 874;
}
);
leftKerningGroup = UC_Stem;
leftMetricsKey = H;
rightKerningGroup = UC_Stem;
rightMetricsKey = H;
unicode = 004D;
},
{
color = 7;
glyphname = N;
lastChange = "2019-05-29 22:43:47 +0000";
layers = (
{
anchors = (
{
name = bottom;
position = "{412, 0}";
},
{
name = top;
position = "{443, 730}";
}
);
background = {
anchors = (
{
name = bottom;
position = "{409, 0}";
},
{
name = top;
position = "{439, 720}";
}
);
paths = (
{
closed = 1;
nodes = (
"197 0 LINE",
"197 650 LINE",
"177 632 LINE",
"209 632 LINE",
"575 0 LINE",
"737 0 LINE",
"737 720 LINE",
"643 720 LINE",
"643 70 LINE",
"663 88 LINE",
"631 88 LINE",
"265 720 LINE",
"105 720 LINE",
"105 0 LINE"
);
}
);
};
layerId = "445E0A7C-B12F-48FD-B0B3-D474C1FC2A30";
paths = (
{
closed = 1;
nodes = (
"198 0 LINE",
"198 660 LINE",
"178 642 LINE",
"210 642 LINE",
"581 0 LINE",
"743 0 LINE",
"743 730 LINE",
"649 730 LINE",
"649 70 LINE",
"669 88 LINE",
"637 88 LINE",
"266 730 LINE",
"106 730 LINE",
"106 0 LINE"
);
}
);
width = 849;
},
{
anchors = (
{
name = bottom;
position = "{438, 0}";
},
{
name = top;
position = "{453, 730}";
}
);
background = {
anchors = (
{
name = bottom;
position = "{435, 0}";
},
{
name = top;
position = "{449, 720}";
}
);
paths = (
{
closed = 1;
nodes = (
"245 0 LINE",
"245 590 LINE",
"225 572 LINE",
"260 572 LINE",
"498 0 LINE",
"805 0 LINE",
"805 720 LINE",
"631 720 LINE",
"631 130 LINE",
"651 148 LINE",
"616 148 LINE",
"378 720 LINE",
"73 720 LINE",
"73 0 LINE"
);
}
);
};
layerId = "7C8656A8-8591-4735-94A0-92D633732231";
paths = (
{
closed = 1;
nodes = (
"246 0 LINE",
"246 600 LINE",
"226 582 LINE",
"261 582 LINE",
"504 0 LINE",
"811 0 LINE",
"811 730 LINE",
"637 730 LINE",
"637 130 LINE",
"657 148 LINE",
"622 148 LINE",
"379 730 LINE",
"74 730 LINE",
"74 0 LINE"
);
}
);
width = 885;
},
{
anchors = (
{
name = bottom;
position = "{389, 0}";
},
{
name = top;
position = "{428, 730}";
}
);
layerId = "C54A1B2C-2BC8-455F-8AA9-31AEAFF53136";
paths = (
{
closed = 1;
nodes = (
"162 0 LINE",
"162 712 LINE",
"142 700 LINE",
"174 700 LINE",
"631 0 LINE",
"692 0 LINE",
"692 730 LINE",
"660 730 LINE",
"660 18 LINE",
"680 30 LINE",
"648 30 LINE",
"191 730 LINE",
"130 730 LINE",
"130 0 LINE"
);
}
);
width = 822;
}
);
leftKerningGroup = UC_Stem;
leftMetricsKey = H;
rightKerningGroup = UC_Stem;
rightMetricsKey = H;
unicode = 004E;
},
{
color = 7;
glyphname = Eng;
lastChange = "2019-05-29 22:43:47 +0000";
layers = (
{
background = {
paths = (
{
closed = 1;
nodes = (
"522 -221 LINE SMOOTH",
"665 -221 OFFCURVE",
"737 -149 OFFCURVE",
"737 -6 CURVE SMOOTH",
"737 720 LINE",
"643 720 LINE",
"643 70 LINE",
"663 88 LINE",
"631 88 LINE",
"265 720 LINE",
"105 720 LINE",
"105 0 LINE",
"197 0 LINE",
"197 650 LINE",
"177 632 LINE",
"209 632 LINE",
"570 9 LINE",
"679 9 LINE",
"643 34 LINE",
"643 -20 LINE SMOOTH",
"643 -94 OFFCURVE",
"610 -135 OFFCURVE",
"536 -135 CURVE SMOOTH",
"426 -135 LINE",
"426 -221 LINE"
);
}
);
};
layerId = "445E0A7C-B12F-48FD-B0B3-D474C1FC2A30";
paths = (
{
closed = 1;
nodes = (
"527 -224 LINE SMOOTH",
"670 -224 OFFCURVE",
"743 -151 OFFCURVE",
"743 -6 CURVE SMOOTH",
"743 730 LINE",
"649 730 LINE",
"649 70 LINE",
"669 88 LINE",
"637 88 LINE",
"266 730 LINE",
"106 730 LINE",
"106 0 LINE",
"198 0 LINE",
"198 660 LINE",
"178 642 LINE",
"210 642 LINE",
"576 9 LINE",
"686 9 LINE",
"649 34 LINE",
"649 -21 LINE SMOOTH",
"649 -96 OFFCURVE",
"615 -138 OFFCURVE",
"541 -138 CURVE SMOOTH",
"430 -138 LINE",
"430 -224 LINE"
);
}
);
width = 849;
},
{
background = {
paths = (
{
closed = 1;
nodes = (
"547 -242 LINE SMOOTH",
"721 -242 OFFCURVE",
"805 -169 OFFCURVE",
"805 5 CURVE SMOOTH",
"805 720 LINE",
"631 720 LINE",
"631 150 LINE",
"651 168 LINE",
"608 168 LINE",
"378 720 LINE",
"73 720 LINE",
"73 0 LINE",
"245 0 LINE",
"245 590 LINE",
"225 572 LINE",
"260 572 LINE",
"490 20 LINE",
"661 20 LINE",
"635 48 LINE",
"635 1 LINE SMOOTH",
"635 -60 OFFCURVE",
"609 -81 OFFCURVE",
"557 -81 CURVE SMOOTH",
"444 -81 LINE",
"444 -242 LINE"
);
}
);
};
layerId = "7C8656A8-8591-4735-94A0-92D633732231";
paths = (
{
closed = 1;
nodes = (
"552 -245 LINE SMOOTH",
"744 -245 OFFCURVE",
"811 -153 OFFCURVE",
"811 5 CURVE SMOOTH",
"811 730 LINE",
"637 730 LINE",
"637 150 LINE",
"657 168 LINE",
"614 168 LINE",
"379 730 LINE",
"74 730 LINE",
"74 0 LINE",
"246 0 LINE",
"246 600 LINE",
"226 582 LINE",
"261 582 LINE",
"496 20 LINE",
"668 20 LINE",
"641 48 LINE",
"641 0 LINE SMOOTH",
"641 -67 OFFCURVE",
"609 -84 OFFCURVE",
"562 -84 CURVE SMOOTH",
"448 -84 LINE",
"448 -245 LINE"
);
}
);
width = 885;
},
{
layerId = "C54A1B2C-2BC8-455F-8AA9-31AEAFF53136";
paths = (
{
closed = 1;
nodes = (
"525 -208 LINE SMOOTH",
"634 -208 OFFCURVE",
"692 -153 OFFCURVE",
"692 -18 CURVE SMOOTH",
"692 730 LINE",
"660 730 LINE",
"660 18 LINE",
"680 30 LINE",
"648 30 LINE",
"191 730 LINE",
"130 730 LINE",
"130 0 LINE",
"162 0 LINE",
"162 712 LINE",
"142 700 LINE",
"174 700 LINE",
"631 0 LINE",
"672 0 LINE",
"660 7 LINE",
"660 -26 LINE SMOOTH",
"660 -127 OFFCURVE",
"619 -178 OFFCURVE",
"525 -178 CURVE SMOOTH",
"413 -178 LINE",
"413 -208 LINE"
);
}
);
width = 822;
}
);
leftKerningGroup = UC_Stem;
leftMetricsKey = H;
rightMetricsKey = H;
unicode = 014A;
},
{
color = 7;
glyphname = O;
lastChange = "2020-05-27 23:44:29 +0000";
layers = (
{
anchors = (
{
name = bottom;
position = "{433, 0}";
},
{
name = center;
position = "{433, 365}";
},
{
name = ogonek;
position = "{563, 10}";
},
{
name = top;
position = "{433, 730}";
}
);
background = {
anchors = (
{
name = bottom;
position = "{428, 0}";
},
{
name = center;
position = "{428, 360}";
},
{
name = ogonek;
position = "{557, 10}";
},
{
name = top;
position = "{428, 720}";
}
);
paths = (
{
closed = 1;
nodes = (
"691 -20 OFFCURVE",
"801 194 OFFCURVE",
"801 350 CURVE SMOOTH",
"801 372 LINE SMOOTH",
"801 545 OFFCURVE",
"682 740 OFFCURVE",
"428 740 CURVE SMOOTH",
"173 740 OFFCURVE",
"55 545 OFFCURVE",
"55 372 CURVE SMOOTH",
"55 350 LINE SMOOTH",
"55 194 OFFCURVE",
"165 -20 OFFCURVE",
"428 -20 CURVE SMOOTH"
);
},
{
closed = 1;
nodes = (
"259 70 OFFCURVE",
"155 208 OFFCURVE",
"155 360 CURVE SMOOTH",
"155 519 OFFCURVE",
"259 650 OFFCURVE",
"428 650 CURVE SMOOTH",
"597 650 OFFCURVE",
"701 519 OFFCURVE",
"701 360 CURVE SMOOTH",
"701 208 OFFCURVE",
"597 70 OFFCURVE",
"428 70 CURVE SMOOTH"
);
}
);
};
layerId = "445E0A7C-B12F-48FD-B0B3-D474C1FC2A30";
paths = (
{
closed = 1;
nodes = (
"694 -18 OFFCURVE",
"810 196 OFFCURVE",
"810 356 CURVE SMOOTH",
"810 378 LINE SMOOTH",
"810 552 OFFCURVE",
"688 750 OFFCURVE",
"433 750 CURVE SMOOTH",
"178 750 OFFCURVE",
"56 552 OFFCURVE",
"56 378 CURVE SMOOTH",
"56 356 LINE SMOOTH",
"56 196 OFFCURVE",
"172 -18 OFFCURVE",
"433 -18 CURVE SMOOTH"
);
},
{
closed = 1;
nodes = (
"262 72 OFFCURVE",
"156 212 OFFCURVE",
"156 366 CURVE SMOOTH",
"156 528 OFFCURVE",
"262 660 OFFCURVE",
"433 660 CURVE SMOOTH",
"604 660 OFFCURVE",
"710 528 OFFCURVE",
"710 366 CURVE SMOOTH",
"710 212 OFFCURVE",
"604 72 OFFCURVE",
"433 72 CURVE SMOOTH"
);
}
);
width = 865;
},
{
anchors = (
{
name = bottom;
position = "{432, 0}";
},
{
name = center;
position = "{432, 352}";
},
{
name = ogonek;
position = "{562, 10}";
},
{
name = top;
position = "{432, 730}";
}
);
layerId = "7C8656A8-8591-4735-94A0-92D633732231";
paths = (
{
closed = 1;
nodes = (
"697 -20 OFFCURVE",
"826 190 OFFCURVE",
"826 356 CURVE SMOOTH",
"826 378 LINE SMOOTH",
"826 561 OFFCURVE",
"688 752 OFFCURVE",
"432 752 CURVE SMOOTH",
"174 752 OFFCURVE",
"38 561 OFFCURVE",
"38 378 CURVE SMOOTH",
"38 356 LINE SMOOTH",
"38 190 OFFCURVE",
"166 -20 OFFCURVE",
"432 -20 CURVE SMOOTH"
);
},
{
closed = 1;
nodes = (
"304 154 OFFCURVE",
"226 246 OFFCURVE",
"226 366 CURVE SMOOTH",
"226 493 OFFCURVE",
"305 578 OFFCURVE",
"432 578 CURVE SMOOTH",
"558 578 OFFCURVE",
"638 493 OFFCURVE",
"638 366 CURVE SMOOTH",
"638 246 OFFCURVE",
"559 154 OFFCURVE",
"432 154 CURVE SMOOTH"
);
}
);
width = 864;
},
{
anchors = (
{
name = bottom;
position = "{437, 0}";
},
{
name = center;
position = "{437, 365}";
},
{
name = ogonek;
position = "{567, 10}";
},
{
name = top;
position = "{437, 730}";
}
);
layerId = "C54A1B2C-2BC8-455F-8AA9-31AEAFF53136";
paths = (
{
closed = 1;
nodes = (
"674 -16 OFFCURVE",
"802 177 OFFCURVE",
"802 360 CURVE SMOOTH",
"802 373 LINE SMOOTH",
"802 561 OFFCURVE",
"666 748 OFFCURVE",
"437 748 CURVE SMOOTH",
"208 748 OFFCURVE",
"70 561 OFFCURVE",
"70 373 CURVE SMOOTH",
"70 361 LINE SMOOTH",
"70 177 OFFCURVE",
"200 -16 OFFCURVE",
"437 -16 CURVE SMOOTH"
);
},
{
closed = 1;
nodes = (
"221 14 OFFCURVE",
"102 189 OFFCURVE",
"102 366 CURVE SMOOTH",
"102 549 OFFCURVE",
"228 718 OFFCURVE",
"437 718 CURVE SMOOTH",
"646 718 OFFCURVE",
"770 549 OFFCURVE",
"770 366 CURVE SMOOTH",
"770 189 OFFCURVE",
"652 14 OFFCURVE",
"437 14 CURVE SMOOTH"
);
}
);
width = 872;
}
);
leftKerningGroup = UC_Round;
rightKerningGroup = UC_Round;
unicode = 004F;
},
{
color = 6;
glyphname = Oslash;
lastChange = "2019-06-04 18:37:36 +0000";
layers = (
{
background = {
components = (
{
name = O;
}
);
paths = (
{
closed = 1;
nodes = (
"191 -52 LINE",
"763 772 LINE",
"667 772 LINE",
"95 -52 LINE"
);
}
);
};
components = (
{
name = O;
}
);
layerId = "445E0A7C-B12F-48FD-B0B3-D474C1FC2A30";
paths = (
{
closed = 1;
nodes = (
"194 -52 LINE",
"767 772 LINE",
"671 772 LINE",
"98 -52 LINE"
);
}
);
width = 866;
},
{
background = {
components = (
{
name = O;
}
);
paths = (
{
closed = 1;
nodes = (
"211 -70 LINE",
"781 790 LINE",
"645 790 LINE",
"75 -70 LINE"
);
}
);
};
components = (
{
name = O;
}
);
layerId = "7C8656A8-8591-4735-94A0-92D633732231";
paths = (
{
closed = 1;
nodes = (
"214 -70 LINE",
"785 790 LINE",
"649 790 LINE",
"78 -70 LINE"
);
}
);
width = 864;
},
{
components = (
{
alignment = -1;
name = O;
}
);
layerId = "C54A1B2C-2BC8-455F-8AA9-31AEAFF53136";
paths = (
{
closed = 1;
nodes = (
"173 -32 LINE",
"735 764 LINE",
"699 764 LINE",
"137 -32 LINE"
);
}
);
width = 872;
}
);
leftKerningGroup = UC_Round;
leftMetricsKey = O;
rightKerningGroup = UC_Round;
rightMetricsKey = O;
unicode = 00D8;
},
{
color = 7;
glyphname = OE;
lastChange = "2019-05-29 23:06:19 +0000";
layers = (
{
background = {
paths = (
{
closed = 1;
nodes = (
"488 -20 OFFCURVE",
"533 -12 OFFCURVE",
"565 0 CURVE",
"655 0 LINE",
"655 720 LINE",
"565 720 LINE",
"533 732 OFFCURVE",
"488 740 OFFCURVE",
"435 740 CURVE SMOOTH",
"174 740 OFFCURVE",
"55 547 OFFCURVE",
"55 372 CURVE SMOOTH",
"55 350 LINE SMOOTH",
"55 192 OFFCURVE",
"166 -20 OFFCURVE",
"435 -20 CURVE SMOOTH"
);
},
{
closed = 1;
nodes = (
"585 100 LINE",
"545 78 OFFCURVE",
"485 68 OFFCURVE",
"435 68 CURVE SMOOTH",
"261 68 OFFCURVE",
"157 207 OFFCURVE",
"157 360 CURVE SMOOTH",
"157 520 OFFCURVE",
"261 652 OFFCURVE",
"435 652 CURVE SMOOTH",
"485 652 OFFCURVE",
"545 642 OFFCURVE",
"585 620 CURVE",
"557 656 LINE",
"557 62 LINE"
);
},
{
closed = 1;
nodes = (
"985 0 LINE",
"985 88 LINE",
"635 88 LINE",
"635 0 LINE"
);
},
{
closed = 1;
nodes = (
"955 322 LINE",
"955 410 LINE",
"635 410 LINE",
"635 322 LINE"
);
},
{
closed = 1;
nodes = (
"975 632 LINE",
"975 720 LINE",
"635 720 LINE",
"635 632 LINE"
);
}
);
};
layerId = "445E0A7C-B12F-48FD-B0B3-D474C1FC2A30";
paths = (
{
closed = 1;
nodes = (
"494 -20 OFFCURVE",
"543 -12 OFFCURVE",
"575 0 CURVE",
"661 0 LINE",
"661 730 LINE",
"575 730 LINE",
"543 742 OFFCURVE",
"494 750 OFFCURVE",
"440 750 CURVE SMOOTH",
"176 750 OFFCURVE",
"56 554 OFFCURVE",
"56 377 CURVE SMOOTH",
"56 355 LINE SMOOTH",
"56 195 OFFCURVE",
"168 -20 OFFCURVE",
"440 -20 CURVE SMOOTH"
);
},
{
closed = 1;
nodes = (
"264 68 OFFCURVE",
"158 209 OFFCURVE",
"158 365 CURVE SMOOTH",
"158 528 OFFCURVE",
"264 662 OFFCURVE",
"440 662 CURVE SMOOTH",
"492 662 OFFCURVE",
"555 652 OFFCURVE",
"596 630 CURVE",
"563 667 LINE",
"563 61 LINE",
"596 100 LINE",
"555 78 OFFCURVE",
"491 68 OFFCURVE",
"440 68 CURVE SMOOTH"
);
},
{
closed = 1;
nodes = (
"995 0 LINE",
"995 88 LINE",
"641 88 LINE",
"641 0 LINE"
);
},
{
closed = 1;
nodes = (
"965 327 LINE",
"965 415 LINE",
"641 415 LINE",
"641 327 LINE"
);
},
{
closed = 1;
nodes = (
"985 642 LINE",
"985 730 LINE",
"641 730 LINE",
"641 642 LINE"
);
}
);
width = 1057;
},
{
background = {
paths = (
{
closed = 1;
nodes = (
"484 -22 OFFCURVE",
"526 -14 OFFCURVE",
"561 0 CURVE",
"697 0 LINE",
"697 720 LINE",
"561 720 LINE",
"524 733 OFFCURVE",
"476 742 OFFCURVE",
"427 742 CURVE SMOOTH",
"168 742 OFFCURVE",
"37 553 OFFCURVE",
"37 372 CURVE SMOOTH",
"37 350 LINE SMOOTH",
"37 186 OFFCURVE",
"160 -22 OFFCURVE",
"427 -22 CURVE SMOOTH"
);
},
{
closed = 1;
nodes = (
"527 175 LINE",
"503 162 OFFCURVE",
"464 152 OFFCURVE",
"427 152 CURVE SMOOTH",
"302 152 OFFCURVE",
"225 242 OFFCURVE",
"225 360 CURVE SMOOTH",
"225 484 OFFCURVE",
"302 568 OFFCURVE",
"427 568 CURVE SMOOTH",
"465 568 OFFCURVE",
"501 559 OFFCURVE",
"527 546 CURVE",
"517 564 LINE",
"517 153 LINE"
);
},
{
closed = 1;
nodes = (
"981 0 LINE",
"981 152 LINE",
"677 152 LINE",
"677 0 LINE"
);
},
{
closed = 1;
nodes = (
"961 290 LINE",
"961 442 LINE",
"677 442 LINE",
"677 290 LINE"
);
},
{
closed = 1;
nodes = (
"975 568 LINE",
"975 720 LINE",
"677 720 LINE",
"677 568 LINE"
);
}
);
};
layerId = "7C8656A8-8591-4735-94A0-92D633732231";
paths = (
{
closed = 1;
nodes = (
"489 -22 OFFCURVE",
"532 -14 OFFCURVE",
"567 0 CURVE",
"703 0 LINE",
"703 730 LINE",
"567 730 LINE",
"530 743 OFFCURVE",
"482 752 OFFCURVE",
"432 752 CURVE SMOOTH",
"170 752 OFFCURVE",
"38 560 OFFCURVE",
"38 377 CURVE SMOOTH",
"38 355 LINE SMOOTH",
"38 189 OFFCURVE",
"162 -22 OFFCURVE",
"432 -22 CURVE SMOOTH"
);
},
{
closed = 1;
nodes = (
"305 152 OFFCURVE",
"226 244 OFFCURVE",
"226 365 CURVE SMOOTH",
"226 492 OFFCURVE",
"305 578 OFFCURVE",
"432 578 CURVE SMOOTH",
"472 578 OFFCURVE",
"507 569 OFFCURVE",
"534 556 CURVE",
"523 575 LINE",
"523 152 LINE",
"534 175 LINE",
"509 162 OFFCURVE",
"470 152 OFFCURVE",
"432 152 CURVE SMOOTH"
);
},
{
closed = 1;
nodes = (
"991 0 LINE",
"991 152 LINE",
"683 152 LINE",
"683 0 LINE"
);
},
{
closed = 1;
nodes = (
"971 295 LINE",
"971 447 LINE",
"683 447 LINE",
"683 295 LINE"
);
},
{
closed = 1;
nodes = (
"985 578 LINE",
"985 730 LINE",
"683 730 LINE",
"683 578 LINE"
);
}
);
width = 1041;
},
{
background = {
paths = (
{
closed = 1;
nodes = (
"498 -19 OFFCURVE",
"551 -11 OFFCURVE",
"581 0 CURVE",
"630 0 LINE",
"630 730 LINE",
"581 730 LINE",
"553 741 OFFCURVE",
"503 749 OFFCURVE",
"446 749 CURVE SMOOTH",
"180 749 OFFCURVE",
"69 550 OFFCURVE",
"69 377 CURVE SMOOTH",
"69 355 LINE SMOOTH",
"69 199 OFFCURVE",
"172 -19 OFFCURVE",
"446 -19 CURVE SMOOTH"
);
},
{
closed = 1;
nodes = (
"233 5 OFFCURVE",
"107 183 OFFCURVE",
"107 365 CURVE SMOOTH",
"107 555 OFFCURVE",
"233 725 OFFCURVE",
"446 725 CURVE SMOOTH",
"507 725 OFFCURVE",
"591 714 OFFCURVE",
"642 685 CURVE",
"593 735 LINE",
"593 -7 LINE",
"642 44 LINE",
"589 15 OFFCURVE",
"507 5 OFFCURVE",
"446 5 CURVE SMOOTH"
);
},
{
closed = 1;
nodes = (
"998 0 LINE",
"998 40 LINE",
"610 40 LINE",
"610 0 LINE"
);
},
{
closed = 1;
nodes = (
"961 351 LINE",
"961 391 LINE",
"610 391 LINE",
"610 351 LINE"
);
},
{
closed = 1;
nodes = (
"985 690 LINE",
"985 730 LINE",
"610 730 LINE",
"610 690 LINE"
);
}
);
};
layerId = "C54A1B2C-2BC8-455F-8AA9-31AEAFF53136";
paths = (
{
closed = 1;
nodes = (
"501 -16 OFFCURVE",
"554 -10 OFFCURVE",
"596 0 CURVE",
"622 0 LINE",
"622 730 LINE",
"602 730 LINE",
"563 740 OFFCURVE",
"502 748 OFFCURVE",
"451 748 CURVE SMOOTH",
"208 748 OFFCURVE",
"70 575 OFFCURVE",
"70 373 CURVE SMOOTH",
"70 361 LINE SMOOTH",
"70 163 OFFCURVE",
"196 -16 OFFCURVE",
"451 -16 CURVE SMOOTH"
);
},
{
closed = 1;
nodes = (
"217 14 OFFCURVE",
"102 175 OFFCURVE",
"102 366 CURVE SMOOTH",
"102 563 OFFCURVE",
"228 718 OFFCURVE",
"451 718 CURVE SMOOTH",
"503 718 OFFCURVE",
"559 710 OFFCURVE",
"600 701 CURVE",
"590 709 LINE",
"590 16 LINE",
"596 31 LINE",
"555 21 OFFCURVE",
"501 14 OFFCURVE",
"451 14 CURVE SMOOTH"
);
},
{
closed = 1;
nodes = (
"994 0 LINE",
"994 30 LINE",
"610 30 LINE",
"610 0 LINE"
);
},
{
closed = 1;
nodes = (
"955 356 LINE",
"955 386 LINE",
"607 386 LINE",
"607 356 LINE"
);
},
{
closed = 1;
nodes = (
"981 700 LINE",
"981 730 LINE",
"612 730 LINE",
"612 700 LINE"
);
}
);
width = 1068;
}
);
leftKerningGroup = UC_Round;
leftMetricsKey = O;
rightKerningGroup = UC_E;
rightMetricsKey = E;
unicode = 0152;
},
{
color = 7;
glyphname = P;
lastChange = "2019-06-10 16:48:19 +0000";
layers = (
{
background = {
paths = (
{
closed = 1;
nodes = (
"327 250 LINE SMOOTH",
"505 250 OFFCURVE",
"598 339 OFFCURVE",
"598 479 CURVE SMOOTH",
"598 495 LINE SMOOTH",
"598 635 OFFCURVE",
"505 724 OFFCURVE",
"327 724 CURVE SMOOTH",
"183 724 LINE",
"183 638 LINE",
"345 638 LINE SMOOTH",
"447 638 OFFCURVE",
"498 573 OFFCURVE",
"498 487 CURVE SMOOTH",
"498 401 OFFCURVE",
"447 336 OFFCURVE",
"345 336 CURVE SMOOTH",
"183 336 LINE",
"183 250 LINE"
);
},
{
closed = 1;
nodes = (
"203 0 LINE",
"203 724 LINE",
"105 724 LINE",
"105 0 LINE"
);
}
);
};
layerId = "445E0A7C-B12F-48FD-B0B3-D474C1FC2A30";
paths = (
{
closed = 1;
nodes = (
"329 254 LINE SMOOTH",
"508 254 OFFCURVE",
"602 345 OFFCURVE",
"602 486 CURVE SMOOTH",
"602 502 LINE SMOOTH",
"602 644 OFFCURVE",
"508 734 OFFCURVE",
"329 734 CURVE SMOOTH",
"184 734 LINE",
"184 648 LINE",
"347 648 LINE SMOOTH",
"450 648 OFFCURVE",
"502 582 OFFCURVE",
"502 494 CURVE SMOOTH",
"502 407 OFFCURVE",
"450 340 OFFCURVE",
"347 340 CURVE SMOOTH",
"184 340 LINE",
"184 254 LINE"
);
},
{
closed = 1;
nodes = (
"204 0 LINE",
"204 734 LINE",
"106 734 LINE",
"106 0 LINE"
);
}
);
width = 640;
},
{
background = {
paths = (
{
closed = 1;
nodes = (
"353 190 LINE SMOOTH",
"540 190 OFFCURVE",
"656 288 OFFCURVE",
"656 450 CURVE SMOOTH",
"656 466 LINE SMOOTH",
"656 628 OFFCURVE",
"540 726 OFFCURVE",
"353 726 CURVE SMOOTH",
"239 726 LINE",
"239 566 LINE",
"358 566 LINE SMOOTH",
"425 566 OFFCURVE",
"468 526 OFFCURVE",
"468 458 CURVE SMOOTH",
"468 390 OFFCURVE",
"425 350 OFFCURVE",
"358 350 CURVE SMOOTH",
"239 350 LINE",
"239 190 LINE"
);
},
{
closed = 1;
nodes = (
"259 0 LINE",
"259 726 LINE",
"73 726 LINE",
"73 0 LINE"
);
}
);
};
layerId = "7C8656A8-8591-4735-94A0-92D633732231";
paths = (
{
closed = 1;
nodes = (
"355 194 LINE SMOOTH",
"543 194 OFFCURVE",
"660 294 OFFCURVE",
"660 457 CURVE SMOOTH",
"660 473 LINE SMOOTH",
"660 637 OFFCURVE",
"543 736 OFFCURVE",
"355 736 CURVE SMOOTH",
"240 736 LINE",
"240 576 LINE",
"360 576 LINE SMOOTH",
"428 576 OFFCURVE",
"472 535 OFFCURVE",
"472 465 CURVE SMOOTH",
"472 396 OFFCURVE",
"428 354 OFFCURVE",
"360 354 CURVE SMOOTH",
"240 354 LINE",
"240 194 LINE"
);
},
{
closed = 1;
nodes = (
"260 0 LINE",
"260 736 LINE",
"74 736 LINE",
"74 0 LINE"
);
}
);
width = 676;
},
{
layerId = "C54A1B2C-2BC8-455F-8AA9-31AEAFF53136";
paths = (
{
closed = 1;
nodes = (
"324 292 LINE SMOOTH",
"490 292 OFFCURVE",
"556 394 OFFCURVE",
"556 507 CURVE SMOOTH",
"556 517 LINE SMOOTH",
"556 630 OFFCURVE",
"490 732 OFFCURVE",
"324 732 CURVE SMOOTH",
"143 732 LINE",
"143 702 LINE",
"326 702 LINE SMOOTH",
"471 702 OFFCURVE",
"524 616 OFFCURVE",
"524 512 CURVE SMOOTH",
"524 408 OFFCURVE",
"471 322 OFFCURVE",
"326 322 CURVE SMOOTH",
"143 322 LINE",
"143 292 LINE"
);
},
{
closed = 1;
nodes = (
"162 0 LINE",
"162 732 LINE",
"130 732 LINE",
"130 0 LINE"
);
}
);
width = 610;
}
);
leftKerningGroup = UC_Stem;
leftMetricsKey = H;
rightKerningGroup = UC_P;
unicode = 0050;
},
{
color = 7;
glyphname = Thorn;
lastChange = "2019-06-04 22:22:10 +0000";
layers = (
{
layerId = "445E0A7C-B12F-48FD-B0B3-D474C1FC2A30";
paths = (
{
closed = 1;
nodes = (
"324 140 LINE SMOOTH",
"494 140 OFFCURVE",
"584 233 OFFCURVE",
"584 364 CURVE SMOOTH",
"584 378 LINE SMOOTH",
"584 509 OFFCURVE",
"494 602 OFFCURVE",
"324 602 CURVE SMOOTH",
"184 602 LINE",
"184 516 LINE",
"338 516 LINE SMOOTH",
"440 516 OFFCURVE",
"484 457 OFFCURVE",
"484 371 CURVE SMOOTH",
"484 285 OFFCURVE",
"440 227 OFFCURVE",
"338 227 CURVE SMOOTH",
"184 227 LINE",
"184 140 LINE"
);
},
{
closed = 1;
nodes = (
"204 0 LINE",
"204 730 LINE",
"106 730 LINE",
"106 0 LINE"
);
}
);
width = 622;
},
{
background = {
paths = (
{
closed = 1;
nodes = (
"344 102 LINE SMOOTH",
"528 102 OFFCURVE",
"641 198 OFFCURVE",
"641 358 CURVE SMOOTH",
"641 374 LINE SMOOTH",
"641 534 OFFCURVE",
"528 630 OFFCURVE",
"344 630 CURVE SMOOTH",
"239 630 LINE",
"239 470 LINE",
"349 470 LINE SMOOTH",
"413 470 OFFCURVE",
"453 432 OFFCURVE",
"453 366 CURVE SMOOTH",
"453 300 OFFCURVE",
"413 262 OFFCURVE",
"349 262 CURVE SMOOTH",
"239 262 LINE",
"239 102 LINE"
);
},
{
closed = 1;
nodes = (
"259 0 LINE",
"259 720 LINE",
"73 720 LINE",
"73 0 LINE"
);
}
);
};
layerId = "7C8656A8-8591-4735-94A0-92D633732231";
paths = (
{
closed = 1;
nodes = (
"347 104 LINE SMOOTH",
"532 104 OFFCURVE",
"646 202 OFFCURVE",
"646 363 CURVE SMOOTH",
"646 379 LINE SMOOTH",
"646 540 OFFCURVE",
"532 638 OFFCURVE",
"347 638 CURVE SMOOTH",
"240 638 LINE",
"240 478 LINE",
"352 478 LINE SMOOTH",
"417 478 OFFCURVE",
"458 438 OFFCURVE",
"458 371 CURVE SMOOTH",
"458 304 OFFCURVE",
"417 265 OFFCURVE",
"352 265 CURVE SMOOTH",
"240 265 LINE",
"240 104 LINE"
);
},
{
closed = 1;
nodes = (
"260 0 LINE",
"260 730 LINE",
"74 730 LINE",
"74 0 LINE"
);
}
);
width = 662;
},
{
layerId = "C54A1B2C-2BC8-455F-8AA9-31AEAFF53136";
paths = (
{
closed = 1;
nodes = (
"308 156 LINE SMOOTH",
"471 156 OFFCURVE",
"538 256 OFFCURVE",
"538 367 CURVE SMOOTH",
"538 377 LINE SMOOTH",
"538 488 OFFCURVE",
"471 588 OFFCURVE",
"308 588 CURVE SMOOTH",
"143 588 LINE",
"143 558 LINE",
"310 558 LINE SMOOTH",
"451 558 OFFCURVE",
"506 475 OFFCURVE",
"506 372 CURVE SMOOTH",
"506 269 OFFCURVE",
"451 186 OFFCURVE",
"310 186 CURVE SMOOTH",
"143 186 LINE",
"143 156 LINE"
);
},
{
closed = 1;
nodes = (
"162 0 LINE",
"162 732 LINE",
"130 732 LINE",
"130 0 LINE"
);
}
);
width = 592;
}
);
leftKerningGroup = UC_Stem;
leftMetricsKey = H;
rightMetricsKey = P;
unicode = 00DE;
},
{
color = 7;
glyphname = Q;
lastChange = "2020-05-27 23:12:08 +0000";
layers = (
{
background = {
components = (
{
name = O;
}
);
paths = (
{
closed = 1;
nodes = (
"669 -204 LINE",
"669 -118 LINE",
"546 -118 LINE SMOOTH",
"503 -118 OFFCURVE",
"476 -91 OFFCURVE",
"476 -48 CURVE SMOOTH",
"476 50 LINE",
"386 50 LINE",
"386 -33 LINE SMOOTH",
"386 -154 OFFCURVE",
"442 -204 OFFCURVE",
"563 -204 CURVE SMOOTH"
);
}
);
};
components = (
{
name = O;
}
);
guideLines = (
{
angle = 90;
position = "{431, 360}";
}
);
layerId = "445E0A7C-B12F-48FD-B0B3-D474C1FC2A30";
paths = (
{
closed = 1;
nodes = (
"675 -211 LINE",
"675 -124 LINE",
"551 -124 LINE SMOOTH",
"508 -124 OFFCURVE",
"480 -97 OFFCURVE",
"480 -53 CURVE SMOOTH",
"480 50 LINE",
"390 50 LINE",
"390 -38 LINE SMOOTH",
"390 -171 OFFCURVE",
"459 -211 OFFCURVE",
"568 -211 CURVE SMOOTH"
);
}
);
width = 866;
},
{
background = {
components = (
{
name = O;
}
);
paths = (
{
closed = 1;
nodes = (
"671 -221 LINE",
"671 -81 LINE",
"568 -81 LINE SMOOTH",
"531 -81 OFFCURVE",
"510 -60 OFFCURVE",
"510 -23 CURVE SMOOTH",
"510 100 LINE",
"336 100 LINE",
"336 -19 LINE SMOOTH",
"336 -170 OFFCURVE",
"413 -221 OFFCURVE",
"572 -221 CURVE SMOOTH"
);
}
);
};
components = (
{
name = O;
}
);
guideLines = (
{
angle = 90;
position = "{431, 360}";
}
);
layerId = "7C8656A8-8591-4735-94A0-92D633732231";
paths = (
{
closed = 1;
nodes = (
"677 -220 LINE",
"677 -80 LINE",
"573 -80 LINE SMOOTH",
"536 -80 OFFCURVE",
"514 -62 OFFCURVE",
"514 -24 CURVE SMOOTH",
"514 100 LINE",
"340 100 LINE",
"340 -20 LINE SMOOTH",
"340 -184 OFFCURVE",
"433 -220 OFFCURVE",
"577 -220 CURVE SMOOTH"
);
}
);
width = 864;
},
{
components = (
{
alignment = -1;
name = O;
}
);
layerId = "C54A1B2C-2BC8-455F-8AA9-31AEAFF53136";
paths = (
{
closed = 1;
nodes = (
"691 -204 LINE",
"691 -174 LINE",
"565 -174 LINE SMOOTH",
"493 -174 OFFCURVE",
"457 -138 OFFCURVE",
"457 -66 CURVE SMOOTH",
"457 2 LINE",
"425 2 LINE",
"425 -62 LINE SMOOTH",
"425 -156 OFFCURVE",
"475 -204 OFFCURVE",
"569 -204 CURVE SMOOTH"
);
}
);
width = 872;
}
);
leftKerningGroup = UC_Round;
leftMetricsKey = O;
rightKerningGroup = UC_Round;
rightMetricsKey = O;
unicode = 0051;
},
{
color = 7;
glyphname = R;
lastChange = "2019-06-10 16:49:10 +0000";
layers = (
{
anchors = (
{
name = bottom;
position = "{374, 0}";
},
{
name = top;
position = "{338, 730}";
}
);
background = {
anchors = (
{
name = bottom;
position = "{371, 0}";
},
{
name = top;
position = "{335, 720}";
}
);
paths = (
{
closed = 1;
nodes = (
"329 254 LINE SMOOTH",
"508 254 OFFCURVE",
"602 345 OFFCURVE",
"602 486 CURVE SMOOTH",
"602 502 LINE SMOOTH",
"602 644 OFFCURVE",
"508 734 OFFCURVE",
"329 734 CURVE SMOOTH",
"184 734 LINE",
"184 648 LINE",
"347 648 LINE SMOOTH",
"450 648 OFFCURVE",
"502 582 OFFCURVE",
"502 494 CURVE SMOOTH",
"502 407 OFFCURVE",
"450 340 OFFCURVE",
"347 340 CURVE SMOOTH",
"184 340 LINE",
"184 254 LINE"
);
},
{
closed = 1;
nodes = (
"204 0 LINE",
"204 734 LINE",
"106 734 LINE",
"106 0 LINE"
);
}
);
};
layerId = "445E0A7C-B12F-48FD-B0B3-D474C1FC2A30";
paths = (
{
closed = 1;
nodes = (
"204 0 LINE",
"204 734 LINE",
"106 734 LINE",
"106 0 LINE"
);
},
{
closed = 1;
nodes = (
"676 0 LINE",
"430 325 LINE",
"315 325 LINE",
"557 0 LINE"
);
},
{
closed = 1;
nodes = (
"345 264 LINE SMOOTH",
"504 264 OFFCURVE",
"611 333 OFFCURVE",
"611 491 CURVE SMOOTH",
"611 507 LINE SMOOTH",
"611 665 OFFCURVE",
"505 734 OFFCURVE",
"345 734 CURVE SMOOTH",
"167 734 LINE",
"167 648 LINE",
"363 648 LINE SMOOTH",
"454 648 OFFCURVE",
"511 585 OFFCURVE",
"511 499 CURVE SMOOTH",
"511 413 OFFCURVE",
"454 351 OFFCURVE",
"363 351 CURVE SMOOTH",
"167 351 LINE",
"167 264 LINE"
);
}
);
width = 700;
},
{
anchors = (
{
name = bottom;
position = "{379, 0}";
},
{
name = top;
position = "{350, 730}";
}
);
background = {
paths = (
{
closed = 1;
nodes = (
"377 224 LINE SMOOTH",
"566 224 OFFCURVE",
"684 306 OFFCURVE",
"684 470 CURVE SMOOTH",
"684 486 LINE SMOOTH",
"684 650 OFFCURVE",
"567 736 OFFCURVE",
"377 736 CURVE SMOOTH",
"224 736 LINE",
"224 580 LINE",
"388 580 LINE SMOOTH",
"453 580 OFFCURVE",
"496 538 OFFCURVE",
"496 473 CURVE SMOOTH",
"496 408 OFFCURVE",
"453 367 OFFCURVE",
"388 367 CURVE SMOOTH",
"224 367 LINE",
"224 224 LINE"
);
},
{
closed = 1;
nodes = (
"260 0 LINE",
"260 736 LINE",
"74 736 LINE",
"74 0 LINE"
);
},
{
closed = 1;
nodes = (
"728 0 LINE",
"525 290 LINE",
"323 290 LINE",
"514 0 LINE"
);
}
);
};
layerId = "7C8656A8-8591-4735-94A0-92D633732231";
paths = (
{
closed = 1;
nodes = (
"260 0 LINE",
"260 736 LINE",
"74 736 LINE",
"74 0 LINE"
);
},
{
closed = 1;
nodes = (
"728 0 LINE",
"511 310 LINE",
"309 310 LINE",
"514 0 LINE"
);
},
{
closed = 1;
nodes = (
"377 224 LINE SMOOTH",
"566 224 OFFCURVE",
"684 306 OFFCURVE",
"684 470 CURVE SMOOTH",
"684 486 LINE SMOOTH",
"684 650 OFFCURVE",
"567 736 OFFCURVE",
"377 736 CURVE SMOOTH",
"213 736 LINE",
"213 580 LINE",
"388 580 LINE SMOOTH",
"453 580 OFFCURVE",
"496 538 OFFCURVE",
"496 473 CURVE SMOOTH",
"496 408 OFFCURVE",
"453 367 OFFCURVE",
"388 367 CURVE SMOOTH",
"213 367 LINE",
"213 224 LINE"
);
}
);
width = 740;
},
{
anchors = (
{
name = bottom;
position = "{361, 0}";
},
{
name = top;
position = "{318, 730}";
}
);
background = {
paths = (
{
closed = 1;
nodes = (
"324 292 LINE SMOOTH",
"492 292 OFFCURVE",
"556 398 OFFCURVE",
"556 506 CURVE SMOOTH",
"556 518 LINE SMOOTH",
"556 626 OFFCURVE",
"492 732 OFFCURVE",
"324 732 CURVE SMOOTH",
"143 732 LINE",
"143 701 LINE",
"328 701 LINE SMOOTH",
"475 701 OFFCURVE",
"522 614 OFFCURVE",
"522 512 CURVE SMOOTH",
"522 410 OFFCURVE",
"475 323 OFFCURVE",
"328 323 CURVE SMOOTH",
"143 323 LINE",
"143 292 LINE"
);
},
{
closed = 1;
nodes = (
"163 0 LINE",
"163 732 LINE",
"130 732 LINE",
"130 0 LINE"
);
}
);
};
layerId = "C54A1B2C-2BC8-455F-8AA9-31AEAFF53136";
paths = (
{
closed = 1;
nodes = (
"162 0 LINE",
"162 732 LINE",
"130 732 LINE",
"130 0 LINE"
);
},
{
closed = 1;
nodes = (
"628 0 LINE",
"362 318 LINE",
"323 318 LINE",
"588 0 LINE"
);
},
{
closed = 1;
nodes = (
"337 302 LINE SMOOTH",
"498 302 OFFCURVE",
"562 400 OFFCURVE",
"562 512 CURVE SMOOTH",
"562 522 LINE SMOOTH",
"562 634 OFFCURVE",
"498 732 OFFCURVE",
"337 732 CURVE SMOOTH",
"143 732 LINE",
"143 702 LINE",
"339 702 LINE SMOOTH",
"480 702 OFFCURVE",
"530 619 OFFCURVE",
"530 517 CURVE SMOOTH",
"530 415 OFFCURVE",
"480 332 OFFCURVE",
"339 332 CURVE SMOOTH",
"143 332 LINE",
"143 302 LINE"
);
}
);
width = 662;
}
);
leftKerningGroup = UC_Stem;
leftMetricsKey = H;
rightKerningGroup = UC_R;
unicode = 0052;
},
{
color = 7;
glyphname = S;
lastChange = "2020-05-27 23:25:16 +0000";
layers = (
{
anchors = (
{
name = bottom;
position = "{342, 0}";
},
{
name = top;
position = "{344, 730}";
}
);
background = {
anchors = (
{
name = bottom;
position = "{338, 0}";
},
{
name = top;
position = "{340, 720}";
}
);
paths = (
{
closed = 1;
nodes = (
"511 -16 OFFCURVE",
"625 76 OFFCURVE",
"625 209 CURVE SMOOTH",
"625 327 OFFCURVE",
"531 394 OFFCURVE",
"384 407 CURVE SMOOTH",
"304 414 LINE SMOOTH",
"223 421 OFFCURVE",
"183 465 OFFCURVE",
"183 517 CURVE SMOOTH",
"183 585 OFFCURVE",
"233 646 OFFCURVE",
"340 646 CURVE SMOOTH",
"446 646 OFFCURVE",
"498 578 OFFCURVE",
"498 516 CURVE",
"595 516 LINE",
"595 657 OFFCURVE",
"493 736 OFFCURVE",
"340 736 CURVE SMOOTH",
"187 736 OFFCURVE",
"85 650 OFFCURVE",
"85 517 CURVE SMOOTH",
"85 400 OFFCURVE",
"168 335 OFFCURVE",
"296 324 CURVE SMOOTH",
"376 317 LINE SMOOTH",
"474 308 OFFCURVE",
"527 266 OFFCURVE",
"527 209 CURVE SMOOTH",
"527 137 OFFCURVE",
"468 74 OFFCURVE",
"340 74 CURVE SMOOTH",
"198 74 OFFCURVE",
"152 154 OFFCURVE",
"152 212 CURVE",
"55 212 LINE",
"55 71 OFFCURVE",
"156 -16 OFFCURVE",
"340 -16 CURVE SMOOTH"
);
}
);
};
layerId = "445E0A7C-B12F-48FD-B0B3-D474C1FC2A30";
paths = (
{
closed = 1;
nodes = (
"515 -18 OFFCURVE",
"631 76 OFFCURVE",
"631 211 CURVE SMOOTH",
"631 328 OFFCURVE",
"537 399 OFFCURVE",
"388 412 CURVE SMOOTH",
"307 419 LINE SMOOTH",
"225 426 OFFCURVE",
"184 472 OFFCURVE",
"184 526 CURVE SMOOTH",
"184 595 OFFCURVE",
"235 660 OFFCURVE",
"344 660 CURVE SMOOTH",
"455 660 OFFCURVE",
"503 592 OFFCURVE",
"503 523 CURVE",
"601 523 LINE",
"601 662 OFFCURVE",
"496 750 OFFCURVE",
"344 750 CURVE SMOOTH",
"190 750 OFFCURVE",
"86 659 OFFCURVE",
"86 526 CURVE SMOOTH",
"86 413 OFFCURVE",
"170 340 OFFCURVE",
"299 329 CURVE SMOOTH",
"380 322 LINE SMOOTH",
"480 313 OFFCURVE",
"533 271 OFFCURVE",
"533 211 CURVE SMOOTH",
"533 137 OFFCURVE",
"475 72 OFFCURVE",
"343 72 CURVE SMOOTH",
"201 72 OFFCURVE",
"154 148 OFFCURVE",
"154 215 CURVE",
"56 215 LINE",
"56 80 OFFCURVE",
"161 -18 OFFCURVE",
"343 -18 CURVE SMOOTH"
);
}
);
width = 689;
},
{
anchors = (
{
name = bottom;
position = "{332, 0}";
},
{
name = top;
position = "{317, 730}";
}
);
background = {
anchors = (
{
name = bottom;
position = "{328, 0}";
},
{
name = top;
position = "{313, 720}";
}
);
paths = (
{
closed = 1;
nodes = (
"519 -21 OFFCURVE",
"631 71 OFFCURVE",
"631 212 CURVE SMOOTH",
"631 350 OFFCURVE",
"517 429 OFFCURVE",
"353 443 CURVE SMOOTH",
"307 447 LINE SMOOTH",
"245 452 OFFCURVE",
"224 479 OFFCURVE",
"224 516 CURVE SMOOTH",
"224 557 OFFCURVE",
"254 587 OFFCURVE",
"313 587 CURVE SMOOTH",
"376 587 OFFCURVE",
"412 551 OFFCURVE",
"412 504 CURVE",
"592 504 LINE",
"592 646 OFFCURVE",
"491 741 OFFCURVE",
"313 741 CURVE SMOOTH",
"148 741 OFFCURVE",
"44 657 OFFCURVE",
"44 516 CURVE SMOOTH",
"44 379 OFFCURVE",
"143 299 OFFCURVE",
"289 286 CURVE SMOOTH",
"335 282 LINE SMOOTH",
"420 275 OFFCURVE",
"451 252 OFFCURVE",
"451 212 CURVE SMOOTH",
"451 164 OFFCURVE",
"407 133 OFFCURVE",
"330 133 CURVE SMOOTH",
"242 133 OFFCURVE",
"201 172 OFFCURVE",
"201 224 CURVE",
"21 224 LINE",
"21 82 OFFCURVE",
"127 -21 OFFCURVE",
"330 -21 CURVE SMOOTH"
);
}
);
};
guideLines = (
{
angle = -6.009;
position = "{275, 450}";
}
);
layerId = "7C8656A8-8591-4735-94A0-92D633732231";
paths = (
{
closed = 1;
nodes = (
"523 -20 OFFCURVE",
"637 72 OFFCURVE",
"637 215 CURVE SMOOTH",
"637 356 OFFCURVE",
"520 434 OFFCURVE",
"357 448 CURVE SMOOTH",
"310 452 LINE SMOOTH",
"247 457 OFFCURVE",
"225 487 OFFCURVE",
"225 524 CURVE SMOOTH",
"225 566 OFFCURVE",
"256 598 OFFCURVE",
"317 598 CURVE SMOOTH",
"381 598 OFFCURVE",
"418 559 OFFCURVE",
"418 511 CURVE",
"598 511 LINE",
"598 655 OFFCURVE",
"496 752 OFFCURVE",
"317 752 CURVE SMOOTH",
"151 752 OFFCURVE",
"45 667 OFFCURVE",
"45 524 CURVE SMOOTH",
"45 389 OFFCURVE",
"141 304 OFFCURVE",
"292 291 CURVE SMOOTH",
"339 287 LINE SMOOTH",
"424 280 OFFCURVE",
"457 257 OFFCURVE",
"457 215 CURVE SMOOTH",
"457 165 OFFCURVE",
"411 134 OFFCURVE",
"334 134 CURVE SMOOTH",
"244 134 OFFCURVE",
"202 174 OFFCURVE",
"202 227 CURVE",
"22 227 LINE",
"22 83 OFFCURVE",
"129 -20 OFFCURVE",
"334 -20 CURVE SMOOTH"
);
}
);
width = 659;
},
{
anchors = (
{
name = bottom;
position = "{357, 0}";
},
{
name = top;
position = "{355, 730}";
}
);
layerId = "C54A1B2C-2BC8-455F-8AA9-31AEAFF53136";
paths = (
{
closed = 1;
nodes = (
"532 -16 OFFCURVE",
"624 71 OFFCURVE",
"624 188 CURVE SMOOTH",
"624 291 OFFCURVE",
"550 376 OFFCURVE",
"406 389 CURVE SMOOTH",
"316 397 LINE SMOOTH",
"213 406 OFFCURVE",
"154 459 OFFCURVE",
"154 551 CURVE SMOOTH",
"154 643 OFFCURVE",
"212 718 OFFCURVE",
"354 718 CURVE SMOOTH",
"502 718 OFFCURVE",
"564 632 OFFCURVE",
"564 532 CURVE",
"596 532 LINE",
"596 647 OFFCURVE",
"520 748 OFFCURVE",
"354 748 CURVE SMOOTH",
"194 748 OFFCURVE",
"122 658 OFFCURVE",
"122 551 CURVE SMOOTH",
"122 445 OFFCURVE",
"194 377 OFFCURVE",
"311 367 CURVE SMOOTH",
"401 359 LINE SMOOTH",
"531 347 OFFCURVE",
"592 277 OFFCURVE",
"592 188 CURVE SMOOTH",
"592 82 OFFCURVE",
"509 14 OFFCURVE",
"357 14 CURVE SMOOTH",
"192 14 OFFCURVE",
"114 90 OFFCURVE",
"114 208 CURVE",
"82 208 LINE",
"82 79 OFFCURVE",
"169 -16 OFFCURVE",
"357 -16 CURVE SMOOTH"
);
}
);
width = 712;
}
);
leftKerningGroup = UC_S;
rightKerningGroup = UC_S;
unicode = 0053;
},
{
color = 6;
glyphname = Germandbls;
lastChange = "2019-05-29 22:43:47 +0000";
layers = (
{
layerId = "445E0A7C-B12F-48FD-B0B3-D474C1FC2A30";
paths = (
{
closed = 1;
nodes = (
"516 -16 OFFCURVE",
"622 77 OFFCURVE",
"622 212 CURVE SMOOTH",
"622 330 OFFCURVE",
"530 398 OFFCURVE",
"381 412 CURVE SMOOTH",
"305 419 LINE SMOOTH",
"224 426 OFFCURVE",
"184 472 OFFCURVE",
"184 524 CURVE SMOOTH",
"184 593 OFFCURVE",
"232 656 OFFCURVE",
"338 656 CURVE SMOOTH",
"443 656 OFFCURVE",
"495 587 OFFCURVE",
"495 523 CURVE",
"592 523 LINE",
"592 666 OFFCURVE",
"490 746 OFFCURVE",
"338 746 CURVE SMOOTH",
"187 746 OFFCURVE",
"86 659 OFFCURVE",
"86 524 CURVE SMOOTH",
"86 406 OFFCURVE",
"169 341 OFFCURVE",
"297 329 CURVE SMOOTH",
"373 322 LINE SMOOTH",
"471 313 OFFCURVE",
"524 269 OFFCURVE",
"524 212 CURVE SMOOTH",
"524 139 OFFCURVE",
"466 74 OFFCURVE",
"339 74 CURVE SMOOTH",
"198 74 OFFCURVE",
"153 156 OFFCURVE",
"153 215 CURVE",
"56 215 LINE",
"56 72 OFFCURVE",
"164 -16 OFFCURVE",
"339 -16 CURVE SMOOTH"
);
},
{
closed = 1;
nodes = (
"1166 -16 OFFCURVE",
"1268 77 OFFCURVE",
"1268 212 CURVE SMOOTH",
"1268 331 OFFCURVE",
"1174 399 OFFCURVE",
"1027 412 CURVE SMOOTH",
"947 419 LINE SMOOTH",
"866 426 OFFCURVE",
"826 472 OFFCURVE",
"826 524 CURVE SMOOTH",
"826 593 OFFCURVE",
"876 656 OFFCURVE",
"983 656 CURVE SMOOTH",
"1089 656 OFFCURVE",
"1141 587 OFFCURVE",
"1141 523 CURVE",
"1238 523 LINE",
"1238 666 OFFCURVE",
"1136 746 OFFCURVE",
"983 746 CURVE SMOOTH",
"831 746 OFFCURVE",
"728 659 OFFCURVE",
"728 524 CURVE SMOOTH",
"728 407 OFFCURVE",
"811 340 OFFCURVE",
"939 329 CURVE SMOOTH",
"1019 322 LINE SMOOTH",
"1117 313 OFFCURVE",
"1170 270 OFFCURVE",
"1170 212 CURVE SMOOTH",
"1170 139 OFFCURVE",
"1116 74 OFFCURVE",
"990 74 CURVE SMOOTH",
"850 74 OFFCURVE",
"809 156 OFFCURVE",
"809 215 CURVE",
"712 215 LINE",
"712 72 OFFCURVE",
"816 -16 OFFCURVE",
"990 -16 CURVE SMOOTH"
);
}
);
width = 1326;
},
{
background = {
paths = (
{
closed = 1;
nodes = (
"516 -21 OFFCURVE",
"628 71 OFFCURVE",
"628 212 CURVE SMOOTH",
"628 350 OFFCURVE",
"514 429 OFFCURVE",
"352 443 CURVE SMOOTH",
"306 447 LINE SMOOTH",
"246 452 OFFCURVE",
"225 479 OFFCURVE",
"225 516 CURVE SMOOTH",
"225 557 OFFCURVE",
"255 587 OFFCURVE",
"312 587 CURVE SMOOTH",
"373 587 OFFCURVE",
"409 551 OFFCURVE",
"409 504 CURVE",
"589 504 LINE",
"589 646 OFFCURVE",
"488 741 OFFCURVE",
"312 741 CURVE SMOOTH",
"149 741 OFFCURVE",
"45 657 OFFCURVE",
"45 516 CURVE SMOOTH",
"45 379 OFFCURVE",
"144 299 OFFCURVE",
"288 286 CURVE SMOOTH",
"334 282 LINE SMOOTH",
"417 275 OFFCURVE",
"448 252 OFFCURVE",
"448 212 CURVE SMOOTH",
"448 164 OFFCURVE",
"404 133 OFFCURVE",
"329 133 CURVE SMOOTH",
"243 133 OFFCURVE",
"202 172 OFFCURVE",
"202 224 CURVE",
"22 224 LINE",
"22 82 OFFCURVE",
"128 -21 OFFCURVE",
"329 -21 CURVE SMOOTH"
);
},
{
closed = 1;
nodes = (
"1160 -21 OFFCURVE",
"1272 71 OFFCURVE",
"1272 212 CURVE SMOOTH",
"1272 350 OFFCURVE",
"1158 429 OFFCURVE",
"996 443 CURVE SMOOTH",
"950 447 LINE SMOOTH",
"890 452 OFFCURVE",
"869 479 OFFCURVE",
"869 516 CURVE SMOOTH",
"869 557 OFFCURVE",
"899 587 OFFCURVE",
"956 587 CURVE SMOOTH",
"1017 587 OFFCURVE",
"1053 551 OFFCURVE",
"1053 504 CURVE",
"1233 504 LINE",
"1233 646 OFFCURVE",
"1132 741 OFFCURVE",
"956 741 CURVE SMOOTH",
"793 741 OFFCURVE",
"689 657 OFFCURVE",
"689 516 CURVE SMOOTH",
"689 379 OFFCURVE",
"788 299 OFFCURVE",
"932 286 CURVE SMOOTH",
"978 282 LINE SMOOTH",
"1061 275 OFFCURVE",
"1092 252 OFFCURVE",
"1092 212 CURVE SMOOTH",
"1092 164 OFFCURVE",
"1048 133 OFFCURVE",
"973 133 CURVE SMOOTH",
"887 133 OFFCURVE",
"846 172 OFFCURVE",
"846 224 CURVE",
"666 224 LINE",
"666 82 OFFCURVE",
"772 -21 OFFCURVE",
"973 -21 CURVE SMOOTH"
);
}
);
};
layerId = "7C8656A8-8591-4735-94A0-92D633732231";
paths = (
{
closed = 1;
nodes = (
"515 -21 OFFCURVE",
"628 72 OFFCURVE",
"628 215 CURVE SMOOTH",
"628 354 OFFCURVE",
"514 434 OFFCURVE",
"352 448 CURVE SMOOTH",
"306 452 LINE SMOOTH",
"246 457 OFFCURVE",
"225 486 OFFCURVE",
"225 523 CURVE SMOOTH",
"225 565 OFFCURVE",
"255 597 OFFCURVE",
"312 597 CURVE SMOOTH",
"373 597 OFFCURVE",
"409 560 OFFCURVE",
"409 511 CURVE",
"589 511 LINE",
"589 655 OFFCURVE",
"488 751 OFFCURVE",
"312 751 CURVE SMOOTH",
"150 751 OFFCURVE",
"45 666 OFFCURVE",
"45 523 CURVE SMOOTH",
"45 382 OFFCURVE",
"148 303 OFFCURVE",
"288 291 CURVE SMOOTH",
"334 287 LINE SMOOTH",
"419 280 OFFCURVE",
"448 255 OFFCURVE",
"448 215 CURVE SMOOTH",
"448 166 OFFCURVE",
"404 133 OFFCURVE",
"329 133 CURVE SMOOTH",
"243 133 OFFCURVE",
"202 174 OFFCURVE",
"202 227 CURVE",
"22 227 LINE",
"22 83 OFFCURVE",
"128 -21 OFFCURVE",
"329 -21 CURVE SMOOTH"
);
},
{
closed = 1;
nodes = (
"1159 -21 OFFCURVE",
"1272 72 OFFCURVE",
"1272 215 CURVE SMOOTH",
"1272 355 OFFCURVE",
"1158 434 OFFCURVE",
"996 448 CURVE SMOOTH",
"950 452 LINE SMOOTH",
"890 457 OFFCURVE",
"869 486 OFFCURVE",
"869 523 CURVE SMOOTH",
"869 565 OFFCURVE",
"899 597 OFFCURVE",
"956 597 CURVE SMOOTH",
"1017 597 OFFCURVE",
"1053 560 OFFCURVE",
"1053 511 CURVE",
"1233 511 LINE",
"1233 655 OFFCURVE",
"1132 751 OFFCURVE",
"956 751 CURVE SMOOTH",
"794 751 OFFCURVE",
"689 666 OFFCURVE",
"689 523 CURVE SMOOTH",
"689 382 OFFCURVE",
"792 303 OFFCURVE",
"932 291 CURVE SMOOTH",
"978 287 LINE SMOOTH",
"1061 280 OFFCURVE",
"1092 256 OFFCURVE",
"1092 215 CURVE SMOOTH",
"1092 166 OFFCURVE",
"1048 133 OFFCURVE",
"973 133 CURVE SMOOTH",
"887 133 OFFCURVE",
"846 174 OFFCURVE",
"846 227 CURVE",
"666 227 LINE",
"666 83 OFFCURVE",
"772 -21 OFFCURVE",
"973 -21 CURVE SMOOTH"
);
}
);
width = 1294;
},
{
layerId = "C54A1B2C-2BC8-455F-8AA9-31AEAFF53136";
paths = (
{
closed = 1;
nodes = (
"528 -16 OFFCURVE",
"616 71 OFFCURVE",
"616 188 CURVE SMOOTH",
"616 291 OFFCURVE",
"544 376 OFFCURVE",
"400 389 CURVE SMOOTH",
"312 397 LINE SMOOTH",
"209 406 OFFCURVE",
"152 459 OFFCURVE",
"152 551 CURVE SMOOTH",
"152 643 OFFCURVE",
"207 718 OFFCURVE",
"349 718 CURVE SMOOTH",
"497 718 OFFCURVE",
"556 632 OFFCURVE",
"556 532 CURVE",
"588 532 LINE",
"588 647 OFFCURVE",
"515 748 OFFCURVE",
"349 748 CURVE SMOOTH",
"189 748 OFFCURVE",
"120 658 OFFCURVE",
"120 551 CURVE SMOOTH",
"120 445 OFFCURVE",
"190 378 OFFCURVE",
"307 367 CURVE SMOOTH",
"395 359 LINE SMOOTH",
"525 347 OFFCURVE",
"584 277 OFFCURVE",
"584 188 CURVE SMOOTH",
"584 82 OFFCURVE",
"505 14 OFFCURVE",
"353 14 CURVE SMOOTH",
"188 14 OFFCURVE",
"114 90 OFFCURVE",
"114 208 CURVE",
"82 208 LINE",
"82 79 OFFCURVE",
"165 -16 OFFCURVE",
"353 -16 CURVE SMOOTH"
);
},
{
closed = 1;
nodes = (
"1192 -16 OFFCURVE",
"1280 71 OFFCURVE",
"1280 188 CURVE SMOOTH",
"1280 291 OFFCURVE",
"1208 376 OFFCURVE",
"1064 389 CURVE SMOOTH",
"976 397 LINE SMOOTH",
"873 406 OFFCURVE",
"816 459 OFFCURVE",
"816 551 CURVE SMOOTH",
"816 643 OFFCURVE",
"871 718 OFFCURVE",
"1013 718 CURVE SMOOTH",
"1161 718 OFFCURVE",
"1220 632 OFFCURVE",
"1220 532 CURVE",
"1252 532 LINE",
"1252 647 OFFCURVE",
"1179 748 OFFCURVE",
"1013 748 CURVE SMOOTH",
"853 748 OFFCURVE",
"784 658 OFFCURVE",
"784 551 CURVE SMOOTH",
"784 445 OFFCURVE",
"854 378 OFFCURVE",
"971 367 CURVE SMOOTH",
"1059 359 LINE SMOOTH",
"1189 347 OFFCURVE",
"1248 277 OFFCURVE",
"1248 188 CURVE SMOOTH",
"1248 82 OFFCURVE",
"1169 14 OFFCURVE",
"1017 14 CURVE SMOOTH",
"852 14 OFFCURVE",
"778 90 OFFCURVE",
"778 208 CURVE",
"746 208 LINE",
"746 79 OFFCURVE",
"829 -16 OFFCURVE",
"1017 -16 CURVE SMOOTH"
);
}
);
width = 1368;
}
);
leftKerningGroup = UC_S;
leftMetricsKey = S;
rightKerningGroup = UC_S;
rightMetricsKey = S;
unicode = 1E9E;
},
{
color = 7;
glyphname = T;
lastChange = "2020-05-27 22:24:54 +0000";
layers = (
{
anchors = (
{
name = bottom;
position = "{297, 0}";
},
{
name = center;
position = "{297, 365}";
},
{
name = top;
position = "{297, 730}";
}
);
background = {
anchors = (
{
name = bottom;
position = "{295, 0}";
},
{
name = center;
position = "{295, 360}";
},
{
name = top;
position = "{295, 720}";
}
);
paths = (
{
closed = 1;
nodes = (
"344 0 LINE",
"344 652 LINE",
"246 652 LINE",
"246 0 LINE"
);
},
{
closed = 1;
nodes = (
"563 632 LINE",
"563 720 LINE",
"27 720 LINE",
"27 632 LINE"
);
}
);
};
layerId = "445E0A7C-B12F-48FD-B0B3-D474C1FC2A30";
paths = (
{
closed = 1;
nodes = (
"346 0 LINE",
"346 662 LINE",
"248 662 LINE",
"248 0 LINE"
);
},
{
closed = 1;
nodes = (
"568 642 LINE",
"568 730 LINE",
"26 730 LINE",
"26 642 LINE"
);
}
);
width = 594;
},
{
anchors = (
{
name = bottom;
position = "{313, 0}";
},
{
name = center;
position = "{313, 365}";
},
{
name = top;
position = "{313, 730}";
}
);
background = {
anchors = (
{
name = bottom;
position = "{311, 0}";
},
{
name = center;
position = "{311, 360}";
},
{
name = top;
position = "{311, 720}";
}
);
paths = (
{
closed = 1;
nodes = (
"404 0 LINE",
"404 578 LINE",
"218 578 LINE",
"218 0 LINE"
);
},
{
closed = 1;
nodes = (
"603 558 LINE",
"603 720 LINE",
"19 720 LINE",
"19 558 LINE"
);
}
);
};
layerId = "7C8656A8-8591-4735-94A0-92D633732231";
paths = (
{
closed = 1;
nodes = (
"406 0 LINE",
"406 588 LINE",
"220 588 LINE",
"220 0 LINE"
);
},
{
closed = 1;
nodes = (
"606 568 LINE",
"606 730 LINE",
"20 730 LINE",
"20 568 LINE"
);
}
);
width = 626;
},
{
anchors = (
{
name = bottom;
position = "{288, 0}";
},
{
name = center;
position = "{288, 365}";
},
{
name = top;
position = "{288, 730}";
}
);
layerId = "C54A1B2C-2BC8-455F-8AA9-31AEAFF53136";
paths = (
{
closed = 1;
nodes = (
"304 0 LINE",
"304 716 LINE",
"272 716 LINE",
"272 0 LINE"
);
},
{
closed = 1;
nodes = (
"544 700 LINE",
"544 730 LINE",
"32 730 LINE",
"32 700 LINE"
);
}
);
width = 576;
}
);
leftKerningGroup = UC_T;
rightKerningGroup = UC_T;
unicode = 0054;
},
{
color = 6;
glyphname = Tbar;
lastChange = "2019-05-29 22:43:47 +0000";
layers = (
{
background = {
components = (
{
name = T;
}
);
paths = (
{
closed = 1;
nodes = (
"499 320 LINE",
"499 400 LINE",
"89 400 LINE",
"89 320 LINE"
);
}
);
};
components = (
{
name = T;
}
);
layerId = "445E0A7C-B12F-48FD-B0B3-D474C1FC2A30";
paths = (
{
closed = 1;
nodes = (
"502 320 LINE",
"502 400 LINE",
"92 400 LINE",
"92 320 LINE"
);
}
);
width = 594;
},
{
background = {
components = (
{
name = T;
}
);
paths = (
{
closed = 1;
nodes = (
"543 286 LINE",
"543 410 LINE",
"77 410 LINE",
"77 286 LINE"
);
}
);
};
components = (
{
name = T;
}
);
layerId = "7C8656A8-8591-4735-94A0-92D633732231";
paths = (
{
closed = 1;
nodes = (
"546 286 LINE",
"546 410 LINE",
"80 410 LINE",
"80 286 LINE"
);
}
);
width = 626;
},
{
components = (
{
name = T;
}
);
layerId = "C54A1B2C-2BC8-455F-8AA9-31AEAFF53136";
paths = (
{
closed = 1;
nodes = (
"476 362 LINE",
"476 390 LINE",
"100 390 LINE",
"100 362 LINE"
);
}
);
width = 576;
}
);
leftKerningGroup = UC_T;
widthMetricsKey = T;
rightKerningGroup = UC_T;
unicode = 0166;
},
{
color = 7;
glyphname = U;
lastChange = "2019-06-04 22:28:53 +0000";
layers = (
{
anchors = (
{
name = bottom;
position = "{395, 0}";
},
{
name = ogonek;
position = "{520, 10}";
},
{
name = top;
position = "{395, 730}";
}
);
background = {
anchors = (
{
name = bottom;
position = "{391, 0}";
},
{
name = ogonek;
position = "{515, 10}";
},
{
name = top;
position = "{391, 720}";
}
);
paths = (
{
closed = 1;
nodes = (
"588 -20 OFFCURVE",
"691 102 OFFCURVE",
"691 284 CURVE SMOOTH",
"691 720 LINE",
"593 720 LINE",
"593 272 LINE SMOOTH",
"593 151 OFFCURVE",
"521 70 OFFCURVE",
"391 70 CURVE SMOOTH",
"261 70 OFFCURVE",
"189 151 OFFCURVE",
"189 272 CURVE SMOOTH",
"189 720 LINE",
"91 720 LINE",
"91 284 LINE SMOOTH",
"91 102 OFFCURVE",
"194 -20 OFFCURVE",
"391 -20 CURVE SMOOTH"
);
}
);
};
layerId = "445E0A7C-B12F-48FD-B0B3-D474C1FC2A30";
paths = (
{
closed = 1;
nodes = (
"594 -18 OFFCURVE",
"697 106 OFFCURVE",
"697 290 CURVE SMOOTH",
"697 730 LINE",
"599 730 LINE",
"599 278 LINE SMOOTH",
"599 154 OFFCURVE",
"526 72 OFFCURVE",
"395 72 CURVE SMOOTH",
"263 72 OFFCURVE",
"190 155 OFFCURVE",
"190 278 CURVE SMOOTH",
"190 730 LINE",
"92 730 LINE",
"92 290 LINE SMOOTH",
"92 106 OFFCURVE",
"196 -18 OFFCURVE",
"395 -18 CURVE SMOOTH"
);
}
);
width = 789;
},
{
anchors = (
{
name = bottom;
position = "{386, 0}";
},
{
name = ogonek;
position = "{540, 17}";
},
{
name = top;
position = "{386, 730}";
}
);
background = {
anchors = (
{
name = bottom;
position = "{382, 0}";
},
{
name = ogonek;
position = "{535, 17}";
},
{
name = top;
position = "{382, 720}";
}
);
paths = (
{
closed = 1;
nodes = (
"590 -22 OFFCURVE",
"705 99 OFFCURVE",
"705 293 CURVE SMOOTH",
"705 720 LINE",
"519 720 LINE",
"519 289 LINE SMOOTH",
"519 204 OFFCURVE",
"470 152 OFFCURVE",
"382 152 CURVE SMOOTH",
"294 152 OFFCURVE",
"245 204 OFFCURVE",
"245 289 CURVE SMOOTH",
"245 720 LINE",
"59 720 LINE",
"59 293 LINE SMOOTH",
"59 99 OFFCURVE",
"174 -22 OFFCURVE",
"382 -22 CURVE SMOOTH"
);
}
);
};
layerId = "7C8656A8-8591-4735-94A0-92D633732231";
paths = (
{
closed = 1;
nodes = (
"596 -20 OFFCURVE",
"711 103 OFFCURVE",
"711 299 CURVE SMOOTH",
"711 730 LINE",
"525 730 LINE",
"525 295 LINE SMOOTH",
"525 207 OFFCURVE",
"475 154 OFFCURVE",
"386 154 CURVE SMOOTH",
"296 154 OFFCURVE",
"246 208 OFFCURVE",
"246 295 CURVE SMOOTH",
"246 730 LINE",
"60 730 LINE",
"60 299 LINE SMOOTH",
"60 103 OFFCURVE",
"176 -20 OFFCURVE",
"386 -20 CURVE SMOOTH"
);
}
);
width = 771;
},
{
anchors = (
{
name = bottom;
position = "{403, 0}";
},
{
name = ogonek;
position = "{497, 5}";
},
{
name = top;
position = "{403, 730}";
}
);
layerId = "C54A1B2C-2BC8-455F-8AA9-31AEAFF53136";
paths = (
{
closed = 1;
nodes = (
"604 -16 OFFCURVE",
"690 109 OFFCURVE",
"690 275 CURVE SMOOTH",
"690 730 LINE",
"658 730 LINE",
"658 271 LINE SMOOTH",
"658 117 OFFCURVE",
"580 14 OFFCURVE",
"403 14 CURVE SMOOTH",
"227 14 OFFCURVE",
"148 117 OFFCURVE",
"148 271 CURVE SMOOTH",
"148 730 LINE",
"116 730 LINE",
"116 275 LINE SMOOTH",
"116 109 OFFCURVE",
"202 -16 OFFCURVE",
"403 -16 CURVE SMOOTH"
);
}
);
width = 806;
}
);
leftKerningGroup = UC_U;
leftMetricsKey = "=H-14";
rightKerningGroup = UC_U;
rightMetricsKey = "=H-14";
unicode = 0055;
},
{
color = 7;
glyphname = V;
lastChange = "2020-05-28 00:04:31 +0000";
layers = (
{
background = {
paths = (
{
closed = 1;
nodes = (
"438 0 LINE",
"672 720 LINE",
"574 720 LINE",
"366 64 LINE",
"416 88 LINE",
"302 88 LINE",
"352 64 LINE",
"126 720 LINE",
"22 720 LINE",
"274 0 LINE"
);
}
);
};
layerId = "445E0A7C-B12F-48FD-B0B3-D474C1FC2A30";
paths = (
{
closed = 1;
nodes = (
"443 0 LINE",
"678 730 LINE",
"580 730 LINE",
"371 64 LINE",
"422 88 LINE",
"302 88 LINE",
"350 64 LINE",
"123 730 LINE",
"22 730 LINE",
"275 0 LINE"
);
}
);
width = 708;
},
{
background = {
paths = (
{
closed = 1;
nodes = (
"529 -1 LINE",
"724 720 LINE",
"538 720 LINE",
"393 130 LINE",
"428 147 LINE",
"334 147 LINE",
"368 130 LINE",
"212 720 LINE",
"20 720 LINE",
"229 -1 LINE"
);
}
);
};
layerId = "7C8656A8-8591-4735-94A0-92D633732231";
paths = (
{
closed = 1;
nodes = (
"532 0 LINE",
"730 730 LINE",
"544 730 LINE",
"396 131 LINE",
"432 148 LINE",
"336 148 LINE",
"371 131 LINE",
"212 730 LINE",
"20 730 LINE",
"232 0 LINE"
);
}
);
width = 750;
},
{
layerId = "C54A1B2C-2BC8-455F-8AA9-31AEAFF53136";
paths = (
{
closed = 1;
nodes = (
"381 0 LINE",
"644 730 LINE",
"611 730 LINE",
"354 14 LINE",
"383 30 LINE",
"304 30 LINE",
"331 14 LINE",
"61 730 LINE",
"28 730 LINE",
"304 0 LINE"
);
}
);
width = 680;
}
);
unicode = 0056;
},
{
color = 7;
glyphname = W;
lastChange = "2020-05-27 23:42:30 +0000";
layers = (
{
anchors = (
{
name = bottom;
position = "{530, 0}";
},
{
name = top;
position = "{523, 730}";
}
);
background = {
anchors = (
{
name = bottom;
position = "{518, 0}";
},
{
name = top;
position = "{521, 720}";
}
);
paths = (
{
closed = 1;
nodes = (
"393 0 LINE",
"555 690 LINE",
"463 690 LINE",
"322 64 LINE",
"372 88 LINE",
"258 88 LINE",
"308 64 LINE",
"137 720 LINE",
"33 720 LINE",
"230 0 LINE"
);
},
{
closed = 1;
nodes = (
"824 0 LINE",
"1003 720 LINE",
"905 720 LINE",
"752 64 LINE",
"802 88 LINE",
"688 88 LINE",
"738 64 LINE",
"579 690 LINE",
"484 690 LINE",
"661 0 LINE"
);
}
);
};
layerId = "445E0A7C-B12F-48FD-B0B3-D474C1FC2A30";
paths = (
{
closed = 1;
nodes = (
"394 0 LINE",
"553 700 LINE",
"461 700 LINE",
"322 64 LINE",
"374 88 LINE",
"255 88 LINE",
"302 64 LINE",
"131 730 LINE",
"30 730 LINE",
"227 0 LINE"
);
},
{
closed = 1;
nodes = (
"834 0 LINE",
"1013 730 LINE",
"915 730 LINE",
"762 64 LINE",
"813 88 LINE",
"693 88 LINE",
"743 64 LINE",
"586 700 LINE",
"491 700 LINE",
"666 0 LINE"
);
}
);
width = 1043;
},
{
anchors = (
{
name = bottom;
position = "{545, 0}";
},
{
name = top;
position = "{541, 730}";
}
);
background = {
anchors = (
{
name = bottom;
position = "{541, 0}";
},
{
name = top;
position = "{536, 720}";
}
);
paths = (
{
closed = 1;
nodes = (
"465 0 LINE",
"601 694 LINE",
"451 694 LINE",
"351 125 LINE",
"385 148 LINE",
"307 148 LINE",
"338 125 LINE",
"209 720 LINE",
"19 720 LINE",
"191 0 LINE"
);
},
{
closed = 1;
nodes = (
"901 0 LINE",
"1052 720 LINE",
"870 720 LINE",
"759 125 LINE",
"784 148 LINE",
"712 148 LINE",
"746 125 LINE",
"629 694 LINE",
"471 694 LINE",
"620 0 LINE"
);
}
);
};
guideLines = (
{
position = "{17, 148}";
}
);
layerId = "7C8656A8-8591-4735-94A0-92D633732231";
paths = (
{
closed = 1;
nodes = (
"469 0 LINE",
"606 704 LINE",
"455 704 LINE",
"356 125 LINE",
"391 148 LINE",
"310 148 LINE",
"341 125 LINE",
"210 730 LINE",
"18 730 LINE",
"192 0 LINE"
);
},
{
closed = 1;
nodes = (
"909 0 LINE",
"1062 730 LINE",
"882 730 LINE",
"769 125 LINE",
"795 148 LINE",
"719 148 LINE",
"754 125 LINE",
"638 704 LINE",
"479 704 LINE",
"626 0 LINE"
);
}
);
width = 1080;
},
{
anchors = (
{
name = bottom;
position = "{513, 0}";
},
{
name = top;
position = "{505, 730}";
}
);
layerId = "C54A1B2C-2BC8-455F-8AA9-31AEAFF53136";
paths = (
{
closed = 1;
nodes = (
"336 0 LINE",
"511 695 LINE",
"480 695 LINE",
"310 19 LINE",
"319 30 LINE",
"266 30 LINE",
"277 19 LINE",
"72 730 LINE",
"40 730 LINE",
"251 0 LINE"
);
},
{
closed = 1;
nodes = (
"775 0 LINE",
"971 730 LINE",
"939 730 LINE",
"749 19 LINE",
"761 30 LINE",
"704 30 LINE",
"716 19 LINE",
"531 695 LINE",
"500 695 LINE",
"690 0 LINE"
);
}
);
width = 1011;
}
);
leftKerningGroup = UC_W;
rightKerningGroup = UC_W;
unicode = 0057;
},
{
color = 7;
glyphname = X;
lastChange = "2020-05-27 22:25:32 +0000";
layers = (
{
background = {
paths = (
{
closed = 1;
nodes = (
"126 0 LINE",
"334 302 LINE",
"346 302 LINE",
"561 0 LINE",
"672 0 LINE",
"399 381 LINE",
"400 363 LINE",
"652 720 LINE",
"546 720 LINE",
"355 445 LINE",
"343 445 LINE",
"155 720 LINE",
"44 720 LINE",
"289 367 LINE",
"289 385 LINE",
"20 0 LINE"
);
}
);
};
layerId = "445E0A7C-B12F-48FD-B0B3-D474C1FC2A30";
paths = (
{
closed = 1;
nodes = (
"122 0 LINE",
"333 307 LINE",
"349 307 LINE",
"567 0 LINE",
"678 0 LINE",
"402 386 LINE",
"403 368 LINE",
"658 730 LINE",
"552 730 LINE",
"358 450 LINE",
"342 450 LINE",
"151 730 LINE",
"40 730 LINE",
"288 372 LINE",
"288 390 LINE",
"16 0 LINE"
);
}
);
width = 696;
},
{
background = {
paths = (
{
closed = 1;
nodes = (
"204 0 LINE",
"342 236 LINE",
"368 236 LINE",
"514 0 LINE",
"718 0 LINE",
"471 381 LINE",
"474 365 LINE",
"694 720 LINE",
"496 720 LINE",
"378 514 LINE",
"352 514 LINE",
"230 720 LINE",
"26 720 LINE",
"247 367 LINE",
"245 383 LINE",
"6 0 LINE"
);
}
);
};
layerId = "7C8656A8-8591-4735-94A0-92D633732231";
paths = (
{
closed = 1;
nodes = (
"204 0 LINE",
"345 241 LINE",
"371 241 LINE",
"520 0 LINE",
"724 0 LINE",
"474 386 LINE",
"477 370 LINE",
"700 730 LINE",
"502 730 LINE",
"381 519 LINE",
"355 519 LINE",
"230 730 LINE",
"26 730 LINE",
"250 372 LINE",
"248 388 LINE",
"6 0 LINE"
);
}
);
width = 730;
},
{
layerId = "C54A1B2C-2BC8-455F-8AA9-31AEAFF53136";
paths = (
{
closed = 1;
nodes = (
"60 0 LINE",
"323 356 LINE",
"333 356 LINE",
"589 0 LINE",
"624 0 LINE",
"348 383 LINE",
"346 361 LINE",
"613 730 LINE",
"577 730 LINE",
"336 396 LINE",
"326 396 LINE",
"90 730 LINE",
"55 730 LINE",
"311 369 LINE",
"313 391 LINE",
"24 1 LINE"
);
}
);
width = 662;
}
);
leftKerningGroup = UC_X;
rightKerningGroup = UC_X;
unicode = 0058;
},
{
color = 7;
glyphname = Y;
lastChange = "2020-05-27 23:45:30 +0000";
layers = (
{
anchors = (
{
name = bottom;
position = "{332, 0}";
},
{
name = top;
position = "{323, 730}";
}
);
background = {
anchors = (
{
name = bottom;
position = "{329, 0}";
},
{
name = top;
position = "{320, 720}";
}
);
paths = (
{
closed = 1;
nodes = (
"413 280 LINE",
"628 720 LINE",
"532 720 LINE",
"351 344 LINE",
"390 355 LINE",
"274 355 LINE",
"311 344 LINE",
"118 720 LINE",
"16 720 LINE",
"245 280 LINE"
);
},
{
closed = 1;
nodes = (
"377 0 LINE",
"377 300 LINE",
"281 300 LINE",
"281 0 LINE"
);
}
);
};
layerId = "445E0A7C-B12F-48FD-B0B3-D474C1FC2A30";
paths = (
{
closed = 1;
nodes = (
"416 284 LINE",
"634 730 LINE",
"538 730 LINE",
"354 348 LINE",
"394 359 LINE",
"276 359 LINE",
"314 348 LINE",
"118 730 LINE",
"16 730 LINE",
"248 284 LINE"
);
},
{
closed = 1;
nodes = (
"380 0 LINE",
"380 304 LINE",
"284 304 LINE",
"284 0 LINE"
);
}
);
width = 652;
},
{
anchors = (
{
name = bottom;
position = "{338, 0}";
},
{
name = top;
position = "{334, 730}";
}
);
background = {
anchors = (
{
name = bottom;
position = "{335, 0}";
},
{
name = top;
position = "{331, 720}";
}
);
paths = (
{
closed = 1;
nodes = (
"460 270 LINE",
"648 720 LINE",
"468 720 LINE",
"346 401 LINE",
"373 410 LINE",
"307 410 LINE",
"332 401 LINE",
"194 720 LINE",
"4 720 LINE",
"210 270 LINE"
);
},
{
closed = 1;
nodes = (
"426 0 LINE",
"426 294 LINE",
"244 294 LINE",
"244 0 LINE"
);
}
);
};
layerId = "7C8656A8-8591-4735-94A0-92D633732231";
paths = (
{
closed = 1;
nodes = (
"465 274 LINE",
"654 730 LINE",
"474 730 LINE",
"351 405 LINE",
"379 414 LINE",
"307 414 LINE",
"333 405 LINE",
"194 730 LINE",
"4 730 LINE",
"211 274 LINE"
);
},
{
closed = 1;
nodes = (
"429 0 LINE",
"429 298 LINE",
"247 298 LINE",
"247 0 LINE"
);
}
);
width = 658;
},
{
anchors = (
{
name = bottom;
position = "{325, 0}";
},
{
name = top;
position = "{320, 730}";
}
);
layerId = "C54A1B2C-2BC8-455F-8AA9-31AEAFF53136";
paths = (
{
closed = 1;
nodes = (
"379 289 LINE",
"608 730 LINE",
"575 730 LINE",
"355 304 LINE",
"373 319 LINE",
"277 319 LINE",
"296 304 LINE",
"66 730 LINE",
"32 730 LINE",
"271 289 LINE"
);
},
{
closed = 1;
nodes = (
"341 0 LINE",
"341 301 LINE",
"309 301 LINE",
"309 0 LINE"
);
}
);
width = 644;
}
);
leftKerningGroup = UC_Y;
rightKerningGroup = UC_Y;
unicode = 0059;
},
{
color = 7;
glyphname = Z;
lastChange = "2020-05-27 23:43:20 +0000";
layers = (
{
anchors = (
{
name = bottom;
position = "{336, 0}";
},
{
name = center;
position = "{328, 365}";
},
{
name = top;
position = "{325, 730}";
}
);
background = {
anchors = (
{
name = bottom;
position = "{333, 0}";
},
{
name = center;
position = "{325, 360}";
},
{
name = top;
position = "{322, 720}";
}
);
paths = (
{
closed = 1;
nodes = (
"602 0 LINE",
"602 82 LINE",
"150 82 LINE",
"175 66 LINE",
"143 110 LINE",
"144 82 LINE",
"589 600 LINE",
"589 720 LINE",
"70 720 LINE",
"70 638 LINE",
"496 638 LINE",
"479 649 LINE",
"505 613 LINE",
"506 638 LINE",
"61 120 LINE",
"61 0 LINE"
);
}
);
};
layerId = "445E0A7C-B12F-48FD-B0B3-D474C1FC2A30";
paths = (
{
closed = 1;
nodes = (
"608 0 LINE",
"608 82 LINE",
"150 82 LINE",
"175 66 LINE",
"143 111 LINE",
"144 83 LINE",
"595 610 LINE",
"595 730 LINE",
"71 730 LINE",
"71 648 LINE",
"502 648 LINE",
"485 659 LINE",
"511 623 LINE",
"512 647 LINE",
"62 120 LINE",
"62 0 LINE"
);
}
);
width = 654;
},
{
anchors = (
{
name = bottom;
position = "{325, 0}";
},
{
name = center;
position = "{317, 365}";
},
{
name = top;
position = "{330, 730}";
}
);
background = {
anchors = (
{
name = bottom;
position = "{322, 0}";
},
{
name = center;
position = "{314, 360}";
},
{
name = top;
position = "{327, 720}";
}
);
paths = (
{
closed = 1;
nodes = (
"607 0 LINE",
"607 152 LINE",
"266 152 LINE",
"291 132 LINE",
"255 176 LINE",
"260 156 LINE",
"611 600 LINE",
"611 720 LINE",
"43 720 LINE",
"43 568 LINE",
"374 568 LINE",
"349 588 LINE",
"385 544 LINE",
"380 564 LINE",
"29 120 LINE",
"29 0 LINE"
);
}
);
};
layerId = "7C8656A8-8591-4735-94A0-92D633732231";
paths = (
{
closed = 1;
nodes = (
"613 0 LINE",
"613 152 LINE",
"266 152 LINE",
"289 132 LINE",
"255 177 LINE",
"260 158 LINE",
"617 606 LINE",
"617 730 LINE",
"44 730 LINE",
"44 578 LINE",
"380 578 LINE",
"357 598 LINE",
"391 554 LINE",
"386 572 LINE",
"30 124 LINE",
"30 0 LINE"
);
}
);
width = 645;
},
{
anchors = (
{
name = bottom;
position = "{354, 0}";
},
{
name = center;
position = "{338, 365}";
},
{
name = top;
position = "{334, 730}";
}
);
layerId = "C54A1B2C-2BC8-455F-8AA9-31AEAFF53136";
paths = (
{
closed = 1;
nodes = (
"604 0 LINE",
"604 30 LINE",
"113 30 LINE",
"127 10 LINE",
"111 57 LINE",
"103 28 LINE",
"586 678 LINE",
"586 730 LINE",
"89 730 LINE",
"89 700 LINE",
"557 700 LINE",
"543 720 LINE",
"559 673 LINE",
"567 702 LINE",
"84 52 LINE",
"84 0 LINE"
);
}
);
width = 662;
}
);
leftKerningGroup = UC_Z;
rightKerningGroup = UC_Z;
unicode = 005A;
},
{
color = 9;
glyphname = I.salt;
lastChange = "2020-05-27 22:24:06 +0000";
layers = (
{
anchors = (
{
name = bottom;
position = "{224, 0}";
},
{
name = ogonek;
position = "{282, 10}";
},
{
name = top;
position = "{224, 730}";
}
);
background = {
anchors = (
{
name = bottom;
position = "{222, 0}";
},
{
name = ogonek;
position = "{282, 10}";
},
{
name = top;
position = "{222, 720}";
}
);
paths = (
{
closed = 1;
nodes = (
"357 0 LINE",
"357 84 LINE",
"87 84 LINE",
"87 0 LINE"
);
},
{
closed = 1;
nodes = (
"271 64 LINE",
"271 656 LINE",
"173 656 LINE",
"173 64 LINE"
);
},
{
closed = 1;
nodes = (
"357 636 LINE",
"357 720 LINE",
"87 720 LINE",
"87 636 LINE"
);
}
);
};
layerId = "445E0A7C-B12F-48FD-B0B3-D474C1FC2A30";
paths = (
{
closed = 1;
nodes = (
"273 64 LINE",
"273 666 LINE",
"175 666 LINE",
"175 64 LINE"
);
},
{
closed = 1;
nodes = (
"360 0 LINE",
"360 84 LINE",
"88 84 LINE",
"88 0 LINE"
);
},
{
closed = 1;
nodes = (
"360 646 LINE",
"360 730 LINE",
"88 730 LINE",
"88 646 LINE"
);
}
);
width = 448;
},
{
anchors = (
{
name = bottom;
position = "{231, 0}";
},
{
name = ogonek;
position = "{305, 10}";
},
{
name = top;
position = "{231, 730}";
}
);
background = {
anchors = (
{
name = bottom;
position = "{229, 0}";
},
{
name = ogonek;
position = "{303, 10}";
},
{
name = top;
position = "{229, 720}";
}
);
paths = (
{
closed = 1;
nodes = (
"399 0 LINE",
"399 138 LINE",
"57 138 LINE",
"57 0 LINE"
);
},
{
closed = 1;
nodes = (
"321 118 LINE",
"321 602 LINE",
"135 602 LINE",
"135 118 LINE"
);
},
{
closed = 1;
nodes = (
"399 582 LINE",
"399 720 LINE",
"57 720 LINE",
"57 582 LINE"
);
}
);
};
layerId = "7C8656A8-8591-4735-94A0-92D633732231";
paths = (
{
closed = 1;
nodes = (
"323 118 LINE",
"323 612 LINE",
"137 612 LINE",
"137 118 LINE"
);
},
{
closed = 1;
nodes = (
"402 0 LINE",
"402 138 LINE",
"58 138 LINE",
"58 0 LINE"
);
},
{
closed = 1;
nodes = (
"402 592 LINE",
"402 730 LINE",
"58 730 LINE",
"58 592 LINE"
);
}
);
width = 460;
},
{
anchors = (
{
name = bottom;
position = "{222, 0}";
},
{
name = ogonek;
position = "{254, 10}";
},
{
name = top;
position = "{222, 730}";
}
);
layerId = "C54A1B2C-2BC8-455F-8AA9-31AEAFF53136";
paths = (
{
closed = 1;
nodes = (
"238 10 LINE",
"238 720 LINE",
"206 720 LINE",
"206 10 LINE"
);
},
{
closed = 1;
nodes = (
"330 0 LINE",
"330 30 LINE",
"114 30 LINE",
"114 0 LINE"
);
},
{
closed = 1;
nodes = (
"330 700 LINE",
"330 730 LINE",
"114 730 LINE",
"114 700 LINE"
);
}
);
width = 444;
}
);
leftKerningGroup = UC_Isalt;
rightKerningGroup = UC_Isalt;
},
{
color = 9;
glyphname = J.salt;
lastChange = "2020-05-27 02:58:31 +0000";
layers = (
{
anchors = (
{
name = bottom;
position = "{274, 0}";
},
{
name = top;
position = "{439, 730}";
}
);
background = {
anchors = (
{
name = bottom;
position = "{271, 0}";
},
{
name = top;
position = "{435, 720}";
}
);
paths = (
{
closed = 1;
nodes = (
"394 -20 OFFCURVE",
"484 53 OFFCURVE",
"484 203 CURVE SMOOTH",
"484 720 LINE",
"386 720 LINE",
"386 185 LINE SMOOTH",
"386 111 OFFCURVE",
"341 70 OFFCURVE",
"271 70 CURVE SMOOTH",
"201 70 OFFCURVE",
"156 111 OFFCURVE",
"156 185 CURVE SMOOTH",
"156 314 LINE",
"58 314 LINE",
"58 203 LINE SMOOTH",
"58 53 OFFCURVE",
"148 -20 OFFCURVE",
"271 -20 CURVE SMOOTH"
);
}
);
};
layerId = "445E0A7C-B12F-48FD-B0B3-D474C1FC2A30";
paths = (
{
closed = 1;
nodes = (
"396 -20 OFFCURVE",
"488 55 OFFCURVE",
"488 207 CURVE SMOOTH",
"488 730 LINE",
"390 730 LINE",
"390 189 LINE SMOOTH",
"390 113 OFFCURVE",
"343 70 OFFCURVE",
"271 70 CURVE SMOOTH",
"199 70 OFFCURVE",
"152 113 OFFCURVE",
"152 189 CURVE SMOOTH",
"152 318 LINE",
"54 318 LINE",
"54 207 LINE SMOOTH",
"54 55 OFFCURVE",
"145 -20 OFFCURVE",
"271 -20 CURVE SMOOTH"
);
}
);
width = 586;
},
{
anchors = (
{
name = bottom;
position = "{285, 0}";
},
{
name = top;
position = "{453, 730}";
}
);
background = {
anchors = (
{
name = bottom;
position = "{282, 0}";
},
{
name = top;
position = "{449, 720}";
}
);
paths = (
{
closed = 1;
nodes = (
"457 -22 OFFCURVE",
"542 78 OFFCURVE",
"542 245 CURVE SMOOTH",
"542 720 LINE",
"356 720 LINE",
"356 225 LINE SMOOTH",
"356 180 OFFCURVE",
"328 152 OFFCURVE",
"283 152 CURVE SMOOTH",
"238 152 OFFCURVE",
"210 180 OFFCURVE",
"210 225 CURVE SMOOTH",
"210 332 LINE",
"24 332 LINE",
"24 245 LINE SMOOTH",
"24 78 OFFCURVE",
"109 -22 OFFCURVE",
"283 -22 CURVE SMOOTH"
);
}
);
};
layerId = "7C8656A8-8591-4735-94A0-92D633732231";
paths = (
{
closed = 1;
nodes = (
"460 -22 OFFCURVE",
"546 79 OFFCURVE",
"546 247 CURVE SMOOTH",
"546 730 LINE",
"360 730 LINE",
"360 227 LINE SMOOTH",
"360 181 OFFCURVE",
"332 152 OFFCURVE",
"286 152 CURVE SMOOTH",
"240 152 OFFCURVE",
"211 181 OFFCURVE",
"211 227 CURVE SMOOTH",
"211 336 LINE",
"25 336 LINE",
"25 247 LINE SMOOTH",
"25 79 OFFCURVE",
"111 -22 OFFCURVE",
"286 -22 CURVE SMOOTH"
);
}
);
width = 612;
},
{
anchors = (
{
name = bottom;
position = "{265, 0}";
},
{
name = top;
position = "{437, 730}";
}
);
layerId = "C54A1B2C-2BC8-455F-8AA9-31AEAFF53136";
paths = (
{
closed = 1;
nodes = (
"380 -19 OFFCURVE",
"453 49 OFFCURVE",
"453 173 CURVE SMOOTH",
"453 730 LINE",
"421 730 LINE",
"421 169 LINE SMOOTH",
"421 57 OFFCURVE",
"354 11 OFFCURVE",
"264 11 CURVE SMOOTH",
"174 11 OFFCURVE",
"106 57 OFFCURVE",
"106 169 CURVE SMOOTH",
"106 305 LINE",
"74 305 LINE",
"74 173 LINE SMOOTH",
"74 49 OFFCURVE",
"148 -19 OFFCURVE",
"264 -19 CURVE SMOOTH"
);
}
);
width = 575;
}
);
leftKerningGroup = UC_Jsalt;
rightKerningGroup = UC_Jsalt;
rightMetricsKey = "=H-8";
},
{
color = 9;
glyphname = P.salt;
lastChange = "2019-06-04 22:39:07 +0000";
layers = (
{
background = {
paths = (
{
closed = 1;
nodes = (
"383 310 LINE SMOOTH",
"542 310 OFFCURVE",
"625 384 OFFCURVE",
"625 509 CURVE SMOOTH",
"625 525 LINE SMOOTH",
"625 650 OFFCURVE",
"542 724 OFFCURVE",
"383 724 CURVE SMOOTH",
"183 724 LINE",
"183 638 LINE",
"401 638 LINE SMOOTH",
"483 638 OFFCURVE",
"525 591 OFFCURVE",
"525 517 CURVE SMOOTH",
"525 443 OFFCURVE",
"484 396 OFFCURVE",
"401 396 CURVE SMOOTH",
"183 396 LINE",
"183 310 LINE"
);
},
{
closed = 1;
nodes = (
"203 0 LINE",
"203 724 LINE",
"105 724 LINE",
"105 0 LINE"
);
}
);
};
layerId = "445E0A7C-B12F-48FD-B0B3-D474C1FC2A30";
paths = (
{
closed = 1;
nodes = (
"386 316 LINE SMOOTH",
"547 316 OFFCURVE",
"630 391 OFFCURVE",
"630 517 CURVE SMOOTH",
"630 533 LINE SMOOTH",
"630 659 OFFCURVE",
"546 734 OFFCURVE",
"386 734 CURVE SMOOTH",
"184 734 LINE",
"184 648 LINE",
"404 648 LINE SMOOTH",
"487 648 OFFCURVE",
"530 600 OFFCURVE",
"530 525 CURVE SMOOTH",
"530 450 OFFCURVE",
"489 402 OFFCURVE",
"404 402 CURVE SMOOTH",
"184 402 LINE",
"184 316 LINE"
);
},
{
closed = 1;
nodes = (
"204 0 LINE",
"204 734 LINE",
"106 734 LINE",
"106 0 LINE"
);
}
);
width = 652;
},
{
background = {
paths = (
{
closed = 1;
nodes = (
"405 234 LINE SMOOTH",
"566 234 OFFCURVE",
"686 312 OFFCURVE",
"686 472 CURVE SMOOTH",
"686 488 LINE SMOOTH",
"686 648 OFFCURVE",
"566 726 OFFCURVE",
"405 726 CURVE SMOOTH",
"239 726 LINE",
"239 566 LINE",
"412 566 LINE SMOOTH",
"468 566 OFFCURVE",
"498 536 OFFCURVE",
"498 480 CURVE SMOOTH",
"498 424 OFFCURVE",
"468 394 OFFCURVE",
"412 394 CURVE SMOOTH",
"239 394 LINE",
"239 234 LINE"
);
},
{
closed = 1;
nodes = (
"259 0 LINE",
"259 726 LINE",
"73 726 LINE",
"73 0 LINE"
);
}
);
};
layerId = "7C8656A8-8591-4735-94A0-92D633732231";
paths = (
{
closed = 1;
nodes = (
"408 240 LINE SMOOTH",
"571 240 OFFCURVE",
"691 319 OFFCURVE",
"691 480 CURVE SMOOTH",
"691 496 LINE SMOOTH",
"691 657 OFFCURVE",
"570 736 OFFCURVE",
"408 736 CURVE SMOOTH",
"240 736 LINE",
"240 576 LINE",
"415 576 LINE SMOOTH",
"472 576 OFFCURVE",
"503 545 OFFCURVE",
"503 488 CURVE SMOOTH",
"503 431 OFFCURVE",
"473 400 OFFCURVE",
"415 400 CURVE SMOOTH",
"240 400 LINE",
"240 240 LINE"
);
},
{
closed = 1;
nodes = (
"260 0 LINE",
"260 736 LINE",
"74 736 LINE",
"74 0 LINE"
);
}
);
width = 711;
},
{
layerId = "C54A1B2C-2BC8-455F-8AA9-31AEAFF53136";
paths = (
{
closed = 1;
nodes = (
"387 362 LINE SMOOTH",
"527 362 OFFCURVE",
"585 441 OFFCURVE",
"585 542 CURVE SMOOTH",
"585 552 LINE SMOOTH",
"585 653 OFFCURVE",
"527 732 OFFCURVE",
"387 732 CURVE SMOOTH",
"144 732 LINE",
"144 702 LINE",
"389 702 LINE SMOOTH",
"510 702 OFFCURVE",
"553 635 OFFCURVE",
"553 547 CURVE SMOOTH",
"553 459 OFFCURVE",
"510 392 OFFCURVE",
"389 392 CURVE SMOOTH",
"144 392 LINE",
"144 362 LINE"
);
},
{
closed = 1;
nodes = (
"162 0 LINE",
"162 732 LINE",
"130 732 LINE",
"130 0 LINE"
);
}
);
width = 609;
}
);
leftKerningGroup = UC_Stem;
leftMetricsKey = H;
},
{
color = 9;
glyphname = Q.salt;
lastChange = "2020-05-27 23:44:36 +0000";
layers = (
{
background = {
components = (
{
name = O;
}
);
paths = (
{
closed = 1;
nodes = (
"770 -70 LINE",
"503 294 LINE",
"407 294 LINE",
"674 -70 LINE"
);
}
);
};
components = (
{
name = O;
}
);
guideLines = (
{
angle = 90;
position = "{431, 360}";
},
{
angle = 135;
position = "{431, 360}";
}
);
layerId = "445E0A7C-B12F-48FD-B0B3-D474C1FC2A30";
paths = (
{
closed = 1;
nodes = (
"770 -70 LINE",
"503 294 LINE",
"407 294 LINE",
"674 -70 LINE"
);
}
);
width = 865;
},
{
components = (
{
name = O;
}
);
guideLines = (
{
angle = 90;
position = "{431, 360}";
}
);
layerId = "7C8656A8-8591-4735-94A0-92D633732231";
paths = (
{
closed = 1;
nodes = (
"788 -82 LINE",
"510 302 LINE",
"334 302 LINE",
"612 -82 LINE"
);
}
);
width = 864;
},
{
components = (
{
alignment = -1;
name = O;
}
);
layerId = "C54A1B2C-2BC8-455F-8AA9-31AEAFF53136";
paths = (
{
closed = 1;
nodes = (
"751 -64 LINE",
"492 288 LINE",
"456 288 LINE",
"715 -64 LINE"
);
}
);
width = 872;
}
);
leftKerningGroup = UC_Qsalt;
leftMetricsKey = O;
rightKerningGroup = UC_Qsalt;
rightMetricsKey = O;
},
{
color = 9;
glyphname = R.salt;
lastChange = "2019-06-10 16:32:21 +0000";
layers = (
{
anchors = (
{
name = bottom;
position = "{376, 0}";
},
{
name = top;
position = "{339, 730}";
}
);
background = {
anchors = (
{
name = bottom;
position = "{374, 0}";
},
{
name = top;
position = "{334, 720}";
}
);
paths = (
{
closed = 1;
nodes = (
"386 316 LINE SMOOTH",
"547 316 OFFCURVE",
"630 391 OFFCURVE",
"630 517 CURVE SMOOTH",
"630 533 LINE SMOOTH",
"630 659 OFFCURVE",
"546 734 OFFCURVE",
"386 734 CURVE SMOOTH",
"184 734 LINE",
"184 648 LINE",
"404 648 LINE SMOOTH",
"487 648 OFFCURVE",
"530 600 OFFCURVE",
"530 525 CURVE SMOOTH",
"530 450 OFFCURVE",
"489 402 OFFCURVE",
"404 402 CURVE SMOOTH",
"184 402 LINE",
"184 316 LINE"
);
},
{
closed = 1;
nodes = (
"204 0 LINE",
"204 734 LINE",
"106 734 LINE",
"106 0 LINE"
);
}
);
};
layerId = "445E0A7C-B12F-48FD-B0B3-D474C1FC2A30";
paths = (
{
closed = 1;
nodes = (
"204 0 LINE",
"204 734 LINE",
"106 734 LINE",
"106 0 LINE"
);
},
{
closed = 1;
nodes = (
"660 0 LINE",
"507 337 LINE",
"402 337 LINE",
"551 0 LINE"
);
},
{
closed = 1;
nodes = (
"391 313 LINE SMOOTH",
"553 313 OFFCURVE",
"634 390 OFFCURVE",
"634 516 CURVE SMOOTH",
"634 532 LINE SMOOTH",
"634 658 OFFCURVE",
"552 734 OFFCURVE",
"391 734 CURVE SMOOTH",
"184 734 LINE",
"184 648 LINE",
"410 648 LINE SMOOTH",
"493 648 OFFCURVE",
"534 600 OFFCURVE",
"534 524 CURVE SMOOTH",
"534 448 OFFCURVE",
"495 400 OFFCURVE",
"410 400 CURVE SMOOTH",
"184 400 LINE",
"184 313 LINE"
);
}
);
width = 710;
},
{
anchors = (
{
name = bottom;
position = "{381, 0}";
},
{
name = top;
position = "{364, 730}";
}
);
background = {
anchors = (
{
name = bottom;
position = "{378, 0}";
},
{
name = top;
position = "{361, 720}";
}
);
paths = (
{
closed = 1;
nodes = (
"409 248 LINE SMOOTH",
"570 248 OFFCURVE",
"690 318 OFFCURVE",
"690 478 CURVE SMOOTH",
"690 494 LINE SMOOTH",
"690 654 OFFCURVE",
"570 726 OFFCURVE",
"409 726 CURVE SMOOTH",
"239 726 LINE",
"239 566 LINE",
"414 566 LINE SMOOTH",
"471 566 OFFCURVE",
"502 535 OFFCURVE",
"502 478 CURVE SMOOTH",
"502 421 OFFCURVE",
"471 390 OFFCURVE",
"414 390 CURVE SMOOTH",
"239 390 LINE",
"239 248 LINE"
);
},
{
closed = 1;
nodes = (
"259 0 LINE",
"259 726 LINE",
"73 726 LINE",
"73 0 LINE"
);
},
{
closed = 1;
nodes = (
"707 0 LINE",
"565 299 LINE",
"362 299 LINE",
"500 0 LINE"
);
}
);
};
layerId = "7C8656A8-8591-4735-94A0-92D633732231";
paths = (
{
closed = 1;
nodes = (
"260 0 LINE",
"260 736 LINE",
"74 736 LINE",
"74 0 LINE"
);
},
{
closed = 1;
nodes = (
"713 0 LINE",
"569 304 LINE",
"366 304 LINE",
"506 0 LINE"
);
},
{
closed = 1;
nodes = (
"412 253 LINE SMOOTH",
"575 253 OFFCURVE",
"695 325 OFFCURVE",
"695 486 CURVE SMOOTH",
"695 502 LINE SMOOTH",
"695 663 OFFCURVE",
"574 736 OFFCURVE",
"412 736 CURVE SMOOTH",
"240 736 LINE",
"240 576 LINE",
"418 576 LINE SMOOTH",
"475 576 OFFCURVE",
"507 544 OFFCURVE",
"507 486 CURVE SMOOTH",
"507 428 OFFCURVE",
"476 396 OFFCURVE",
"418 396 CURVE SMOOTH",
"240 396 LINE",
"240 253 LINE"
);
}
);
width = 749;
},
{
anchors = (
{
name = bottom;
position = "{373, 0}";
},
{
name = top;
position = "{333, 730}";
}
);
background = {
paths = (
{
closed = 1;
nodes = (
"385 362 LINE SMOOTH",
"527 362 OFFCURVE",
"585 437 OFFCURVE",
"585 542 CURVE SMOOTH",
"585 552 LINE SMOOTH",
"585 657 OFFCURVE",
"527 732 OFFCURVE",
"385 732 CURVE SMOOTH",
"144 732 LINE",
"144 702 LINE",
"389 702 LINE SMOOTH",
"513 702 OFFCURVE",
"551 634 OFFCURVE",
"551 547 CURVE SMOOTH",
"551 460 OFFCURVE",
"513 392 OFFCURVE",
"389 392 CURVE SMOOTH",
"144 392 LINE",
"144 362 LINE"
);
},
{
closed = 1;
nodes = (
"162 0 LINE",
"162 732 LINE",
"130 732 LINE",
"130 0 LINE"
);
}
);
};
layerId = "C54A1B2C-2BC8-455F-8AA9-31AEAFF53136";
paths = (
{
closed = 1;
nodes = (
"162 0 LINE",
"162 732 LINE",
"130 732 LINE",
"130 0 LINE"
);
},
{
closed = 1;
nodes = (
"621 0 LINE",
"417 368 LINE",
"382 368 LINE",
"586 0 LINE"
);
},
{
closed = 1;
nodes = (
"393 358 LINE SMOOTH",
"531 358 OFFCURVE",
"591 433 OFFCURVE",
"591 540 CURVE SMOOTH",
"591 550 LINE SMOOTH",
"591 657 OFFCURVE",
"531 732 OFFCURVE",
"393 732 CURVE SMOOTH",
"144 732 LINE",
"144 702 LINE",
"395 702 LINE SMOOTH",
"516 702 OFFCURVE",
"559 636 OFFCURVE",
"559 545 CURVE SMOOTH",
"559 454 OFFCURVE",
"516 388 OFFCURVE",
"395 388 CURVE SMOOTH",
"144 388 LINE",
"144 358 LINE"
);
}
);
width = 683;
}
);
leftKerningGroup = UC_Stem;
leftMetricsKey = H;
rightKerningGroup = UC_Rsalt;
},
{
color = 7;
glyphname = a;
lastChange = "2020-04-20 16:53:19 +0000";
layers = (
{
anchors = (
{
name = ogonek;
position = "{491, 10}";
},
{
name = top;
position = "{279, 534}";
}
);
background = {
paths = (
{
closed = 0;
nodes = (
"260 62 LINE SMOOTH",
"183 62 OFFCURVE",
"140 101 OFFCURVE",
"140 160 CURVE SMOOTH"
);
}
);
};
layerId = "445E0A7C-B12F-48FD-B0B3-D474C1FC2A30";
paths = (
{
closed = 1;
nodes = (
"491 0 LINE",
"491 338 LINE SMOOTH",
"491 487 OFFCURVE",
"419 540 OFFCURVE",
"255 540 CURVE SMOOTH",
"207 540 OFFCURVE",
"151 538 OFFCURVE",
"108 534 CURVE",
"108 450 LINE",
"152 453 OFFCURVE",
"225 456 OFFCURVE",
"287 456 CURVE SMOOTH",
"360 456 OFFCURVE",
"399 418 OFFCURVE",
"399 345 CURVE SMOOTH",
"399 160 LINE",
"415 160 LINE",
"415 0 LINE"
);
},
{
closed = 1;
nodes = (
"352 -14 OFFCURVE",
"415 46 OFFCURVE",
"425 160 CURVE",
"399 198 LINE",
"395 94 OFFCURVE",
"327 62 OFFCURVE",
"260 62 CURVE SMOOTH",
"183 62 OFFCURVE",
"140 101 OFFCURVE",
"140 160 CURVE SMOOTH",
"140 219 OFFCURVE",
"183 260 OFFCURVE",
"260 260 CURVE SMOOTH",
"409 260 LINE",
"409 332 LINE",
"264 332 LINE SMOOTH",
"125 332 OFFCURVE",
"46 273 OFFCURVE",
"46 160 CURVE SMOOTH",
"46 49 OFFCURVE",
"119 -14 OFFCURVE",
"240 -14 CURVE SMOOTH"
);
}
);
width = 575;
},
{
anchors = (
{
name = ogonek;
position = "{538, 10}";
},
{
name = top;
position = "{294, 552}";
}
);
layerId = "7C8656A8-8591-4735-94A0-92D633732231";
paths = (
{
closed = 1;
nodes = (
"544 0 LINE",
"544 335 LINE SMOOTH",
"544 488 OFFCURVE",
"447 562 OFFCURVE",
"277 562 CURVE SMOOTH",
"217 562 OFFCURVE",
"134 558 OFFCURVE",
"86 554 CURVE",
"86 402 LINE",
"153 406 OFFCURVE",
"256 410 OFFCURVE",
"295 410 CURVE SMOOTH",
"348 410 OFFCURVE",
"370 386 OFFCURVE",
"370 335 CURVE SMOOTH",
"370 162 LINE",
"400 162 LINE",
"400 0 LINE"
);
},
{
closed = 1;
nodes = (
"340 -14 OFFCURVE",
"402 50 OFFCURVE",
"412 164 CURVE",
"370 204 LINE",
"366 130 OFFCURVE",
"330 108 OFFCURVE",
"283 108 CURVE SMOOTH",
"233 108 OFFCURVE",
"206 135 OFFCURVE",
"206 175 CURVE SMOOTH",
"206 216 OFFCURVE",
"234 243 OFFCURVE",
"283 243 CURVE SMOOTH",
"390 243 LINE",
"390 337 LINE",
"283 337 LINE SMOOTH",
"133 337 OFFCURVE",
"26 286 OFFCURVE",
"26 162 CURVE SMOOTH",
"26 51 OFFCURVE",
"108 -14 OFFCURVE",
"225 -14 CURVE SMOOTH"
);
}
);
width = 600;
},
{
anchors = (
{
name = ogonek;
position = "{454, 10}";
},
{
name = top;
position = "{273, 521}";
}
);
layerId = "C54A1B2C-2BC8-455F-8AA9-31AEAFF53136";
paths = (
{
closed = 1;
nodes = (
"454 0 LINE",
"454 344 LINE SMOOTH",
"454 461 OFFCURVE",
"404 525 OFFCURVE",
"249 525 CURVE SMOOTH",
"209 525 OFFCURVE",
"163 521 OFFCURVE",
"124 515 CURVE",
"124 485 LINE",
"162 491 OFFCURVE",
"212 495 OFFCURVE",
"265 495 CURVE SMOOTH",
"380 495 OFFCURVE",
"422 441 OFFCURVE",
"422 352 CURVE SMOOTH",
"422 156 LINE",
"428 156 LINE",
"428 0 LINE"
);
},
{
closed = 1;
nodes = (
"344 -14 OFFCURVE",
"433 46 OFFCURVE",
"438 172 CURVE",
"422 188 LINE",
"418 57 OFFCURVE",
"326 14 OFFCURVE",
"243 14 CURVE SMOOTH",
"156 14 OFFCURVE",
"92 63 OFFCURVE",
"92 146 CURVE SMOOTH",
"92 223 OFFCURVE",
"145 274 OFFCURVE",
"243 274 CURVE SMOOTH",
"424 274 LINE",
"424 302 LINE",
"249 302 LINE SMOOTH",
"129 302 OFFCURVE",
"60 241 OFFCURVE",
"60 147 CURVE SMOOTH",
"60 43 OFFCURVE",
"142 -14 OFFCURVE",
"241 -14 CURVE SMOOTH"
);
}
);
width = 556;
}
);
leftKerningGroup = lc_a;
rightKerningGroup = lc_a;
rightMetricsKey = n;
unicode = 0061;
},
{
color = 7;
glyphname = ae;
lastChange = "2019-06-04 19:41:53 +0000";
layers = (
{
background = {
paths = (
{
closed = 1;
nodes = (
"491 160 LINE",
"491 338 LINE SMOOTH",
"491 487 OFFCURVE",
"419 540 OFFCURVE",
"255 540 CURVE SMOOTH",
"207 540 OFFCURVE",
"151 538 OFFCURVE",
"108 534 CURVE",
"108 450 LINE",
"152 453 OFFCURVE",
"226 456 OFFCURVE",
"288 456 CURVE SMOOTH",
"361 456 OFFCURVE",
"399 418 OFFCURVE",
"399 345 CURVE SMOOTH",
"399 160 LINE"
);
},
{
closed = 1;
nodes = (
"352 -14 OFFCURVE",
"415 46 OFFCURVE",
"425 160 CURVE",
"399 198 LINE",
"395 94 OFFCURVE",
"327 62 OFFCURVE",
"260 62 CURVE SMOOTH",
"183 62 OFFCURVE",
"140 101 OFFCURVE",
"140 160 CURVE SMOOTH",
"140 219 OFFCURVE",
"183 260 OFFCURVE",
"260 260 CURVE SMOOTH",
"409 260 LINE",
"409 332 LINE",
"264 332 LINE SMOOTH",
"125 332 OFFCURVE",
"46 273 OFFCURVE",
"46 160 CURVE SMOOTH",
"46 49 OFFCURVE",
"119 -14 OFFCURVE",
"240 -14 CURVE SMOOTH"
);
},
{
closed = 1;
nodes = (
"800 -20 OFFCURVE",
"883 43 OFFCURVE",
"906 156 CURVE",
"816 156 LINE",
"805 106 OFFCURVE",
"750 66 OFFCURVE",
"666 66 CURVE SMOOTH",
"545 66 OFFCURVE",
"491 153 OFFCURVE",
"491 267 CURVE SMOOTH",
"491 384 OFFCURVE",
"547 468 OFFCURVE",
"660 468 CURVE SMOOTH",
"767 468 OFFCURVE",
"823 395 OFFCURVE",
"823 282 CURVE",
"845 321 LINE",
"441 321 LINE",
"441 249 LINE",
"915 249 LINE",
"915 292 LINE SMOOTH",
"915 426 OFFCURVE",
"835 554 OFFCURVE",
"660 554 CURVE SMOOTH",
"479 554 OFFCURVE",
"399 415 OFFCURVE",
"399 277 CURVE SMOOTH",
"399 257 LINE SMOOTH",
"399 127 OFFCURVE",
"473 -20 OFFCURVE",
"666 -20 CURVE SMOOTH"
);
}
);
};
guideLines = (
{
position = "{435, 160}";
}
);
layerId = "445E0A7C-B12F-48FD-B0B3-D474C1FC2A30";
paths = (
{
closed = 1;
nodes = (
"789 -18 OFFCURVE",
"879 47 OFFCURVE",
"902 158 CURVE",
"812 158 LINE",
"801 108 OFFCURVE",
"746 68 OFFCURVE",
"663 68 CURVE SMOOTH",
"543 68 OFFCURVE",
"489 152 OFFCURVE",
"489 266 CURVE SMOOTH",
"489 383 OFFCURVE",
"545 464 OFFCURVE",
"657 464 CURVE SMOOTH",
"763 464 OFFCURVE",
"819 394 OFFCURVE",
"819 281 CURVE",
"841 321 LINE",
"479 321 LINE",
"479 249 LINE",
"911 249 LINE",
"911 291 LINE SMOOTH",
"911 424 OFFCURVE",
"827 550 OFFCURVE",
"657 550 CURVE SMOOTH",
"506 550 OFFCURVE",
"433 455 OFFCURVE",
"413 338 CURVE",
"479 338 LINE",
"479 489 OFFCURVE",
"417 540 OFFCURVE",
"255 540 CURVE SMOOTH",
"207 540 OFFCURVE",
"151 538 OFFCURVE",
"108 534 CURVE",
"108 450 LINE",
"152 453 OFFCURVE",
"226 456 OFFCURVE",
"288 456 CURVE SMOOTH",
"361 456 OFFCURVE",
"399 418 OFFCURVE",
"399 345 CURVE SMOOTH",
"399 198 LINE SMOOTH",
"395 94 OFFCURVE",
"327 62 OFFCURVE",
"260 62 CURVE SMOOTH",
"183 62 OFFCURVE",
"140 101 OFFCURVE",
"140 160 CURVE SMOOTH",
"140 219 OFFCURVE",
"183 260 OFFCURVE",
"260 260 CURVE SMOOTH",
"409 260 LINE",
"409 332 LINE",
"264 332 LINE SMOOTH",
"125 332 OFFCURVE",
"46 273 OFFCURVE",
"46 160 CURVE SMOOTH",
"46 49 OFFCURVE",
"119 -14 OFFCURVE",
"240 -14 CURVE SMOOTH",
"355 -14 OFFCURVE",
"433 44 OFFCURVE",
"443 160 CURVE",
"417 160 LINE",
"446 62 OFFCURVE",
"519 -18 OFFCURVE",
"663 -18 CURVE SMOOTH"
);
}
);
width = 955;
},
{
background = {
paths = (
{
closed = 1;
nodes = (
"544 0 LINE",
"544 335 LINE SMOOTH",
"544 488 OFFCURVE",
"447 562 OFFCURVE",
"277 562 CURVE SMOOTH",
"217 562 OFFCURVE",
"134 558 OFFCURVE",
"86 554 CURVE",
"86 402 LINE",
"153 406 OFFCURVE",
"256 410 OFFCURVE",
"295 410 CURVE SMOOTH",
"348 410 OFFCURVE",
"370 386 OFFCURVE",
"370 335 CURVE SMOOTH",
"370 162 LINE",
"400 162 LINE",
"400 0 LINE"
);
},
{
closed = 1;
nodes = (
"340 -14 OFFCURVE",
"402 50 OFFCURVE",
"412 164 CURVE",
"370 204 LINE",
"366 130 OFFCURVE",
"330 108 OFFCURVE",
"283 108 CURVE SMOOTH",
"233 108 OFFCURVE",
"206 135 OFFCURVE",
"206 175 CURVE SMOOTH",
"206 216 OFFCURVE",
"234 243 OFFCURVE",
"283 243 CURVE SMOOTH",
"390 243 LINE",
"390 337 LINE",
"283 337 LINE SMOOTH",
"133 337 OFFCURVE",
"26 286 OFFCURVE",
"26 162 CURVE SMOOTH",
"26 51 OFFCURVE",
"108 -14 OFFCURVE",
"225 -14 CURVE SMOOTH"
);
},
{
closed = 1;
nodes = (
"806 -20 OFFCURVE",
"904 61 OFFCURVE",
"928 174 CURVE",
"762 174 LINE",
"749 144 OFFCURVE",
"715 126 OFFCURVE",
"665 126 CURVE SMOOTH",
"579 126 OFFCURVE",
"542 182 OFFCURVE",
"542 273 CURVE SMOOTH",
"542 373 OFFCURVE",
"586 422 OFFCURVE",
"659 422 CURVE SMOOTH",
"732 422 OFFCURVE",
"770 373 OFFCURVE",
"770 280 CURVE",
"833 322 LINE",
"450 322 LINE",
"450 228 LINE",
"938 228 LINE",
"938 282 LINE SMOOTH",
"938 434 OFFCURVE",
"836 568 OFFCURVE",
"659 568 CURVE SMOOTH",
"480 568 OFFCURVE",
"374 432 OFFCURVE",
"374 284 CURVE SMOOTH",
"374 264 LINE SMOOTH",
"374 122 OFFCURVE",
"479 -20 OFFCURVE",
"665 -20 CURVE SMOOTH"
);
}
);
};
guideLines = (
{
position = "{435, 160}";
}
);
layerId = "7C8656A8-8591-4735-94A0-92D633732231";
paths = (
{
closed = 1;
nodes = (
"795 -20 OFFCURVE",
"894 61 OFFCURVE",
"918 174 CURVE",
"752 174 LINE",
"739 144 OFFCURVE",
"704 126 OFFCURVE",
"655 126 CURVE SMOOTH",
"568 126 OFFCURVE",
"532 182 OFFCURVE",
"532 273 CURVE SMOOTH",
"532 373 OFFCURVE",
"576 424 OFFCURVE",
"649 424 CURVE SMOOTH",
"722 424 OFFCURVE",
"760 373 OFFCURVE",
"760 280 CURVE",
"823 321 LINE",
"514 321 LINE",
"514 227 LINE",
"928 227 LINE",
"928 282 LINE SMOOTH",
"928 434 OFFCURVE",
"828 570 OFFCURVE",
"653 570 CURVE SMOOTH",
"498 570 OFFCURVE",
"425 462 OFFCURVE",
"404 342 CURVE",
"516 342 LINE",
"512 481 OFFCURVE",
"441 561 OFFCURVE",
"275 561 CURVE SMOOTH",
"215 561 OFFCURVE",
"134 557 OFFCURVE",
"86 553 CURVE",
"86 401 LINE",
"153 405 OFFCURVE",
"256 409 OFFCURVE",
"295 409 CURVE SMOOTH",
"348 409 OFFCURVE",
"370 385 OFFCURVE",
"370 334 CURVE SMOOTH",
"370 208 LINE SMOOTH",
"370 132 OFFCURVE",
"330 107 OFFCURVE",
"283 107 CURVE SMOOTH",
"233 107 OFFCURVE",
"206 134 OFFCURVE",
"206 174 CURVE SMOOTH",
"206 215 OFFCURVE",
"234 242 OFFCURVE",
"283 242 CURVE SMOOTH",
"390 242 LINE",
"390 336 LINE",
"283 336 LINE SMOOTH",
"133 336 OFFCURVE",
"26 285 OFFCURVE",
"26 161 CURVE SMOOTH",
"26 50 OFFCURVE",
"110 -15 OFFCURVE",
"232 -15 CURVE SMOOTH",
"352 -15 OFFCURVE",
"446 50 OFFCURVE",
"456 165 CURVE",
"404 165 LINE",
"432 70 OFFCURVE",
"511 -20 OFFCURVE",
"657 -20 CURVE SMOOTH"
);
}
);
width = 958;
},
{
background = {
paths = (
{
closed = 1;
nodes = (
"794 -16 OFFCURVE",
"873 52 OFFCURVE",
"894 146 CURVE",
"862 146 LINE",
"846 73 OFFCURVE",
"778 14 OFFCURVE",
"670 14 CURVE SMOOTH",
"519 14 OFFCURVE",
"448 131 OFFCURVE",
"448 263 CURVE SMOOTH",
"448 392 OFFCURVE",
"522 506 OFFCURVE",
"664 506 CURVE SMOOTH",
"795 506 OFFCURVE",
"872 407 OFFCURVE",
"872 281 CURVE",
"885 291 LINE",
"435 291 LINE",
"435 261 LINE",
"902 261 LINE",
"902 293 LINE SMOOTH",
"902 417 OFFCURVE",
"815 536 OFFCURVE",
"664 536 CURVE SMOOTH",
"533 536 OFFCURVE",
"455 449 OFFCURVE",
"431 344 CURVE",
"448 344 LINE",
"448 461 OFFCURVE",
"403 525 OFFCURVE",
"247 525 CURVE SMOOTH",
"208 525 OFFCURVE",
"163 521 OFFCURVE",
"124 515 CURVE",
"124 485 LINE",
"162 491 OFFCURVE",
"210 495 OFFCURVE",
"267 495 CURVE SMOOTH",
"378 495 OFFCURVE",
"418 441 OFFCURVE",
"418 352 CURVE SMOOTH",
"418 188 LINE SMOOTH",
"414 57 OFFCURVE",
"324 14 OFFCURVE",
"241 14 CURVE SMOOTH",
"154 14 OFFCURVE",
"92 63 OFFCURVE",
"92 146 CURVE SMOOTH",
"92 223 OFFCURVE",
"143 272 OFFCURVE",
"241 272 CURVE SMOOTH",
"420 272 LINE",
"420 300 LINE",
"247 300 LINE SMOOTH",
"127 300 OFFCURVE",
"60 241 OFFCURVE",
"60 147 CURVE SMOOTH",
"60 43 OFFCURVE",
"140 -14 OFFCURVE",
"239 -14 CURVE SMOOTH",
"342 -14 OFFCURVE",
"438 44 OFFCURVE",
"442 182 CURVE",
"429 182 LINE",
"455 75 OFFCURVE",
"531 -16 OFFCURVE",
"670 -16 CURVE SMOOTH"
);
}
);
};
layerId = "C54A1B2C-2BC8-455F-8AA9-31AEAFF53136";
paths = (
{
closed = 1;
nodes = (
"794 -16 OFFCURVE",
"873 52 OFFCURVE",
"894 146 CURVE",
"862 146 LINE",
"846 73 OFFCURVE",
"778 14 OFFCURVE",
"670 14 CURVE SMOOTH",
"519 14 OFFCURVE",
"448 131 OFFCURVE",
"448 263 CURVE SMOOTH",
"448 392 OFFCURVE",
"522 506 OFFCURVE",
"664 506 CURVE SMOOTH",
"795 506 OFFCURVE",
"872 407 OFFCURVE",
"872 281 CURVE",
"885 291 LINE",
"435 291 LINE",
"435 261 LINE",
"902 261 LINE",
"902 293 LINE SMOOTH",
"902 417 OFFCURVE",
"815 536 OFFCURVE",
"664 536 CURVE SMOOTH",
"533 536 OFFCURVE",
"455 449 OFFCURVE",
"431 344 CURVE",
"448 344 LINE",
"448 461 OFFCURVE",
"403 525 OFFCURVE",
"247 525 CURVE SMOOTH",
"208 525 OFFCURVE",
"163 521 OFFCURVE",
"124 515 CURVE",
"124 485 LINE",
"162 491 OFFCURVE",
"210 495 OFFCURVE",
"267 495 CURVE SMOOTH",
"378 495 OFFCURVE",
"418 441 OFFCURVE",
"418 352 CURVE SMOOTH",
"418 188 LINE SMOOTH",
"414 57 OFFCURVE",
"324 14 OFFCURVE",
"241 14 CURVE SMOOTH",
"154 14 OFFCURVE",
"92 63 OFFCURVE",
"92 146 CURVE SMOOTH",
"92 223 OFFCURVE",
"143 272 OFFCURVE",
"241 272 CURVE SMOOTH",
"420 272 LINE",
"420 300 LINE",
"247 300 LINE SMOOTH",
"127 300 OFFCURVE",
"60 241 OFFCURVE",
"60 147 CURVE SMOOTH",
"60 43 OFFCURVE",
"140 -14 OFFCURVE",
"239 -14 CURVE SMOOTH",
"342 -14 OFFCURVE",
"438 44 OFFCURVE",
"442 182 CURVE",
"429 182 LINE",
"450 95 OFFCURVE",
"513 -16 OFFCURVE",
"670 -16 CURVE SMOOTH"
);
}
);
width = 954;
}
);
leftKerningGroup = lc_a;
leftMetricsKey = a;
rightKerningGroup = lc_e;
rightMetricsKey = e;
unicode = 00E6;
},
{
color = 7;
glyphname = b;
lastChange = "2019-06-04 19:42:11 +0000";
layers = (
{
background = {
paths = (
{
closed = 1;
nodes = (
"188 0 LINE",
"188 308 LINE SMOOTH",
"188 400 OFFCURVE",
"243 462 OFFCURVE",
"329 462 CURVE SMOOTH",
"406 462 OFFCURVE",
"460 412 OFFCURVE",
"460 325 CURVE SMOOTH",
"460 0 LINE",
"556 0 LINE",
"556 305 LINE SMOOTH",
"556 462 OFFCURVE",
"490 550 OFFCURVE",
"362 550 CURVE SMOOTH",
"358 550 LINE SMOOTH",
"223 550 OFFCURVE",
"164 452 OFFCURVE",
"164 294 CURVE",
"188 294 LINE",
"188 730 LINE",
"92 730 LINE",
"92 0 LINE"
);
}
);
};
layerId = "445E0A7C-B12F-48FD-B0B3-D474C1FC2A30";
paths = (
{
closed = 1;
nodes = (
"532 -18 OFFCURVE",
"637 109 OFFCURVE",
"637 260 CURVE SMOOTH",
"637 278 LINE SMOOTH",
"637 429 OFFCURVE",
"535 552 OFFCURVE",
"382 552 CURVE SMOOTH",
"260 552 OFFCURVE",
"161 475 OFFCURVE",
"154 302 CURVE",
"188 375 LINE",
"188 730 LINE",
"92 730 LINE",
"92 0 LINE",
"168 0 LINE",
"168 229 LINE",
"142 229 LINE",
"148 72 OFFCURVE",
"241 -18 OFFCURVE",
"374 -18 CURVE SMOOTH"
);
},
{
closed = 1;
nodes = (
"268 66 OFFCURVE",
"184 131 OFFCURVE",
"184 241 CURVE SMOOTH",
"184 287 LINE SMOOTH",
"184 400 OFFCURVE",
"266 468 OFFCURVE",
"363 468 CURVE SMOOTH",
"469 468 OFFCURVE",
"541 389 OFFCURVE",
"541 269 CURVE SMOOTH",
"541 149 OFFCURVE",
"470 66 OFFCURVE",
"363 66 CURVE SMOOTH"
);
}
);
width = 689;
},
{
background = {
paths = (
{
closed = 1;
nodes = (
"579 -18 OFFCURVE",
"674 101 OFFCURVE",
"674 263 CURVE SMOOTH",
"674 287 LINE SMOOTH",
"674 449 OFFCURVE",
"580 564 OFFCURVE",
"431 564 CURVE SMOOTH",
"300 564 OFFCURVE",
"214 474 OFFCURVE",
"208 312 CURVE",
"248 352 LINE",
"248 720 LINE",
"66 720 LINE",
"66 0 LINE",
"210 0 LINE",
"210 222 LINE",
"194 222 LINE",
"198 66 OFFCURVE",
"286 -18 OFFCURVE",
"422 -18 CURVE SMOOTH"
);
},
{
closed = 1;
nodes = (
"309 132 OFFCURVE",
"244 175 OFFCURVE",
"244 253 CURVE SMOOTH",
"244 287 LINE SMOOTH",
"244 369 OFFCURVE",
"304 414 OFFCURVE",
"370 414 CURVE SMOOTH",
"443 414 OFFCURVE",
"492 360 OFFCURVE",
"492 275 CURVE SMOOTH",
"492 190 OFFCURVE",
"442 132 OFFCURVE",
"370 132 CURVE SMOOTH"
);
}
);
};
layerId = "7C8656A8-8591-4735-94A0-92D633732231";
paths = (
{
closed = 1;
nodes = (
"579 -18 OFFCURVE",
"674 103 OFFCURVE",
"674 265 CURVE SMOOTH",
"674 289 LINE SMOOTH",
"674 451 OFFCURVE",
"580 568 OFFCURVE",
"431 568 CURVE SMOOTH",
"300 568 OFFCURVE",
"214 476 OFFCURVE",
"208 314 CURVE",
"248 354 LINE",
"248 730 LINE",
"66 730 LINE",
"66 0 LINE",
"210 0 LINE",
"210 224 LINE",
"194 224 LINE",
"198 68 OFFCURVE",
"286 -18 OFFCURVE",
"422 -18 CURVE SMOOTH"
);
},
{
closed = 1;
nodes = (
"309 132 OFFCURVE",
"244 177 OFFCURVE",
"244 255 CURVE SMOOTH",
"244 289 LINE SMOOTH",
"244 371 OFFCURVE",
"304 418 OFFCURVE",
"370 418 CURVE SMOOTH",
"443 418 OFFCURVE",
"492 362 OFFCURVE",
"492 277 CURVE SMOOTH",
"492 192 OFFCURVE",
"442 132 OFFCURVE",
"370 132 CURVE SMOOTH"
);
}
);
width = 708;
},
{
layerId = "C54A1B2C-2BC8-455F-8AA9-31AEAFF53136";
paths = (
{
closed = 1;
nodes = (
"526 -16 OFFCURVE",
"612 127 OFFCURVE",
"612 257 CURVE SMOOTH",
"612 263 LINE SMOOTH",
"612 401 OFFCURVE",
"522 536 OFFCURVE",
"361 536 CURVE SMOOTH",
"211 536 OFFCURVE",
"120 424 OFFCURVE",
"120 289 CURVE",
"140 346 LINE",
"140 730 LINE",
"108 730 LINE",
"108 0 LINE",
"134 0 LINE",
"134 231 LINE",
"118 231 LINE",
"118 104 OFFCURVE",
"208 -16 OFFCURVE",
"361 -16 CURVE SMOOTH"
);
},
{
closed = 1;
nodes = (
"223 14 OFFCURVE",
"138 117 OFFCURVE",
"138 233 CURVE SMOOTH",
"138 287 LINE SMOOTH",
"138 411 OFFCURVE",
"227 506 OFFCURVE",
"359 506 CURVE SMOOTH",
"499 506 OFFCURVE",
"580 392 OFFCURVE",
"580 260 CURVE SMOOTH",
"580 136 OFFCURVE",
"503 14 OFFCURVE",
"359 14 CURVE SMOOTH"
);
}
);
width = 674;
}
);
leftKerningGroup = lc_LongStem;
leftMetricsKey = h;
rightKerningGroup = lc_Round;
rightMetricsKey = o;
unicode = 0062;
},
{
color = 7;
glyphname = c;
lastChange = "2019-06-04 21:20:57 +0000";
layers = (
{
anchors = (
{
name = bottom;
position = "{317, 0}";
},
{
name = top;
position = "{319, 534}";
}
);
background = {
paths = (
{
closed = 1;
nodes = (
"526 -18 OFFCURVE",
"624 121 OFFCURVE",
"624 258 CURVE SMOOTH",
"624 276 LINE SMOOTH",
"624 419 OFFCURVE",
"519 552 OFFCURVE",
"338 552 CURVE SMOOTH",
"157 552 OFFCURVE",
"52 419 OFFCURVE",
"52 276 CURVE SMOOTH",
"52 258 LINE SMOOTH",
"52 121 OFFCURVE",
"150 -18 OFFCURVE",
"338 -18 CURVE SMOOTH"
);
},
{
closed = 1;
nodes = (
"218 68 OFFCURVE",
"148 155 OFFCURVE",
"148 267 CURVE SMOOTH",
"148 381 OFFCURVE",
"221 466 OFFCURVE",
"338 466 CURVE SMOOTH",
"455 466 OFFCURVE",
"528 381 OFFCURVE",
"528 267 CURVE SMOOTH",
"528 155 OFFCURVE",
"458 68 OFFCURVE",
"338 68 CURVE SMOOTH"
);
}
);
};
layerId = "445E0A7C-B12F-48FD-B0B3-D474C1FC2A30";
paths = (
{
closed = 1;
nodes = (
"456 -18 OFFCURVE",
"561 62 OFFCURVE",
"568 188 CURVE",
"476 188 LINE",
"468 120 OFFCURVE",
"410 68 OFFCURVE",
"321 68 CURVE SMOOTH",
"204 68 OFFCURVE",
"148 156 OFFCURVE",
"148 267 CURVE SMOOTH",
"148 381 OFFCURVE",
"204 466 OFFCURVE",
"319 466 CURVE SMOOTH",
"407 466 OFFCURVE",
"460 416 OFFCURVE",
"470 349 CURVE",
"562 349 LINE",
"553 473 OFFCURVE",
"453 552 OFFCURVE",
"319 552 CURVE SMOOTH",
"140 552 OFFCURVE",
"52 411 OFFCURVE",
"52 276 CURVE SMOOTH",
"52 258 LINE SMOOTH",
"52 126 OFFCURVE",
"138 -18 OFFCURVE",
"321 -18 CURVE SMOOTH"
);
}
);
width = 606;
},
{
anchors = (
{
name = bottom;
position = "{320, 0}";
},
{
name = top;
position = "{318, 552}";
}
);
background = {
paths = (
{
closed = 1;
nodes = (
"467 -18 OFFCURVE",
"579 76 OFFCURVE",
"587 215 CURVE",
"411 215 LINE",
"405 165 OFFCURVE",
"375 134 OFFCURVE",
"318 134 CURVE SMOOTH",
"241 134 OFFCURVE",
"213 190 OFFCURVE",
"213 273 CURVE SMOOTH",
"213 360 OFFCURVE",
"247 416 OFFCURVE",
"318 416 CURVE SMOOTH",
"373 416 OFFCURVE",
"403 383 OFFCURVE",
"407 340 CURVE",
"583 340 LINE",
"575 475 OFFCURVE",
"467 568 OFFCURVE",
"318 568 CURVE SMOOTH",
"136 568 OFFCURVE",
"35 435 OFFCURVE",
"35 283 CURVE SMOOTH",
"35 263 LINE SMOOTH",
"35 119 OFFCURVE",
"129 -18 OFFCURVE",
"318 -18 CURVE SMOOTH"
);
}
);
};
layerId = "7C8656A8-8591-4735-94A0-92D633732231";
paths = (
{
closed = 1;
nodes = (
"469 -20 OFFCURVE",
"579 76 OFFCURVE",
"587 216 CURVE",
"409 216 LINE",
"403 165 OFFCURVE",
"374 134 OFFCURVE",
"318 134 CURVE SMOOTH",
"242 134 OFFCURVE",
"216 191 OFFCURVE",
"216 274 CURVE SMOOTH",
"216 361 OFFCURVE",
"248 418 OFFCURVE",
"318 418 CURVE SMOOTH",
"372 418 OFFCURVE",
"401 383 OFFCURVE",
"405 339 CURVE",
"583 339 LINE",
"575 475 OFFCURVE",
"469 572 OFFCURVE",
"318 572 CURVE SMOOTH",
"134 572 OFFCURVE",
"34 438 OFFCURVE",
"34 284 CURVE SMOOTH",
"34 264 LINE SMOOTH",
"34 118 OFFCURVE",
"127 -20 OFFCURVE",
"318 -20 CURVE SMOOTH"
);
}
);
width = 613;
},
{
anchors = (
{
name = bottom;
position = "{313, 0}";
},
{
name = top;
position = "{317, 520}";
}
);
background = {
paths = (
{
closed = 1;
nodes = (
"498 -16 OFFCURVE",
"592 124 OFFCURVE",
"592 257 CURVE SMOOTH",
"592 263 LINE SMOOTH",
"592 404 OFFCURVE",
"494 536 OFFCURVE",
"327 536 CURVE SMOOTH",
"160 536 OFFCURVE",
"62 404 OFFCURVE",
"62 263 CURVE SMOOTH",
"62 257 LINE SMOOTH",
"62 124 OFFCURVE",
"156 -16 OFFCURVE",
"327 -16 CURVE SMOOTH"
);
},
{
closed = 1;
nodes = (
"176 14 OFFCURVE",
"94 134 OFFCURVE",
"94 260 CURVE SMOOTH",
"94 394 OFFCURVE",
"180 506 OFFCURVE",
"327 506 CURVE SMOOTH",
"474 506 OFFCURVE",
"560 394 OFFCURVE",
"560 260 CURVE SMOOTH",
"560 134 OFFCURVE",
"478 14 OFFCURVE",
"327 14 CURVE SMOOTH"
);
}
);
};
layerId = "C54A1B2C-2BC8-455F-8AA9-31AEAFF53136";
paths = (
{
closed = 1;
nodes = (
"440 -16 OFFCURVE",
"538 59 OFFCURVE",
"554 168 CURVE",
"522 168 LINE",
"512 85 OFFCURVE",
"430 14 OFFCURVE",
"317 14 CURVE SMOOTH",
"169 14 OFFCURVE",
"94 134 OFFCURVE",
"94 263 CURVE SMOOTH",
"94 393 OFFCURVE",
"168 506 OFFCURVE",
"317 506 CURVE SMOOTH",
"430 506 OFFCURVE",
"499 443 OFFCURVE",
"514 356 CURVE",
"546 356 LINE",
"526 467 OFFCURVE",
"440 536 OFFCURVE",
"317 536 CURVE SMOOTH",
"148 536 OFFCURVE",
"62 403 OFFCURVE",
"62 266 CURVE SMOOTH",
"62 260 LINE SMOOTH",
"62 124 OFFCURVE",
"149 -16 OFFCURVE",
"317 -16 CURVE SMOOTH"
);
}
);
width = 600;
}
);
leftKerningGroup = lc_Round;
leftMetricsKey = o;
rightKerningGroup = lc_c;
unicode = 0063;
},
{
color = 7;
glyphname = d;
lastChange = "2019-05-31 21:34:42 +0000";
layers = (
{
anchors = (
{
name = bottom;
position = "{345, 0}";
},
{
name = center;
position = "{493, 643}";
},
{
name = top;
position = "{549, 730}";
},
{
name = topright;
position = "{597, 534}";
}
);
layerId = "445E0A7C-B12F-48FD-B0B3-D474C1FC2A30";
paths = (
{
closed = 1;
nodes = (
"433 -18 OFFCURVE",
"540 54 OFFCURVE",
"549 237 CURVE",
"521 237 LINE",
"521 0 LINE",
"597 0 LINE",
"597 730 LINE",
"501 730 LINE",
"501 371 LINE",
"541 307 LINE",
"532 478 OFFCURVE",
"433 552 OFFCURVE",
"312 552 CURVE SMOOTH",
"158 552 OFFCURVE",
"52 428 OFFCURVE",
"52 276 CURVE SMOOTH",
"52 258 LINE SMOOTH",
"52 104 OFFCURVE",
"163 -18 OFFCURVE",
"315 -18 CURVE SMOOTH"
);
},
{
closed = 1;
nodes = (
"223 66 OFFCURVE",
"148 144 OFFCURVE",
"148 267 CURVE SMOOTH",
"148 388 OFFCURVE",
"220 468 OFFCURVE",
"327 468 CURVE SMOOTH",
"422 468 OFFCURVE",
"505 405 OFFCURVE",
"505 295 CURVE SMOOTH",
"505 249 LINE SMOOTH",
"505 136 OFFCURVE",
"426 66 OFFCURVE",
"328 66 CURVE SMOOTH"
);
}
);
width = 689;
},
{
anchors = (
{
name = bottom;
position = "{317, 0}";
},
{
name = center;
position = "{510, 637}";
},
{
name = top;
position = "{553, 730}";
},
{
name = topright;
position = "{626, 534}";
}
);
background = {
anchors = (
{
name = bottom;
position = "{317, 0}";
},
{
name = center;
position = "{510, 632}";
},
{
name = top;
position = "{553, 720}";
},
{
name = topright;
position = "{626, 534}";
}
);
paths = (
{
closed = 1;
nodes = (
"429 -18 OFFCURVE",
"514 73 OFFCURVE",
"518 222 CURVE",
"498 222 LINE",
"498 0 LINE",
"642 0 LINE",
"642 720 LINE",
"460 720 LINE",
"460 346 LINE",
"502 315 LINE",
"498 475 OFFCURVE",
"421 564 OFFCURVE",
"287 564 CURVE SMOOTH",
"132 564 OFFCURVE",
"34 444 OFFCURVE",
"34 283 CURVE SMOOTH",
"34 259 LINE SMOOTH",
"34 98 OFFCURVE",
"139 -18 OFFCURVE",
"293 -18 CURVE SMOOTH"
);
},
{
closed = 1;
nodes = (
"269 132 OFFCURVE",
"216 185 OFFCURVE",
"216 271 CURVE SMOOTH",
"216 357 OFFCURVE",
"269 414 OFFCURVE",
"342 414 CURVE SMOOTH",
"405 414 OFFCURVE",
"464 372 OFFCURVE",
"464 293 CURVE SMOOTH",
"464 259 LINE SMOOTH",
"464 176 OFFCURVE",
"408 132 OFFCURVE",
"342 132 CURVE SMOOTH"
);
}
);
};
layerId = "7C8656A8-8591-4735-94A0-92D633732231";
paths = (
{
closed = 1;
nodes = (
"429 -18 OFFCURVE",
"514 75 OFFCURVE",
"518 224 CURVE",
"498 224 LINE",
"498 0 LINE",
"642 0 LINE",
"642 730 LINE",
"460 730 LINE",
"460 348 LINE",
"502 317 LINE",
"498 477 OFFCURVE",
"421 568 OFFCURVE",
"287 568 CURVE SMOOTH",
"132 568 OFFCURVE",
"34 446 OFFCURVE",
"34 285 CURVE SMOOTH",
"34 261 LINE SMOOTH",
"34 100 OFFCURVE",
"139 -18 OFFCURVE",
"293 -18 CURVE SMOOTH"
);
},
{
closed = 1;
nodes = (
"269 132 OFFCURVE",
"216 187 OFFCURVE",
"216 273 CURVE SMOOTH",
"216 359 OFFCURVE",
"269 418 OFFCURVE",
"342 418 CURVE SMOOTH",
"405 418 OFFCURVE",
"464 374 OFFCURVE",
"464 295 CURVE SMOOTH",
"464 261 LINE SMOOTH",
"464 178 OFFCURVE",
"408 132 OFFCURVE",
"342 132 CURVE SMOOTH"
);
}
);
width = 708;
},
{
anchors = (
{
name = bottom;
position = "{368, 0}";
},
{
name = center;
position = "{484, 639}";
},
{
name = top;
position = "{548, 730}";
},
{
name = topright;
position = "{568, 534}";
}
);
layerId = "C54A1B2C-2BC8-455F-8AA9-31AEAFF53136";
paths = (
{
closed = 1;
nodes = (
"463 -16 OFFCURVE",
"556 96 OFFCURVE",
"556 231 CURVE",
"540 231 LINE",
"540 0 LINE",
"566 0 LINE",
"566 730 LINE",
"534 730 LINE",
"534 346 LINE",
"554 289 LINE",
"554 416 OFFCURVE",
"466 536 OFFCURVE",
"313 536 CURVE SMOOTH",
"148 536 OFFCURVE",
"62 393 OFFCURVE",
"62 263 CURVE SMOOTH",
"62 257 LINE SMOOTH",
"62 119 OFFCURVE",
"152 -16 OFFCURVE",
"313 -16 CURVE SMOOTH"
);
},
{
closed = 1;
nodes = (
"175 14 OFFCURVE",
"94 128 OFFCURVE",
"94 260 CURVE SMOOTH",
"94 384 OFFCURVE",
"171 506 OFFCURVE",
"315 506 CURVE SMOOTH",
"451 506 OFFCURVE",
"536 403 OFFCURVE",
"536 287 CURVE SMOOTH",
"536 233 LINE SMOOTH",
"536 109 OFFCURVE",
"447 14 OFFCURVE",
"315 14 CURVE SMOOTH"
);
}
);
width = 674;
}
);
leftKerningGroup = lc_Round;
leftMetricsKey = o;
widthMetricsKey = b;
rightKerningGroup = lc_LongStem;
unicode = 0064;
},
{
color = 7;
glyphname = eth;
lastChange = "2019-06-04 21:20:29 +0000";
layers = (
{
background = {
paths = (
{
closed = 1;
nodes = (
"520 -20 OFFCURVE",
"594 117 OFFCURVE",
"594 296 CURVE SMOOTH",
"594 322 LINE SMOOTH",
"594 604 OFFCURVE",
"509 725 OFFCURVE",
"298 725 CURVE SMOOTH",
"256 725 OFFCURVE",
"223 722 OFFCURVE",
"187 717 CURVE",
"187 641 LINE",
"223 646 OFFCURVE",
"258 649 OFFCURVE",
"298 649 CURVE SMOOTH",
"362 649 OFFCURVE",
"401 641 OFFCURVE",
"432 619 CURVE SMOOTH",
"491 577 OFFCURVE",
"508 493 OFFCURVE",
"510 355 CURVE",
"520 355 LINE",
"510 447 OFFCURVE",
"438 516 OFFCURVE",
"313 516 CURVE SMOOTH",
"140 516 OFFCURVE",
"52 392 OFFCURVE",
"52 260 CURVE SMOOTH",
"52 240 LINE SMOOTH",
"52 114 OFFCURVE",
"130 -20 OFFCURVE",
"325 -20 CURVE SMOOTH"
);
},
{
closed = 1;
nodes = (
"207 66 OFFCURVE",
"148 140 OFFCURVE",
"148 250 CURVE SMOOTH",
"148 362 OFFCURVE",
"208 434 OFFCURVE",
"323 434 CURVE SMOOTH",
"438 434 OFFCURVE",
"502 362 OFFCURVE",
"502 250 CURVE SMOOTH",
"502 140 OFFCURVE",
"443 66 OFFCURVE",
"325 66 CURVE SMOOTH"
);
},
{
closed = 1;
nodes = (
"591 728 LINE",
"557 770 LINE",
"327 578 LINE",
"361 536 LINE"
);
}
);
};
guideLines = (
{
angle = 180;
position = "{512, 364}";
}
);
layerId = "445E0A7C-B12F-48FD-B0B3-D474C1FC2A30";
paths = (
{
closed = 1;
nodes = (
"520 -20 OFFCURVE",
"594 117 OFFCURVE",
"594 296 CURVE SMOOTH",
"594 322 LINE SMOOTH",
"594 606 OFFCURVE",
"511 734 OFFCURVE",
"298 734 CURVE SMOOTH",
"256 734 OFFCURVE",
"223 731 OFFCURVE",
"187 726 CURVE",
"187 650 LINE",
"223 655 OFFCURVE",
"258 658 OFFCURVE",
"298 658 CURVE SMOOTH",
"363 658 OFFCURVE",
"401 645 OFFCURVE",
"432 623 CURVE SMOOTH",
"491 581 OFFCURVE",
"508 495 OFFCURVE",
"510 355 CURVE",
"520 355 LINE",
"510 447 OFFCURVE",
"438 516 OFFCURVE",
"313 516 CURVE SMOOTH",
"140 516 OFFCURVE",
"52 392 OFFCURVE",
"52 260 CURVE SMOOTH",
"52 240 LINE SMOOTH",
"52 114 OFFCURVE",
"130 -20 OFFCURVE",
"325 -20 CURVE SMOOTH"
);
},
{
closed = 1;
nodes = (
"207 66 OFFCURVE",
"148 140 OFFCURVE",
"148 250 CURVE SMOOTH",
"148 362 OFFCURVE",
"208 434 OFFCURVE",
"323 434 CURVE SMOOTH",
"438 434 OFFCURVE",
"502 362 OFFCURVE",
"502 250 CURVE SMOOTH",
"502 140 OFFCURVE",
"443 66 OFFCURVE",
"325 66 CURVE SMOOTH"
);
},
{
closed = 1;
nodes = (
"591 726 LINE",
"557 768 LINE",
"327 576 LINE",
"361 534 LINE"
);
}
);
width = 648;
},
{
background = {
paths = (
{
closed = 1;
nodes = (
"535 -18 OFFCURVE",
"646 109 OFFCURVE",
"646 332 CURVE SMOOTH",
"646 358 LINE SMOOTH",
"646 607 OFFCURVE",
"541 750 OFFCURVE",
"299 750 CURVE SMOOTH",
"258 750 OFFCURVE",
"211 746 OFFCURVE",
"165 738 CURVE",
"165 602 LINE",
"211 609 OFFCURVE",
"258 614 OFFCURVE",
"300 614 CURVE SMOOTH",
"353 614 OFFCURVE",
"400 605 OFFCURVE",
"427 585 CURVE SMOOTH",
"464 557 OFFCURVE",
"500 485 OFFCURVE",
"502 359 CURVE",
"514 359 LINE",
"499 454 OFFCURVE",
"402 506 OFFCURVE",
"295 506 CURVE SMOOTH",
"153 506 OFFCURVE",
"34 415 OFFCURVE",
"34 260 CURVE SMOOTH",
"34 244 LINE SMOOTH",
"34 96 OFFCURVE",
"153 -18 OFFCURVE",
"342 -18 CURVE SMOOTH"
);
},
{
closed = 1;
nodes = (
"265 134 OFFCURVE",
"216 176 OFFCURVE",
"216 252 CURVE SMOOTH",
"216 330 OFFCURVE",
"268 374 OFFCURVE",
"343 374 CURVE SMOOTH",
"418 374 OFFCURVE",
"470 330 OFFCURVE",
"470 252 CURVE SMOOTH",
"470 176 OFFCURVE",
"421 134 OFFCURVE",
"343 134 CURVE SMOOTH"
);
},
{
closed = 1;
nodes = (
"617 733 LINE",
"554 797 LINE",
"325 568 LINE",
"388 504 LINE"
);
}
);
};
guideLines = (
{
angle = 180;
position = "{516, 364}";
}
);
layerId = "7C8656A8-8591-4735-94A0-92D633732231";
paths = (
{
closed = 1;
nodes = (
"535 -18 OFFCURVE",
"646 109 OFFCURVE",
"646 332 CURVE SMOOTH",
"646 358 LINE SMOOTH",
"646 608 OFFCURVE",
"543 752 OFFCURVE",
"299 752 CURVE SMOOTH",
"258 752 OFFCURVE",
"210 748 OFFCURVE",
"165 740 CURVE",
"165 604 LINE",
"209 611 OFFCURVE",
"256 616 OFFCURVE",
"300 616 CURVE SMOOTH",
"354 616 OFFCURVE",
"400 606 OFFCURVE",
"427 586 CURVE SMOOTH",
"464 558 OFFCURVE",
"500 487 OFFCURVE",
"502 359 CURVE",
"514 359 LINE",
"499 454 OFFCURVE",
"402 506 OFFCURVE",
"295 506 CURVE SMOOTH",
"153 506 OFFCURVE",
"34 415 OFFCURVE",
"34 260 CURVE SMOOTH",
"34 244 LINE SMOOTH",
"34 96 OFFCURVE",
"153 -18 OFFCURVE",
"342 -18 CURVE SMOOTH"
);
},
{
closed = 1;
nodes = (
"265 134 OFFCURVE",
"216 176 OFFCURVE",
"216 252 CURVE SMOOTH",
"216 330 OFFCURVE",
"268 374 OFFCURVE",
"343 374 CURVE SMOOTH",
"418 374 OFFCURVE",
"470 330 OFFCURVE",
"470 252 CURVE SMOOTH",
"470 176 OFFCURVE",
"421 134 OFFCURVE",
"343 134 CURVE SMOOTH"
);
},
{
closed = 1;
nodes = (
"617 733 LINE",
"554 797 LINE",
"325 568 LINE",
"388 504 LINE"
);
}
);
width = 682;
},
{
background = {
paths = (
{
closed = 1;
nodes = (
"466 -16 OFFCURVE",
"553 99 OFFCURVE",
"553 273 CURVE SMOOTH",
"553 285 LINE SMOOTH",
"553 605 OFFCURVE",
"484 721 OFFCURVE",
"289 721 CURVE SMOOTH",
"257 721 OFFCURVE",
"222 718 OFFCURVE",
"195 713 CURVE",
"195 683 LINE",
"224 689 OFFCURVE",
"261 691 OFFCURVE",
"289 691 CURVE SMOOTH",
"359 691 OFFCURVE",
"399 677 OFFCURVE",
"433 651 CURVE SMOOTH",
"492 606 OFFCURVE",
"521 486 OFFCURVE",
"523 333 CURVE",
"531 333 LINE",
"523 422 OFFCURVE",
"456 516 OFFCURVE",
"309 516 CURVE SMOOTH",
"147 516 OFFCURVE",
"62 391 OFFCURVE",
"62 260 CURVE SMOOTH",
"62 237 LINE SMOOTH",
"62 110 OFFCURVE",
"147 -16 OFFCURVE",
"309 -16 CURVE SMOOTH"
);
},
{
closed = 1;
nodes = (
"157 14 OFFCURVE",
"94 120 OFFCURVE",
"94 249 CURVE SMOOTH",
"94 381 OFFCURVE",
"157 486 OFFCURVE",
"309 486 CURVE SMOOTH",
"451 486 OFFCURVE",
"523 386 OFFCURVE",
"523 249 CURVE SMOOTH",
"523 117 OFFCURVE",
"456 14 OFFCURVE",
"309 14 CURVE SMOOTH"
);
},
{
closed = 1;
nodes = (
"569 721 LINE",
"556 740 LINE",
"325 576 LINE",
"338 557 LINE"
);
}
);
};
layerId = "C54A1B2C-2BC8-455F-8AA9-31AEAFF53136";
paths = (
{
closed = 1;
nodes = (
"466 -16 OFFCURVE",
"553 95 OFFCURVE",
"553 273 CURVE SMOOTH",
"553 285 LINE SMOOTH",
"553 614 OFFCURVE",
"477 720 OFFCURVE",
"289 720 CURVE SMOOTH",
"257 720 OFFCURVE",
"222 717 OFFCURVE",
"195 712 CURVE",
"195 682 LINE",
"225 687 OFFCURVE",
"260 690 OFFCURVE",
"289 690 CURVE SMOOTH",
"360 690 OFFCURVE",
"400 675 OFFCURVE",
"433 650 CURVE SMOOTH",
"491 605 OFFCURVE",
"521 486 OFFCURVE",
"523 331 CURVE",
"531 331 LINE",
"522 423 OFFCURVE",
"455 516 OFFCURVE",
"309 516 CURVE SMOOTH",
"146 516 OFFCURVE",
"62 396 OFFCURVE",
"62 261 CURVE SMOOTH",
"62 238 LINE SMOOTH",
"62 107 OFFCURVE",
"148 -16 OFFCURVE",
"309 -16 CURVE SMOOTH"
);
},
{
closed = 1;
nodes = (
"164 14 OFFCURVE",
"94 121 OFFCURVE",
"94 250 CURVE SMOOTH",
"94 382 OFFCURVE",
"162 486 OFFCURVE",
"309 486 CURVE SMOOTH",
"450 486 OFFCURVE",
"523 387 OFFCURVE",
"523 250 CURVE SMOOTH",
"523 118 OFFCURVE",
"457 14 OFFCURVE",
"309 14 CURVE SMOOTH"
);
},
{
closed = 1;
nodes = (
"547 718 LINE",
"531 738 LINE",
"323 573 LINE",
"339 553 LINE"
);
}
);
width = 620;
}
);
leftKerningGroup = lc_Round;
leftMetricsKey = o;
unicode = 00F0;
},
{
color = 7;
glyphname = e;
lastChange = "2019-06-04 21:21:16 +0000";
layers = (
{
anchors = (
{
name = bottom;
position = "{319, 0}";
},
{
name = ogonek;
position = "{488, 42}";
},
{
name = top;
position = "{313, 534}";
}
);
layerId = "445E0A7C-B12F-48FD-B0B3-D474C1FC2A30";
paths = (
{
closed = 1;
nodes = (
"445 -18 OFFCURVE",
"536 48 OFFCURVE",
"559 159 CURVE",
"469 159 LINE",
"458 109 OFFCURVE",
"403 66 OFFCURVE",
"319 66 CURVE SMOOTH",
"198 66 OFFCURVE",
"144 153 OFFCURVE",
"144 267 CURVE SMOOTH",
"144 384 OFFCURVE",
"198 468 OFFCURVE",
"313 468 CURVE SMOOTH",
"422 468 OFFCURVE",
"476 395 OFFCURVE",
"476 282 CURVE",
"498 321 LINE",
"94 321 LINE",
"94 249 LINE",
"568 249 LINE",
"568 292 LINE SMOOTH",
"568 425 OFFCURVE",
"486 552 OFFCURVE",
"313 552 CURVE SMOOTH",
"134 552 OFFCURVE",
"52 414 OFFCURVE",
"52 276 CURVE SMOOTH",
"52 258 LINE SMOOTH",
"52 123 OFFCURVE",
"131 -18 OFFCURVE",
"319 -18 CURVE SMOOTH"
);
}
);
width = 612;
},
{
anchors = (
{
name = bottom;
position = "{325, 0}";
},
{
name = ogonek;
position = "{524, 70}";
},
{
name = top;
position = "{319, 552}";
}
);
layerId = "7C8656A8-8591-4735-94A0-92D633732231";
paths = (
{
closed = 1;
nodes = (
"466 -20 OFFCURVE",
"564 61 OFFCURVE",
"588 174 CURVE",
"422 174 LINE",
"409 144 OFFCURVE",
"375 126 OFFCURVE",
"325 126 CURVE SMOOTH",
"239 126 OFFCURVE",
"202 183 OFFCURVE",
"202 275 CURVE SMOOTH",
"202 376 OFFCURVE",
"246 426 OFFCURVE",
"319 426 CURVE SMOOTH",
"392 426 OFFCURVE",
"430 374 OFFCURVE",
"430 280 CURVE",
"493 324 LINE",
"110 324 LINE",
"110 226 LINE",
"598 226 LINE",
"598 284 LINE SMOOTH",
"598 437 OFFCURVE",
"496 572 OFFCURVE",
"319 572 CURVE SMOOTH",
"140 572 OFFCURVE",
"34 435 OFFCURVE",
"34 286 CURVE SMOOTH",
"34 266 LINE SMOOTH",
"34 123 OFFCURVE",
"139 -20 OFFCURVE",
"325 -20 CURVE SMOOTH"
);
}
);
width = 628;
},
{
anchors = (
{
name = bottom;
position = "{316, 0}";
},
{
name = ogonek;
position = "{452, 29}";
},
{
name = top;
position = "{310, 520}";
}
);
layerId = "C54A1B2C-2BC8-455F-8AA9-31AEAFF53136";
paths = (
{
closed = 1;
nodes = (
"441 -16 OFFCURVE",
"521 52 OFFCURVE",
"542 146 CURVE",
"510 146 LINE",
"494 73 OFFCURVE",
"425 14 OFFCURVE",
"316 14 CURVE SMOOTH",
"164 14 OFFCURVE",
"92 131 OFFCURVE",
"92 263 CURVE SMOOTH",
"92 392 OFFCURVE",
"167 506 OFFCURVE",
"310 506 CURVE SMOOTH",
"442 506 OFFCURVE",
"520 407 OFFCURVE",
"520 281 CURVE",
"533 291 LINE",
"79 291 LINE",
"79 261 LINE",
"550 261 LINE",
"550 293 LINE SMOOTH",
"550 417 OFFCURVE",
"462 536 OFFCURVE",
"310 536 CURVE SMOOTH",
"146 536 OFFCURVE",
"62 402 OFFCURVE",
"62 266 CURVE SMOOTH",
"62 260 LINE SMOOTH",
"62 121 OFFCURVE",
"142 -16 OFFCURVE",
"316 -16 CURVE SMOOTH"
);
}
);
width = 602;
}
);
leftKerningGroup = lc_Round;
leftMetricsKey = o;
rightKerningGroup = lc_e;
unicode = 0065;
},
{
color = 7;
glyphname = f;
lastChange = "2020-05-27 00:25:09 +0000";
layers = (
{
background = {
paths = (
{
closed = 1;
nodes = (
"198 0 LINE",
"198 577 LINE SMOOTH",
"198 625 OFFCURVE",
"225 654 OFFCURVE",
"275 654 CURVE SMOOTH",
"357 654 LINE",
"357 734 LINE",
"291 734 LINE SMOOTH",
"170 734 OFFCURVE",
"106 680 OFFCURVE",
"106 561 CURVE SMOOTH",
"106 0 LINE"
);
},
{
closed = 1;
nodes = (
"367 456 LINE",
"367 528 LINE",
"32 528 LINE",
"32 456 LINE"
);
}
);
};
layerId = "445E0A7C-B12F-48FD-B0B3-D474C1FC2A30";
paths = (
{
closed = 1;
nodes = (
"198 0 LINE",
"198 577 LINE SMOOTH",
"198 625 OFFCURVE",
"225 654 OFFCURVE",
"275 654 CURVE SMOOTH",
"357 654 LINE",
"357 734 LINE",
"291 734 LINE SMOOTH",
"170 734 OFFCURVE",
"106 680 OFFCURVE",
"106 561 CURVE SMOOTH",
"106 0 LINE"
);
},
{
closed = 1;
nodes = (
"367 456 LINE",
"367 528 LINE",
"32 528 LINE",
"32 456 LINE"
);
}
);
width = 379;
},
{
background = {
paths = (
{
closed = 1;
nodes = (
"246 0 LINE",
"246 558 LINE SMOOTH",
"246 590 OFFCURVE",
"264 608 OFFCURVE",
"296 608 CURVE SMOOTH",
"367 608 LINE",
"367 742 LINE",
"300 742 LINE SMOOTH",
"153 742 OFFCURVE",
"78 679 OFFCURVE",
"78 550 CURVE SMOOTH",
"78 0 LINE"
);
},
{
closed = 1;
nodes = (
"375 408 LINE",
"375 540 LINE",
"18 540 LINE",
"18 408 LINE"
);
}
);
};
layerId = "7C8656A8-8591-4735-94A0-92D633732231";
paths = (
{
closed = 1;
nodes = (
"246 0 LINE",
"246 558 LINE SMOOTH",
"246 590 OFFCURVE",
"264 608 OFFCURVE",
"296 608 CURVE SMOOTH",
"371 608 LINE",
"371 742 LINE",
"300 742 LINE SMOOTH",
"153 742 OFFCURVE",
"78 679 OFFCURVE",
"78 550 CURVE SMOOTH",
"78 0 LINE"
);
},
{
closed = 1;
nodes = (
"379 408 LINE",
"379 540 LINE",
"16 540 LINE",
"16 408 LINE"
);
}
);
width = 383;
},
{
layerId = "C54A1B2C-2BC8-455F-8AA9-31AEAFF53136";
paths = (
{
closed = 1;
nodes = (
"156 0 LINE",
"156 600 LINE SMOOTH",
"156 664 OFFCURVE",
"192 700 OFFCURVE",
"260 700 CURVE SMOOTH",
"340 700 LINE",
"340 730 LINE",
"270 730 LINE SMOOTH",
"170 730 OFFCURVE",
"124 684 OFFCURVE",
"124 588 CURVE SMOOTH",
"124 0 LINE"
);
},
{
closed = 1;
nodes = (
"352 490 LINE",
"352 518 LINE",
"40 518 LINE",
"40 490 LINE"
);
}
);
width = 368;
}
);
leftKerningGroup = lc_f;
rightKerningGroup = lc_f;
unicode = 0066;
},
{
color = 7;
glyphname = g;
lastChange = "2019-06-04 20:46:11 +0000";
layers = (
{
anchors = (
{
name = bottom;
position = "{305, -300}";
},
{
name = top;
position = "{339, 534}";
}
);
layerId = "445E0A7C-B12F-48FD-B0B3-D474C1FC2A30";
paths = (
{
closed = 1;
nodes = (
"507 -208 OFFCURVE",
"589 -129 OFFCURVE",
"589 63 CURVE SMOOTH",
"589 534 LINE",
"513 534 LINE",
"513 306 LINE",
"541 307 LINE",
"535 464 OFFCURVE",
"444 552 OFFCURVE",
"310 552 CURVE SMOOTH",
"158 552 OFFCURVE",
"52 437 OFFCURVE",
"52 287 CURVE SMOOTH",
"52 269 LINE SMOOTH",
"52 121 OFFCURVE",
"155 -4 OFFCURVE",
"305 -4 CURVE SMOOTH",
"424 -4 OFFCURVE",
"522 74 OFFCURVE",
"529 237 CURVE",
"497 161 LINE",
"497 59 LINE SMOOTH",
"497 -72 OFFCURVE",
"444 -128 OFFCURVE",
"298 -128 CURVE SMOOTH",
"251 -128 OFFCURVE",
"196 -123 OFFCURVE",
"148 -116 CURVE",
"148 -197 LINE",
"193 -204 OFFCURVE",
"244 -208 OFFCURVE",
"294 -208 CURVE SMOOTH"
);
},
{
closed = 1;
nodes = (
"221 84 OFFCURVE",
"148 159 OFFCURVE",
"148 278 CURVE SMOOTH",
"148 395 OFFCURVE",
"219 472 OFFCURVE",
"324 472 CURVE SMOOTH",
"415 472 OFFCURVE",
"497 413 OFFCURVE",
"497 306 CURVE SMOOTH",
"497 260 LINE SMOOTH",
"497 150 OFFCURVE",
"418 84 OFFCURVE",
"323 84 CURVE SMOOTH"
);
}
);
width = 675;
},
{
anchors = (
{
name = bottom;
position = "{279, -300}";
},
{
name = top;
position = "{325, 552}";
}
);
layerId = "7C8656A8-8591-4735-94A0-92D633732231";
paths = (
{
closed = 1;
nodes = (
"515 -221 OFFCURVE",
"630 -140 OFFCURVE",
"630 65 CURVE SMOOTH",
"630 552 LINE",
"486 552 LINE",
"486 310 LINE",
"506 317 LINE",
"502 477 OFFCURVE",
"419 568 OFFCURVE",
"288 568 CURVE SMOOTH",
"136 568 OFFCURVE",
"34 450 OFFCURVE",
"34 292 CURVE SMOOTH",
"34 268 LINE SMOOTH",
"34 110 OFFCURVE",
"127 -4 OFFCURVE",
"277 -4 CURVE SMOOTH",
"409 -4 OFFCURVE",
"484 84 OFFCURVE",
"488 225 CURVE",
"460 165 LINE",
"460 53 LINE SMOOTH",
"460 -31 OFFCURVE",
"404 -69 OFFCURVE",
"281 -69 CURVE SMOOTH",
"233 -69 OFFCURVE",
"170 -64 OFFCURVE",
"124 -58 CURVE",
"124 -210 LINE",
"170 -217 OFFCURVE",
"232 -221 OFFCURVE",
"287 -221 CURVE SMOOTH"
);
},
{
closed = 1;
nodes = (
"266 146 OFFCURVE",
"216 196 OFFCURVE",
"216 280 CURVE SMOOTH",
"216 364 OFFCURVE",
"266 418 OFFCURVE",
"338 418 CURVE SMOOTH",
"400 418 OFFCURVE",
"456 374 OFFCURVE",
"456 297 CURVE SMOOTH",
"456 273 LINE SMOOTH",
"456 192 OFFCURVE",
"403 146 OFFCURVE",
"338 146 CURVE SMOOTH"
);
}
);
width = 690;
},
{
anchors = (
{
name = bottom;
position = "{310, -300}";
},
{
name = top;
position = "{337, 520}";
}
);
layerId = "C54A1B2C-2BC8-455F-8AA9-31AEAFF53136";
paths = (
{
closed = 1;
nodes = (
"494 -204 OFFCURVE",
"562 -140 OFFCURVE",
"562 47 CURVE SMOOTH",
"562 520 LINE",
"536 520 LINE",
"536 330 LINE",
"552 289 LINE",
"552 415 OFFCURVE",
"463 536 OFFCURVE",
"311 536 CURVE SMOOTH",
"147 536 OFFCURVE",
"62 392 OFFCURVE",
"62 263 CURVE SMOOTH",
"62 257 LINE SMOOTH",
"62 120 OFFCURVE",
"151 -16 OFFCURVE",
"311 -16 CURVE SMOOTH",
"460 -16 OFFCURVE",
"550 97 OFFCURVE",
"550 231 CURVE",
"530 160 LINE",
"530 48 LINE SMOOTH",
"530 -118 OFFCURVE",
"477 -174 OFFCURVE",
"312 -174 CURVE SMOOTH",
"265 -174 OFFCURVE",
"210 -169 OFFCURVE",
"162 -161 CURVE",
"162 -191 LINE",
"208 -199 OFFCURVE",
"261 -204 OFFCURVE",
"308 -204 CURVE SMOOTH"
);
},
{
closed = 1;
nodes = (
"174 14 OFFCURVE",
"94 129 OFFCURVE",
"94 260 CURVE SMOOTH",
"94 383 OFFCURVE",
"170 506 OFFCURVE",
"313 506 CURVE SMOOTH",
"448 506 OFFCURVE",
"532 402 OFFCURVE",
"532 287 CURVE SMOOTH",
"532 233 LINE SMOOTH",
"532 110 OFFCURVE",
"444 14 OFFCURVE",
"313 14 CURVE SMOOTH"
);
}
);
width = 664;
}
);
leftKerningGroup = lc_Round;
leftMetricsKey = o;
rightKerningGroup = lc_g;
rightMetricsKey = "=i-8";
unicode = 0067;
},
{
color = 7;
glyphname = h;
lastChange = "2019-06-04 17:49:02 +0000";
layers = (
{
anchors = (
{
name = bottom;
position = "{324, 0}";
},
{
name = center;
position = "{197, 642}";
},
{
name = top;
position = "{140, 730}";
}
);
background = {
anchors = (
{
name = bottom;
position = "{324, 0}";
},
{
name = center;
position = "{197, 637}";
},
{
name = top;
position = "{320, 960}";
}
);
paths = (
{
closed = 1;
nodes = (
"188 0 LINE",
"188 319 LINE SMOOTH",
"188 405 OFFCURVE",
"245 462 OFFCURVE",
"329 462 CURVE SMOOTH",
"410 462 OFFCURVE",
"460 408 OFFCURVE",
"460 325 CURVE SMOOTH",
"460 0 LINE",
"556 0 LINE",
"556 305 LINE SMOOTH",
"556 463 OFFCURVE",
"492 550 OFFCURVE",
"358 550 CURVE SMOOTH",
"354 550 LINE SMOOTH",
"220 550 OFFCURVE",
"156 463 OFFCURVE",
"156 305 CURVE",
"168 305 LINE",
"168 534 LINE",
"92 534 LINE",
"92 0 LINE"
);
}
);
};
layerId = "445E0A7C-B12F-48FD-B0B3-D474C1FC2A30";
paths = (
{
closed = 1;
nodes = (
"188 0 LINE",
"188 308 LINE SMOOTH",
"188 400 OFFCURVE",
"243 462 OFFCURVE",
"329 462 CURVE SMOOTH",
"406 462 OFFCURVE",
"460 412 OFFCURVE",
"460 325 CURVE SMOOTH",
"460 0 LINE",
"556 0 LINE",
"556 305 LINE SMOOTH",
"556 462 OFFCURVE",
"490 550 OFFCURVE",
"362 550 CURVE SMOOTH",
"358 550 LINE SMOOTH",
"223 550 OFFCURVE",
"164 452 OFFCURVE",
"164 294 CURVE",
"188 294 LINE",
"188 730 LINE",
"92 730 LINE",
"92 0 LINE"
);
}
);
width = 640;
},
{
anchors = (
{
name = bottom;
position = "{333, 0}";
},
{
name = center;
position = "{198, 637}";
},
{
name = top;
position = "{157, 730}";
}
);
background = {
anchors = (
{
name = bottom;
position = "{333, 0}";
},
{
name = center;
position = "{198, 632}";
},
{
name = top;
position = "{320, 960}";
}
);
paths = (
{
closed = 1;
nodes = (
"248 0 LINE",
"248 319 LINE SMOOTH",
"248 372 OFFCURVE",
"282 408 OFFCURVE",
"334 408 CURVE SMOOTH",
"386 408 OFFCURVE",
"418 372 OFFCURVE",
"418 321 CURVE SMOOTH",
"418 0 LINE",
"600 0 LINE",
"600 316 LINE SMOOTH",
"600 488 OFFCURVE",
"528 570 OFFCURVE",
"403 570 CURVE SMOOTH",
"395 570 LINE SMOOTH",
"270 570 OFFCURVE",
"202 487 OFFCURVE",
"202 315 CURVE",
"210 315 LINE",
"210 552 LINE",
"66 552 LINE",
"66 0 LINE"
);
}
);
};
layerId = "7C8656A8-8591-4735-94A0-92D633732231";
paths = (
{
closed = 1;
nodes = (
"248 0 LINE",
"248 319 LINE SMOOTH",
"248 372 OFFCURVE",
"283 408 OFFCURVE",
"334 408 CURVE SMOOTH",
"385 408 OFFCURVE",
"418 372 OFFCURVE",
"418 321 CURVE SMOOTH",
"418 0 LINE",
"600 0 LINE",
"600 314 LINE SMOOTH",
"600 482 OFFCURVE",
"535 570 OFFCURVE",
"415 570 CURVE SMOOTH",
"407 570 LINE SMOOTH",
"287 570 OFFCURVE",
"224 482 OFFCURVE",
"224 314 CURVE",
"248 314 LINE",
"248 730 LINE",
"66 730 LINE",
"66 0 LINE"
);
}
);
width = 656;
},
{
anchors = (
{
name = bottom;
position = "{316, 0}";
},
{
name = center;
position = "{190, 639}";
},
{
name = top;
position = "{124, 730}";
}
);
background = {
paths = (
{
closed = 1;
nodes = (
"140 0 LINE",
"140 316 LINE SMOOTH",
"140 428 OFFCURVE",
"210 504 OFFCURVE",
"322 504 CURVE SMOOTH",
"432 504 OFFCURVE",
"492 429 OFFCURVE",
"492 320 CURVE SMOOTH",
"492 0 LINE",
"524 0 LINE",
"524 312 LINE SMOOTH",
"524 445 OFFCURVE",
"455 534 OFFCURVE",
"325 534 CURVE SMOOTH",
"323 534 LINE SMOOTH",
"191 534 OFFCURVE",
"122 440 OFFCURVE",
"122 312 CURVE",
"134 312 LINE",
"134 520 LINE",
"108 520 LINE",
"108 0 LINE"
);
}
);
};
layerId = "C54A1B2C-2BC8-455F-8AA9-31AEAFF53136";
paths = (
{
closed = 1;
nodes = (
"140 0 LINE",
"140 318 LINE SMOOTH",
"140 428 OFFCURVE",
"210 504 OFFCURVE",
"322 504 CURVE SMOOTH",
"432 504 OFFCURVE",
"492 429 OFFCURVE",
"492 320 CURVE SMOOTH",
"492 0 LINE",
"524 0 LINE",
"524 312 LINE SMOOTH",
"524 445 OFFCURVE",
"455 534 OFFCURVE",
"325 534 CURVE SMOOTH",
"323 534 LINE SMOOTH",
"191 534 OFFCURVE",
"123 440 OFFCURVE",
"123 312 CURVE",
"140 363 LINE",
"140 730 LINE",
"108 730 LINE",
"108 0 LINE"
);
}
);
width = 626;
}
);
leftKerningGroup = lc_LongStem;
leftMetricsKey = n;
rightKerningGroup = lc_Shoulder;
rightMetricsKey = n;
unicode = 0068;
},
{
color = 7;
glyphname = i;
lastChange = "2020-05-27 03:13:00 +0000";
layers = (
{
anchors = (
{
name = bottom;
position = "{166, 0}";
}
);
background = {
paths = (
{
closed = 0;
nodes = (
"118 534 LINE"
);
},
{
closed = 0;
nodes = (
"36 534 LINE"
);
}
);
};
layerId = "445E0A7C-B12F-48FD-B0B3-D474C1FC2A30";
paths = (
{
closed = 1;
nodes = (
"214 0 LINE",
"214 534 LINE",
"118 534 LINE",
"118 0 LINE"
);
},
{
closed = 1;
nodes = (
"214 458 LINE",
"214 534 LINE",
"36 534 LINE",
"36 458 LINE"
);
},
{
closed = 1;
nodes = (
"188 620 OFFCURVE",
"208 645 OFFCURVE",
"208 680 CURVE SMOOTH",
"208 715 OFFCURVE",
"188 740 OFFCURVE",
"145 740 CURVE SMOOTH",
"102 740 OFFCURVE",
"82 715 OFFCURVE",
"82 680 CURVE SMOOTH",
"82 645 OFFCURVE",
"102 620 OFFCURVE",
"145 620 CURVE SMOOTH"
);
}
);
width = 308;
},
{
anchors = (
{
name = bottom;
position = "{183, 0}";
}
);
background = {
paths = (
{
closed = 0;
nodes = (
"92 552 LINE"
);
},
{
closed = 0;
nodes = (
"22 552 LINE"
);
}
);
};
layerId = "7C8656A8-8591-4735-94A0-92D633732231";
paths = (
{
closed = 1;
nodes = (
"274 0 LINE",
"274 552 LINE",
"92 552 LINE",
"92 0 LINE"
);
},
{
closed = 1;
nodes = (
"274 420 LINE",
"274 552 LINE",
"22 552 LINE",
"22 420 LINE"
);
},
{
closed = 1;
nodes = (
"232 596 OFFCURVE",
"262 634 OFFCURVE",
"262 687 CURVE SMOOTH",
"262 740 OFFCURVE",
"232 778 OFFCURVE",
"166 778 CURVE SMOOTH",
"100 778 OFFCURVE",
"70 740 OFFCURVE",
"70 687 CURVE SMOOTH",
"70 634 OFFCURVE",
"100 596 OFFCURVE",
"166 596 CURVE SMOOTH"
);
}
);
width = 342;
},
{
anchors = (
{
name = bottom;
position = "{154, 0}";
}
);
layerId = "C54A1B2C-2BC8-455F-8AA9-31AEAFF53136";
paths = (
{
closed = 1;
nodes = (
"170 0 LINE",
"170 520 LINE",
"138 520 LINE",
"138 0 LINE"
);
},
{
closed = 1;
nodes = (
"170 490 LINE",
"170 520 LINE",
"48 520 LINE",
"48 490 LINE"
);
},
{
closed = 1;
nodes = (
"154 642 OFFCURVE",
"166 655 OFFCURVE",
"166 675 CURVE SMOOTH",
"166 694 OFFCURVE",
"154 708 OFFCURVE",
"132 708 CURVE SMOOTH",
"110 708 OFFCURVE",
"98 694 OFFCURVE",
"98 675 CURVE SMOOTH",
"98 655 OFFCURVE",
"110 642 OFFCURVE",
"132 642 CURVE SMOOTH"
);
}
);
width = 280;
}
);
leftKerningGroup = lc_ShortStem;
rightKerningGroup = lc_ShortStem;
unicode = 0069;
},
{
color = 7;
glyphname = idotless;
lastChange = "2020-05-28 00:02:13 +0000";
layers = (
{
anchors = (
{
name = bottom;
position = "{166, 0}";
},
{
name = ogonek;
position = "{214, 10}";
},
{
name = top;
position = "{134, 534}";
}
);
layerId = "445E0A7C-B12F-48FD-B0B3-D474C1FC2A30";
paths = (
{
closed = 1;
nodes = (
"214 0 LINE",
"214 534 LINE",
"118 534 LINE",
"118 0 LINE"
);
},
{
closed = 1;
nodes = (
"214 458 LINE",
"214 534 LINE",
"36 534 LINE",
"36 458 LINE"
);
}
);
width = 308;
},
{
anchors = (
{
name = bottom;
position = "{183, 0}";
},
{
name = ogonek;
position = "{250, 10}";
},
{
name = top;
position = "{159, 552}";
}
);
layerId = "7C8656A8-8591-4735-94A0-92D633732231";
paths = (
{
closed = 1;
nodes = (
"274 0 LINE",
"274 552 LINE",
"92 552 LINE",
"92 0 LINE"
);
},
{
closed = 1;
nodes = (
"274 420 LINE",
"274 552 LINE",
"22 552 LINE",
"22 420 LINE"
);
}
);
width = 342;
},
{
anchors = (
{
name = bottom;
position = "{154, 0}";
},
{
name = ogonek;
position = "{170, 10}";
},
{
name = top;
position = "{113, 520}";
}
);
layerId = "C54A1B2C-2BC8-455F-8AA9-31AEAFF53136";
paths = (
{
closed = 1;
nodes = (
"170 0 LINE",
"170 520 LINE",
"138 520 LINE",
"138 0 LINE"
);
},
{
closed = 1;
nodes = (
"170 490 LINE",
"170 520 LINE",
"48 520 LINE",
"48 490 LINE"
);
}
);
width = 280;
}
);
leftKerningGroup = lc_ShortStem;
widthMetricsKey = i;
rightKerningGroup = lc_ShortStem;
unicode = 0131;
},
{
color = 7;
glyphname = j;
lastChange = "2019-06-04 20:46:53 +0000";
layers = (
{
background = {
paths = (
{
closed = 1;
nodes = (
"40 -200 LINE SMOOTH",
"174 -200 OFFCURVE",
"225 -155 OFFCURVE",
"225 -21 CURVE SMOOTH",
"225 540 LINE",
"133 540 LINE",
"133 -35 LINE SMOOTH",
"133 -85 OFFCURVE",
"104 -114 OFFCURVE",
"54 -114 CURVE SMOOTH",
"-4 -114 LINE",
"-4 -200 LINE"
);
},
{
closed = 1;
nodes = (
"199 628 OFFCURVE",
"219 653 OFFCURVE",
"219 688 CURVE SMOOTH",
"219 723 OFFCURVE",
"199 748 OFFCURVE",
"156 748 CURVE SMOOTH",
"113 748 OFFCURVE",
"93 723 OFFCURVE",
"93 688 CURVE SMOOTH",
"93 653 OFFCURVE",
"113 628 OFFCURVE",
"156 628 CURVE SMOOTH"
);
},
{
closed = 1;
nodes = (
"225 464 LINE",
"225 540 LINE",
"49 540 LINE",
"49 464 LINE"
);
}
);
};
layerId = "445E0A7C-B12F-48FD-B0B3-D474C1FC2A30";
paths = (
{
closed = 1;
nodes = (
"40 -204 LINE SMOOTH",
"174 -204 OFFCURVE",
"225 -159 OFFCURVE",
"225 -25 CURVE SMOOTH",
"225 534 LINE",
"133 534 LINE",
"133 -39 LINE SMOOTH",
"133 -89 OFFCURVE",
"104 -118 OFFCURVE",
"54 -118 CURVE SMOOTH",
"-2 -118 LINE",
"-2 -204 LINE"
);
},
{
closed = 1;
nodes = (
"225 458 LINE",
"225 534 LINE",
"49 534 LINE",
"49 458 LINE"
);
},
{
closed = 1;
nodes = (
"199 628 OFFCURVE",
"219 653 OFFCURVE",
"219 688 CURVE SMOOTH",
"219 723 OFFCURVE",
"199 748 OFFCURVE",
"156 748 CURVE SMOOTH",
"113 748 OFFCURVE",
"93 723 OFFCURVE",
"93 688 CURVE SMOOTH",
"93 653 OFFCURVE",
"113 628 OFFCURVE",
"156 628 CURVE SMOOTH"
);
}
);
width = 317;
},
{
background = {
paths = (
{
closed = 1;
nodes = (
"47 -200 LINE SMOOTH",
"181 -200 OFFCURVE",
"232 -155 OFFCURVE",
"232 -21 CURVE SMOOTH",
"232 540 LINE",
"140 540 LINE",
"140 -35 LINE SMOOTH",
"140 -85 OFFCURVE",
"111 -114 OFFCURVE",
"61 -114 CURVE SMOOTH",
"3 -114 LINE",
"3 -200 LINE"
);
},
{
closed = 1;
nodes = (
"206 628 OFFCURVE",
"226 653 OFFCURVE",
"226 688 CURVE SMOOTH",
"226 723 OFFCURVE",
"206 748 OFFCURVE",
"163 748 CURVE SMOOTH",
"120 748 OFFCURVE",
"100 723 OFFCURVE",
"100 688 CURVE SMOOTH",
"100 653 OFFCURVE",
"120 628 OFFCURVE",
"163 628 CURVE SMOOTH"
);
},
{
closed = 1;
nodes = (
"232 464 LINE",
"232 540 LINE",
"56 540 LINE",
"56 464 LINE"
);
}
);
};
layerId = "7C8656A8-8591-4735-94A0-92D633732231";
paths = (
{
closed = 1;
nodes = (
"30 -206 LINE SMOOTH",
"206 -206 OFFCURVE",
"284 -144 OFFCURVE",
"284 22 CURVE SMOOTH",
"284 552 LINE",
"108 552 LINE",
"108 20 LINE SMOOTH",
"108 -28 OFFCURVE",
"82 -54 OFFCURVE",
"34 -54 CURVE SMOOTH",
"6 -54 LINE",
"6 -206 LINE"
);
},
{
closed = 1;
nodes = (
"284 420 LINE",
"284 552 LINE",
"34 552 LINE",
"34 420 LINE"
);
},
{
closed = 1;
nodes = (
"242 596 OFFCURVE",
"272 634 OFFCURVE",
"272 687 CURVE SMOOTH",
"272 740 OFFCURVE",
"242 778 OFFCURVE",
"176 778 CURVE SMOOTH",
"110 778 OFFCURVE",
"80 740 OFFCURVE",
"80 687 CURVE SMOOTH",
"80 634 OFFCURVE",
"110 596 OFFCURVE",
"176 596 CURVE SMOOTH"
);
}
);
width = 346;
},
{
layerId = "C54A1B2C-2BC8-455F-8AA9-31AEAFF53136";
paths = (
{
closed = 1;
nodes = (
"51 -202 LINE SMOOTH",
"142 -202 OFFCURVE",
"178 -160 OFFCURVE",
"178 -56 CURVE SMOOTH",
"178 520 LINE",
"146 520 LINE",
"146 -70 LINE SMOOTH",
"146 -138 OFFCURVE",
"118 -172 OFFCURVE",
"63 -172 CURVE SMOOTH",
"-6 -172 LINE",
"-6 -202 LINE"
);
},
{
closed = 1;
nodes = (
"178 490 LINE",
"178 520 LINE",
"54 520 LINE",
"54 490 LINE"
);
},
{
closed = 1;
nodes = (
"162 652 OFFCURVE",
"174 665 OFFCURVE",
"174 685 CURVE SMOOTH",
"174 704 OFFCURVE",
"162 718 OFFCURVE",
"140 718 CURVE SMOOTH",
"118 718 OFFCURVE",
"106 704 OFFCURVE",
"106 685 CURVE SMOOTH",
"106 665 OFFCURVE",
"118 652 OFFCURVE",
"140 652 CURVE SMOOTH"
);
}
);
width = 288;
}
);
leftKerningGroup = lc_j;
rightKerningGroup = lc_j;
unicode = 006A;
},
{
color = 6;
glyphname = jdotless;
lastChange = "2019-05-29 22:43:47 +0000";
layers = (
{
anchors = (
{
name = bottom;
position = "{160, -300}";
},
{
name = top;
position = "{140, 534}";
}
);
background = {
paths = (
{
closed = 1;
nodes = (
"39 -200 LINE SMOOTH",
"173 -200 OFFCURVE",
"224 -155 OFFCURVE",
"224 -21 CURVE SMOOTH",
"224 534 LINE",
"132 534 LINE",
"132 -35 LINE SMOOTH",
"132 -85 OFFCURVE",
"103 -114 OFFCURVE",
"53 -114 CURVE SMOOTH",
"-5 -114 LINE",
"-5 -200 LINE"
);
},
{
closed = 1;
nodes = (
"224 458 LINE",
"224 534 LINE",
"48 534 LINE",
"48 458 LINE"
);
}
);
};
layerId = "445E0A7C-B12F-48FD-B0B3-D474C1FC2A30";
paths = (
{
closed = 1;
nodes = (
"40 -204 LINE SMOOTH",
"174 -204 OFFCURVE",
"225 -159 OFFCURVE",
"225 -25 CURVE SMOOTH",
"225 534 LINE",
"133 534 LINE",
"133 -39 LINE SMOOTH",
"133 -89 OFFCURVE",
"104 -118 OFFCURVE",
"54 -118 CURVE SMOOTH",
"-2 -118 LINE",
"-2 -204 LINE"
);
},
{
closed = 1;
nodes = (
"225 458 LINE",
"225 534 LINE",
"49 534 LINE",
"49 458 LINE"
);
}
);
width = 317;
},
{
anchors = (
{
name = bottom;
position = "{160, -300}";
},
{
name = top;
position = "{161, 552}";
}
);
background = {
paths = (
{
closed = 1;
nodes = (
"30 -204 LINE SMOOTH",
"206 -204 OFFCURVE",
"284 -142 OFFCURVE",
"284 24 CURVE SMOOTH",
"284 552 LINE",
"108 552 LINE",
"108 22 LINE SMOOTH",
"108 -26 OFFCURVE",
"82 -52 OFFCURVE",
"34 -52 CURVE SMOOTH",
"8 -52 LINE",
"8 -204 LINE"
);
},
{
closed = 1;
nodes = (
"284 420 LINE",
"284 552 LINE",
"34 552 LINE",
"34 420 LINE"
);
}
);
};
layerId = "7C8656A8-8591-4735-94A0-92D633732231";
paths = (
{
closed = 1;
nodes = (
"30 -206 LINE SMOOTH",
"206 -206 OFFCURVE",
"284 -144 OFFCURVE",
"284 22 CURVE SMOOTH",
"284 552 LINE",
"108 552 LINE",
"108 20 LINE SMOOTH",
"108 -28 OFFCURVE",
"82 -54 OFFCURVE",
"34 -54 CURVE SMOOTH",
"6 -54 LINE",
"6 -206 LINE"
);
},
{
closed = 1;
nodes = (
"284 420 LINE",
"284 552 LINE",
"34 552 LINE",
"34 420 LINE"
);
}
);
width = 346;
},
{
anchors = (
{
name = bottom;
position = "{160, -300}";
},
{
name = top;
position = "{123, 520}";
}
);
background = {
paths = (
{
closed = 1;
nodes = (
"51 -202 LINE SMOOTH",
"142 -202 OFFCURVE",
"178 -160 OFFCURVE",
"178 -56 CURVE SMOOTH",
"178 520 LINE",
"146 520 LINE",
"146 -70 LINE SMOOTH",
"146 -138 OFFCURVE",
"118 -172 OFFCURVE",
"63 -172 CURVE SMOOTH",
"-6 -172 LINE",
"-6 -202 LINE"
);
},
{
closed = 1;
nodes = (
"178 490 LINE",
"178 520 LINE",
"54 520 LINE",
"54 490 LINE"
);
}
);
};
layerId = "C54A1B2C-2BC8-455F-8AA9-31AEAFF53136";
paths = (
{
closed = 1;
nodes = (
"51 -202 LINE SMOOTH",
"142 -202 OFFCURVE",
"178 -160 OFFCURVE",
"178 -56 CURVE SMOOTH",
"178 520 LINE",
"146 520 LINE",
"146 -70 LINE SMOOTH",
"146 -138 OFFCURVE",
"118 -172 OFFCURVE",
"63 -172 CURVE SMOOTH",
"-6 -172 LINE",
"-6 -202 LINE"
);
},
{
closed = 1;
nodes = (
"178 490 LINE",
"178 520 LINE",
"54 520 LINE",
"54 490 LINE"
);
}
);
width = 288;
}
);
leftKerningGroup = lc_j;
widthMetricsKey = j;
rightKerningGroup = lc_j;
unicode = 0237;
},
{
color = 7;
glyphname = k;
lastChange = "2019-06-04 20:47:13 +0000";
layers = (
{
anchors = (
{
name = bottom;
position = "{323, 0}";
},
{
name = top;
position = "{140, 730}";
}
);
background = {
anchors = (
{
name = bottom;
position = "{323, 0}";
},
{
name = top;
position = "{140, 720}";
}
);
paths = (
{
closed = 1;
nodes = (
"571 0 LINE",
"302 328 LINE",
"295 277 LINE",
"517 534 LINE",
"416 534 LINE",
"171 249 LINE",
"259 249 LINE",
"460 0 LINE"
);
},
{
closed = 1;
nodes = (
"188 0 LINE",
"188 720 LINE",
"92 720 LINE",
"92 0 LINE"
);
}
);
};
layerId = "445E0A7C-B12F-48FD-B0B3-D474C1FC2A30";
paths = (
{
closed = 1;
nodes = (
"571 0 LINE",
"302 328 LINE",
"295 277 LINE",
"517 534 LINE",
"416 534 LINE",
"171 249 LINE",
"259 249 LINE",
"460 0 LINE"
);
},
{
closed = 1;
nodes = (
"188 0 LINE",
"188 730 LINE",
"92 730 LINE",
"92 0 LINE"
);
}
);
width = 573;
},
{
anchors = (
{
name = bottom;
position = "{346, 0}";
},
{
name = top;
position = "{157, 730}";
}
);
background = {
anchors = (
{
name = bottom;
position = "{346, 0}";
},
{
name = top;
position = "{157, 738}";
}
);
paths = (
{
closed = 1;
nodes = (
"661 0 LINE",
"422 363 LINE",
"422 275 LINE",
"627 552 LINE",
"437 552 LINE",
"221 258 LINE",
"295 258 LINE",
"458 0 LINE"
);
},
{
closed = 1;
nodes = (
"248 0 LINE",
"248 720 LINE",
"66 720 LINE",
"66 0 LINE"
);
}
);
};
layerId = "7C8656A8-8591-4735-94A0-92D633732231";
paths = (
{
closed = 1;
nodes = (
"661 0 LINE",
"422 363 LINE",
"422 275 LINE",
"627 552 LINE",
"437 552 LINE",
"221 258 LINE",
"295 258 LINE",
"458 0 LINE"
);
},
{
closed = 1;
nodes = (
"248 0 LINE",
"248 730 LINE",
"66 730 LINE",
"66 0 LINE"
);
}
);
width = 661;
},
{
anchors = (
{
name = bottom;
position = "{299, 0}";
},
{
name = top;
position = "{124, 730}";
}
);
layerId = "C54A1B2C-2BC8-455F-8AA9-31AEAFF53136";
paths = (
{
closed = 1;
nodes = (
"492 0 LINE",
"202 302 LINE",
"203 279 LINE",
"434 520 LINE",
"395 520 LINE",
"133 246 LINE",
"215 246 LINE",
"451 0 LINE"
);
},
{
closed = 1;
nodes = (
"140 0 LINE",
"140 730 LINE",
"108 730 LINE",
"108 0 LINE"
);
}
);
width = 502;
}
);
leftKerningGroup = lc_LongStem;
leftMetricsKey = h;
rightKerningGroup = lc_k;
unicode = 006B;
},
{
color = 7;
glyphname = l;
lastChange = "2020-04-20 16:53:36 +0000";
layers = (
{
anchors = (
{
name = bottom;
position = "{146, 0}";
},
{
name = center;
position = "{146, 480}";
},
{
name = top;
position = "{119, 730}";
},
{
name = topright;
position = "{194, 534}";
}
);
background = {
anchors = (
{
name = bottom;
position = "{146, 0}";
},
{
name = center;
position = "{146, 480}";
},
{
name = top;
position = "{119, 720}";
},
{
name = topright;
position = "{194, 534}";
}
);
paths = (
{
closed = 1;
nodes = (
"194 0 LINE",
"194 720 LINE",
"98 720 LINE",
"98 0 LINE"
);
},
{
closed = 1;
nodes = (
"194 644 LINE",
"194 720 LINE",
"24 720 LINE",
"24 644 LINE"
);
}
);
};
layerId = "445E0A7C-B12F-48FD-B0B3-D474C1FC2A30";
paths = (
{
closed = 1;
nodes = (
"194 0 LINE",
"194 730 LINE",
"98 730 LINE",
"98 0 LINE"
);
},
{
closed = 1;
nodes = (
"194 654 LINE",
"194 730 LINE",
"24 730 LINE",
"24 654 LINE"
);
}
);
width = 286;
},
{
anchors = (
{
name = bottom;
position = "{165, 0}";
},
{
name = center;
position = "{165, 480}";
},
{
name = top;
position = "{138, 730}";
},
{
name = topright;
position = "{240, 534}";
}
);
background = {
anchors = (
{
name = bottom;
position = "{165, 0}";
},
{
name = center;
position = "{165, 480}";
},
{
name = top;
position = "{138, 738}";
},
{
name = topright;
position = "{240, 534}";
}
);
paths = (
{
closed = 1;
nodes = (
"256 0 LINE",
"256 720 LINE",
"74 720 LINE",
"74 0 LINE"
);
},
{
closed = 1;
nodes = (
"256 588 LINE",
"256 720 LINE",
"12 720 LINE",
"12 588 LINE"
);
}
);
};
layerId = "7C8656A8-8591-4735-94A0-92D633732231";
paths = (
{
closed = 1;
nodes = (
"256 0 LINE",
"256 730 LINE",
"74 730 LINE",
"74 0 LINE"
);
},
{
closed = 1;
nodes = (
"256 598 LINE",
"256 730 LINE",
"12 730 LINE",
"12 598 LINE"
);
}
);
width = 324;
},
{
anchors = (
{
name = bottom;
position = "{126, 0}";
},
{
name = center;
position = "{126, 480}";
},
{
name = top;
position = "{88, 730}";
},
{
name = topright;
position = "{144, 534}";
}
);
layerId = "C54A1B2C-2BC8-455F-8AA9-31AEAFF53136";
paths = (
{
closed = 1;
nodes = (
"142 0 LINE",
"142 730 LINE",
"110 730 LINE",
"110 0 LINE"
);
},
{
closed = 1;
nodes = (
"142 700 LINE",
"142 730 LINE",
"28 730 LINE",
"28 700 LINE"
);
}
);
width = 250;
}
);
leftKerningGroup = lc_l;
rightKerningGroup = lc_LongStem;
unicode = 006C;
},
{
color = 7;
glyphname = lslash;
lastChange = "2019-06-04 19:47:29 +0000";
layers = (
{
background = {
components = (
{
name = l;
}
);
paths = (
{
closed = 1;
nodes = (
"273 366 LINE",
"273 438 LINE",
"174 381 LINE",
"174 309 LINE"
);
},
{
closed = 1;
nodes = (
"118 281 LINE",
"118 353 LINE",
"19 296 LINE",
"19 224 LINE"
);
}
);
};
components = (
{
name = l;
}
);
layerId = "445E0A7C-B12F-48FD-B0B3-D474C1FC2A30";
paths = (
{
closed = 1;
nodes = (
"118 281 LINE",
"118 353 LINE",
"19 296 LINE",
"19 224 LINE"
);
},
{
closed = 1;
nodes = (
"273 366 LINE",
"273 438 LINE",
"174 381 LINE",
"174 309 LINE"
);
}
);
width = 286;
},
{
background = {
components = (
{
name = l;
}
);
paths = (
{
closed = 1;
nodes = (
"317 346 LINE",
"317 478 LINE",
"193 411 LINE",
"193 279 LINE"
);
},
{
closed = 1;
nodes = (
"137 251 LINE",
"137 383 LINE",
"9 313 LINE",
"9 181 LINE"
);
}
);
};
components = (
{
name = l;
}
);
layerId = "7C8656A8-8591-4735-94A0-92D633732231";
paths = (
{
closed = 1;
nodes = (
"137 251 LINE",
"137 383 LINE",
"9 313 LINE",
"9 181 LINE"
);
},
{
closed = 1;
nodes = (
"317 346 LINE",
"317 478 LINE",
"193 411 LINE",
"193 279 LINE"
);
}
);
width = 324;
},
{
components = (
{
alignment = -1;
name = l;
}
);
layerId = "C54A1B2C-2BC8-455F-8AA9-31AEAFF53136";
paths = (
{
closed = 1;
nodes = (
"116 310 LINE",
"116 341 LINE",
"38 294 LINE",
"38 263 LINE"
);
},
{
closed = 1;
nodes = (
"211 367 LINE",
"211 398 LINE",
"136 353 LINE",
"136 322 LINE"
);
}
);
width = 250;
}
);
leftKerningGroup = lc_lslash;
widthMetricsKey = l;
rightKerningGroup = lc_lslash;
unicode = 0142;
},
{
color = 7;
glyphname = m;
lastChange = "2019-06-04 18:05:11 +0000";
layers = (
{
background = {
paths = (
{
closed = 1;
nodes = (
"188 0 LINE",
"188 319 LINE SMOOTH",
"188 405 OFFCURVE",
"245 462 OFFCURVE",
"329 462 CURVE SMOOTH",
"410 462 OFFCURVE",
"460 408 OFFCURVE",
"460 325 CURVE SMOOTH",
"460 0 LINE",
"556 0 LINE",
"556 305 LINE SMOOTH",
"556 463 OFFCURVE",
"492 550 OFFCURVE",
"358 550 CURVE SMOOTH",
"354 550 LINE SMOOTH",
"220 550 OFFCURVE",
"156 463 OFFCURVE",
"156 305 CURVE",
"168 305 LINE",
"168 534 LINE",
"92 534 LINE",
"92 0 LINE"
);
}
);
};
layerId = "445E0A7C-B12F-48FD-B0B3-D474C1FC2A30";
paths = (
{
closed = 1;
nodes = (
"188 0 LINE",
"188 320 LINE SMOOTH",
"188 409 OFFCURVE",
"240 462 OFFCURVE",
"319 462 CURVE SMOOTH",
"395 462 OFFCURVE",
"440 412 OFFCURVE",
"440 326 CURVE SMOOTH",
"440 0 LINE",
"536 0 LINE",
"536 320 LINE SMOOTH",
"536 409 OFFCURVE",
"588 462 OFFCURVE",
"667 462 CURVE SMOOTH",
"743 462 OFFCURVE",
"788 412 OFFCURVE",
"788 326 CURVE SMOOTH",
"788 0 LINE",
"884 0 LINE",
"884 305 LINE SMOOTH",
"884 460 OFFCURVE",
"822 550 OFFCURVE",
"696 550 CURVE SMOOTH",
"692 550 LINE SMOOTH",
"566 550 OFFCURVE",
"504 460 OFFCURVE",
"504 305 CURVE",
"532 305 LINE",
"532 460 OFFCURVE",
"472 550 OFFCURVE",
"346 550 CURVE SMOOTH",
"342 550 LINE SMOOTH",
"216 550 OFFCURVE",
"156 460 OFFCURVE",
"156 305 CURVE",
"168 305 LINE",
"168 534 LINE",
"92 534 LINE",
"92 0 LINE"
);
}
);
width = 968;
},
{
background = {
paths = (
{
closed = 1;
nodes = (
"248 0 LINE",
"248 319 LINE SMOOTH",
"248 372 OFFCURVE",
"282 408 OFFCURVE",
"334 408 CURVE SMOOTH",
"386 408 OFFCURVE",
"418 372 OFFCURVE",
"418 321 CURVE SMOOTH",
"418 0 LINE",
"600 0 LINE",
"600 316 LINE SMOOTH",
"600 488 OFFCURVE",
"528 570 OFFCURVE",
"403 570 CURVE SMOOTH",
"395 570 LINE SMOOTH",
"270 570 OFFCURVE",
"202 487 OFFCURVE",
"202 315 CURVE",
"210 315 LINE",
"210 552 LINE",
"66 552 LINE",
"66 0 LINE"
);
}
);
};
layerId = "7C8656A8-8591-4735-94A0-92D633732231";
paths = (
{
closed = 1;
nodes = (
"248 0 LINE",
"248 317 LINE SMOOTH",
"248 370 OFFCURVE",
"278 408 OFFCURVE",
"329 408 CURVE SMOOTH",
"380 408 OFFCURVE",
"408 370 OFFCURVE",
"408 319 CURVE SMOOTH",
"408 0 LINE",
"590 0 LINE",
"590 317 LINE SMOOTH",
"590 370 OFFCURVE",
"620 408 OFFCURVE",
"671 408 CURVE SMOOTH",
"722 408 OFFCURVE",
"750 370 OFFCURVE",
"750 319 CURVE SMOOTH",
"750 0 LINE",
"932 0 LINE",
"932 314 LINE SMOOTH",
"932 485 OFFCURVE",
"863 570 OFFCURVE",
"740 570 CURVE SMOOTH",
"732 570 LINE SMOOTH",
"609 570 OFFCURVE",
"544 485 OFFCURVE",
"544 314 CURVE",
"586 314 LINE",
"586 485 OFFCURVE",
"521 570 OFFCURVE",
"398 570 CURVE SMOOTH",
"390 570 LINE SMOOTH",
"267 570 OFFCURVE",
"202 485 OFFCURVE",
"202 314 CURVE",
"210 314 LINE",
"210 552 LINE",
"66 552 LINE",
"66 0 LINE"
);
}
);
width = 988;
},
{
layerId = "C54A1B2C-2BC8-455F-8AA9-31AEAFF53136";
paths = (
{
closed = 1;
nodes = (
"140 0 LINE",
"140 316 LINE SMOOTH",
"140 425 OFFCURVE",
"201 504 OFFCURVE",
"307 504 CURVE SMOOTH",
"411 504 OFFCURVE",
"462 426 OFFCURVE",
"462 320 CURVE SMOOTH",
"462 0 LINE",
"494 0 LINE",
"494 316 LINE SMOOTH",
"494 425 OFFCURVE",
"555 504 OFFCURVE",
"661 504 CURVE SMOOTH",
"765 504 OFFCURVE",
"816 426 OFFCURVE",
"816 320 CURVE SMOOTH",
"816 0 LINE",
"848 0 LINE",
"848 312 LINE SMOOTH",
"848 442 OFFCURVE",
"788 534 OFFCURVE",
"664 534 CURVE SMOOTH",
"662 534 LINE SMOOTH",
"536 534 OFFCURVE",
"476 437 OFFCURVE",
"476 312 CURVE",
"492 312 LINE",
"492 442 OFFCURVE",
"434 534 OFFCURVE",
"310 534 CURVE SMOOTH",
"308 534 LINE SMOOTH",
"182 534 OFFCURVE",
"122 437 OFFCURVE",
"122 312 CURVE",
"134 312 LINE",
"134 521 LINE",
"108 521 LINE",
"108 0 LINE"
);
}
);
width = 950;
}
);
leftKerningGroup = lc_ShortStem;
leftMetricsKey = n;
rightKerningGroup = lc_Shoulder;
rightMetricsKey = n;
unicode = 006D;
},
{
color = 7;
glyphname = n;
lastChange = "2020-05-27 23:14:55 +0000";
layers = (
{
anchors = (
{
name = bottom;
position = "{324, 0}";
},
{
name = top;
position = "{328, 534}";
}
);
layerId = "445E0A7C-B12F-48FD-B0B3-D474C1FC2A30";
paths = (
{
closed = 1;
nodes = (
"188 0 LINE",
"188 319 LINE SMOOTH",
"188 405 OFFCURVE",
"245 462 OFFCURVE",
"329 462 CURVE SMOOTH",
"410 462 OFFCURVE",
"460 408 OFFCURVE",
"460 325 CURVE SMOOTH",
"460 0 LINE",
"556 0 LINE",
"556 305 LINE SMOOTH",
"556 463 OFFCURVE",
"492 550 OFFCURVE",
"358 550 CURVE SMOOTH",
"354 550 LINE SMOOTH",
"220 550 OFFCURVE",
"156 463 OFFCURVE",
"156 305 CURVE",
"168 305 LINE",
"168 534 LINE",
"92 534 LINE",
"92 0 LINE"
);
}
);
width = 640;
},
{
anchors = (
{
name = bottom;
position = "{333, 0}";
},
{
name = top;
position = "{335, 552}";
}
);
layerId = "7C8656A8-8591-4735-94A0-92D633732231";
paths = (
{
closed = 1;
nodes = (
"248 0 LINE",
"248 319 LINE SMOOTH",
"248 372 OFFCURVE",
"282 408 OFFCURVE",
"334 408 CURVE SMOOTH",
"386 408 OFFCURVE",
"418 372 OFFCURVE",
"418 321 CURVE SMOOTH",
"418 0 LINE",
"600 0 LINE",
"600 316 LINE SMOOTH",
"600 488 OFFCURVE",
"528 570 OFFCURVE",
"403 570 CURVE SMOOTH",
"395 570 LINE SMOOTH",
"270 570 OFFCURVE",
"202 487 OFFCURVE",
"202 315 CURVE",
"210 315 LINE",
"210 552 LINE",
"66 552 LINE",
"66 0 LINE"
);
}
);
width = 656;
},
{
anchors = (
{
name = bottom;
position = "{316, 0}";
},
{
name = top;
position = "{321, 520}";
}
);
layerId = "C54A1B2C-2BC8-455F-8AA9-31AEAFF53136";
paths = (
{
closed = 1;
nodes = (
"140 0 LINE",
"140 316 LINE SMOOTH",
"140 428 OFFCURVE",
"210 504 OFFCURVE",
"322 504 CURVE SMOOTH",
"432 504 OFFCURVE",
"492 429 OFFCURVE",
"492 320 CURVE SMOOTH",
"492 0 LINE",
"524 0 LINE",
"524 312 LINE SMOOTH",
"524 445 OFFCURVE",
"455 534 OFFCURVE",
"325 534 CURVE SMOOTH",
"323 534 LINE SMOOTH",
"191 534 OFFCURVE",
"122 440 OFFCURVE",
"122 312 CURVE",
"134 312 LINE",
"134 520 LINE",
"108 520 LINE",
"108 0 LINE"
);
}
);
width = 626;
}
);
leftKerningGroup = lc_ShortStem;
rightKerningGroup = lc_Shoulder;
unicode = 006E;
},
{
color = 7;
glyphname = eng;
lastChange = "2019-05-29 22:43:47 +0000";
layers = (
{
components = (
{
name = n;
}
);
layerId = "445E0A7C-B12F-48FD-B0B3-D474C1FC2A30";
paths = (
{
closed = 1;
nodes = (
"361 -200 LINE SMOOTH",
"492 -200 OFFCURVE",
"556 -146 OFFCURVE",
"556 -15 CURVE SMOOTH",
"556 20 LINE",
"460 20 LINE",
"460 -29 LINE SMOOTH",
"460 -83 OFFCURVE",
"429 -114 OFFCURVE",
"375 -114 CURVE SMOOTH",
"305 -114 LINE",
"305 -200 LINE"
);
}
);
width = 640;
},
{
components = (
{
name = n;
}
);
layerId = "7C8656A8-8591-4735-94A0-92D633732231";
paths = (
{
closed = 1;
nodes = (
"354 -204 LINE SMOOTH",
"526 -204 OFFCURVE",
"600 -142 OFFCURVE",
"600 0 CURVE SMOOTH",
"600 33 LINE",
"418 33 LINE",
"418 0 LINE SMOOTH",
"418 -32 OFFCURVE",
"406 -52 OFFCURVE",
"358 -52 CURVE SMOOTH",
"312 -52 LINE",
"312 -204 LINE"
);
}
);
width = 656;
},
{
components = (
{
alignment = -1;
name = n;
}
);
layerId = "C54A1B2C-2BC8-455F-8AA9-31AEAFF53136";
paths = (
{
closed = 1;
nodes = (
"397 -202 LINE SMOOTH",
"488 -202 OFFCURVE",
"524 -160 OFFCURVE",
"524 -56 CURVE SMOOTH",
"524 20 LINE",
"492 20 LINE",
"492 -70 LINE SMOOTH",
"492 -138 OFFCURVE",
"464 -172 OFFCURVE",
"409 -172 CURVE SMOOTH",
"325 -172 LINE",
"325 -202 LINE"
);
}
);
width = 626;
}
);
leftKerningGroup = lc_ShortStem;
leftMetricsKey = n;
rightKerningGroup = lc_Shoulder;
rightMetricsKey = n;
unicode = 014B;
},
{
color = 7;
glyphname = o;
lastChange = "2019-06-04 21:23:28 +0000";
layers = (
{
anchors = (
{
name = bottom;
position = "{338, 0}";
},
{
name = center;
position = "{338, 267}";
},
{
name = ogonek;
position = "{453, 10}";
},
{
name = top;
position = "{338, 534}";
}
);
layerId = "445E0A7C-B12F-48FD-B0B3-D474C1FC2A30";
paths = (
{
closed = 1;
nodes = (
"524 -18 OFFCURVE",
"624 123 OFFCURVE",
"624 258 CURVE SMOOTH",
"624 276 LINE SMOOTH",
"624 413 OFFCURVE",
"519 552 OFFCURVE",
"338 552 CURVE SMOOTH",
"157 552 OFFCURVE",
"52 413 OFFCURVE",
"52 276 CURVE SMOOTH",
"52 258 LINE SMOOTH",
"52 123 OFFCURVE",
"152 -18 OFFCURVE",
"338 -18 CURVE SMOOTH"
);
},
{
closed = 1;
nodes = (
"218 68 OFFCURVE",
"148 155 OFFCURVE",
"148 267 CURVE SMOOTH",
"148 381 OFFCURVE",
"221 466 OFFCURVE",
"338 466 CURVE SMOOTH",
"455 466 OFFCURVE",
"528 381 OFFCURVE",
"528 267 CURVE SMOOTH",
"528 155 OFFCURVE",
"458 68 OFFCURVE",
"338 68 CURVE SMOOTH"
);
}
);
width = 676;
},
{
anchors = (
{
name = bottom;
position = "{341, 0}";
},
{
name = center;
position = "{341, 267}";
},
{
name = ogonek;
position = "{458, 12}";
},
{
name = top;
position = "{341, 552}";
}
);
layerId = "7C8656A8-8591-4735-94A0-92D633732231";
paths = (
{
closed = 1;
nodes = (
"536 -20 OFFCURVE",
"648 108 OFFCURVE",
"648 262 CURVE SMOOTH",
"648 286 LINE SMOOTH",
"648 447 OFFCURVE",
"529 572 OFFCURVE",
"341 572 CURVE SMOOTH",
"153 572 OFFCURVE",
"34 447 OFFCURVE",
"34 286 CURVE SMOOTH",
"34 262 LINE SMOOTH",
"34 108 OFFCURVE",
"146 -20 OFFCURVE",
"341 -20 CURVE SMOOTH"
);
},
{
closed = 1;
nodes = (
"258 132 OFFCURVE",
"216 191 OFFCURVE",
"216 274 CURVE SMOOTH",
"216 359 OFFCURVE",
"261 420 OFFCURVE",
"341 420 CURVE SMOOTH",
"421 420 OFFCURVE",
"466 359 OFFCURVE",
"466 274 CURVE SMOOTH",
"466 191 OFFCURVE",
"424 132 OFFCURVE",
"341 132 CURVE SMOOTH"
);
}
);
width = 682;
},
{
anchors = (
{
name = bottom;
position = "{327, 0}";
},
{
name = center;
position = "{327, 260}";
},
{
name = ogonek;
position = "{440, 9}";
},
{
name = top;
position = "{327, 520}";
}
);
layerId = "C54A1B2C-2BC8-455F-8AA9-31AEAFF53136";
paths = (
{
closed = 1;
nodes = (
"498 -16 OFFCURVE",
"592 122 OFFCURVE",
"592 257 CURVE SMOOTH",
"592 263 LINE SMOOTH",
"592 402 OFFCURVE",
"494 536 OFFCURVE",
"327 536 CURVE SMOOTH",
"160 536 OFFCURVE",
"62 402 OFFCURVE",
"62 263 CURVE SMOOTH",
"62 257 LINE SMOOTH",
"62 122 OFFCURVE",
"156 -16 OFFCURVE",
"327 -16 CURVE SMOOTH"
);
},
{
closed = 1;
nodes = (
"176 14 OFFCURVE",
"94 132 OFFCURVE",
"94 260 CURVE SMOOTH",
"94 392 OFFCURVE",
"180 506 OFFCURVE",
"327 506 CURVE SMOOTH",
"474 506 OFFCURVE",
"560 392 OFFCURVE",
"560 260 CURVE SMOOTH",
"560 132 OFFCURVE",
"478 14 OFFCURVE",
"327 14 CURVE SMOOTH"
);
}
);
width = 654;
}
);
leftKerningGroup = lc_Round;
note = o;
rightKerningGroup = lc_Round;
unicode = 006F;
},
{
color = 6;
glyphname = oslash;
lastChange = "2019-05-29 22:43:47 +0000";
layers = (
{
components = (
{
name = o;
}
);
guideLines = (
{
position = "{0, 586}";
}
);
layerId = "445E0A7C-B12F-48FD-B0B3-D474C1FC2A30";
paths = (
{
closed = 1;
nodes = (
"156 -52 LINE",
"600 586 LINE",
"518 586 LINE",
"74 -52 LINE"
);
}
);
width = 676;
},
{
components = (
{
name = o;
}
);
guideLines = (
{
position = "{0, 586}";
}
);
layerId = "7C8656A8-8591-4735-94A0-92D633732231";
paths = (
{
closed = 1;
nodes = (
"172 -66 LINE",
"614 600 LINE",
"510 600 LINE",
"68 -66 LINE"
);
}
);
width = 682;
},
{
components = (
{
alignment = -1;
name = o;
}
);
layerId = "C54A1B2C-2BC8-455F-8AA9-31AEAFF53136";
paths = (
{
closed = 1;
nodes = (
"134 -36 LINE",
"564 572 LINE",
"530 572 LINE",
"100 -36 LINE"
);
}
);
width = 654;
}
);
leftKerningGroup = lc_Round;
leftMetricsKey = o;
rightKerningGroup = lc_Round;
rightMetricsKey = o;
unicode = 00F8;
},
{
color = 7;
glyphname = oe;
lastChange = "2019-06-04 20:48:41 +0000";
layers = (
{
layerId = "445E0A7C-B12F-48FD-B0B3-D474C1FC2A30";
paths = (
{
closed = 1;
nodes = (
"532 -18 OFFCURVE",
"605 130 OFFCURVE",
"605 257 CURVE",
"541 257 LINE",
"541 128 OFFCURVE",
"598 -18 OFFCURVE",
"791 -18 CURVE SMOOTH",
"917 -18 OFFCURVE",
"1008 45 OFFCURVE",
"1031 156 CURVE",
"941 156 LINE",
"930 106 OFFCURVE",
"875 68 OFFCURVE",
"791 68 CURVE SMOOTH",
"670 68 OFFCURVE",
"616 153 OFFCURVE",
"616 267 CURVE SMOOTH",
"616 384 OFFCURVE",
"672 466 OFFCURVE",
"785 466 CURVE SMOOTH",
"892 466 OFFCURVE",
"948 395 OFFCURVE",
"948 282 CURVE",
"970 321 LINE",
"608 321 LINE",
"608 249 LINE",
"1040 249 LINE",
"1040 292 LINE SMOOTH",
"1040 427 OFFCURVE",
"956 552 OFFCURVE",
"785 552 CURVE SMOOTH",
"606 552 OFFCURVE",
"541 414 OFFCURVE",
"541 277 CURVE",
"605 277 LINE",
"605 411 OFFCURVE",
"525 552 OFFCURVE",
"337 552 CURVE SMOOTH",
"155 552 OFFCURVE",
"52 415 OFFCURVE",
"52 276 CURVE SMOOTH",
"52 258 LINE SMOOTH",
"52 121 OFFCURVE",
"150 -18 OFFCURVE",
"337 -18 CURVE SMOOTH"
);
},
{
closed = 1;
nodes = (
"218 68 OFFCURVE",
"148 153 OFFCURVE",
"148 267 CURVE SMOOTH",
"148 383 OFFCURVE",
"221 466 OFFCURVE",
"337 466 CURVE SMOOTH",
"453 466 OFFCURVE",
"526 381 OFFCURVE",
"526 267 CURVE SMOOTH",
"526 155 OFFCURVE",
"456 68 OFFCURVE",
"337 68 CURVE SMOOTH"
);
}
);
width = 1084;
},
{
background = {
paths = (
{
closed = 1;
nodes = (
"258 134 OFFCURVE",
"216 192 OFFCURVE",
"216 273 CURVE SMOOTH",
"216 356 OFFCURVE",
"261 416 OFFCURVE",
"341 416 CURVE SMOOTH",
"421 416 OFFCURVE",
"466 356 OFFCURVE",
"466 273 CURVE SMOOTH",
"466 192 OFFCURVE",
"424 134 OFFCURVE",
"341 134 CURVE SMOOTH"
);
},
{
closed = 1;
nodes = (
"480 263 LINE",
"480 122 OFFCURVE",
"585 -20 OFFCURVE",
"771 -20 CURVE SMOOTH",
"912 -20 OFFCURVE",
"1010 61 OFFCURVE",
"1034 174 CURVE",
"868 174 LINE",
"855 144 OFFCURVE",
"821 126 OFFCURVE",
"771 126 CURVE SMOOTH",
"685 126 OFFCURVE",
"648 182 OFFCURVE",
"648 273 CURVE SMOOTH",
"648 373 OFFCURVE",
"692 422 OFFCURVE",
"765 422 CURVE SMOOTH",
"838 422 OFFCURVE",
"876 373 OFFCURVE",
"876 280 CURVE",
"939 322 LINE",
"556 322 LINE",
"556 228 LINE",
"1044 228 LINE",
"1044 282 LINE SMOOTH",
"1044 434 OFFCURVE",
"942 568 OFFCURVE",
"765 568 CURVE SMOOTH",
"586 568 OFFCURVE",
"480 432 OFFCURVE",
"480 284 CURVE",
"648 285 LINE",
"648 444 OFFCURVE",
"529 568 OFFCURVE",
"341 568 CURVE SMOOTH",
"153 568 OFFCURVE",
"34 444 OFFCURVE",
"34 285 CURVE SMOOTH",
"34 261 LINE SMOOTH",
"34 109 OFFCURVE",
"146 -18 OFFCURVE",
"341 -18 CURVE SMOOTH",
"536 -18 OFFCURVE",
"648 109 OFFCURVE",
"648 263 CURVE"
);
}
);
};
layerId = "7C8656A8-8591-4735-94A0-92D633732231";
paths = (
{
closed = 1;
nodes = (
"530 -18 OFFCURVE",
"610 111 OFFCURVE",
"614 265 CURVE",
"500 265 LINE",
"500 124 OFFCURVE",
"577 -20 OFFCURVE",
"763 -20 CURVE SMOOTH",
"904 -20 OFFCURVE",
"996 61 OFFCURVE",
"1020 174 CURVE",
"854 174 LINE",
"841 144 OFFCURVE",
"807 126 OFFCURVE",
"757 126 CURVE SMOOTH",
"671 126 OFFCURVE",
"634 184 OFFCURVE",
"634 275 CURVE SMOOTH",
"634 375 OFFCURVE",
"678 426 OFFCURVE",
"751 426 CURVE SMOOTH",
"824 426 OFFCURVE",
"862 375 OFFCURVE",
"862 282 CURVE",
"925 322 LINE",
"626 322 LINE",
"626 228 LINE",
"1030 228 LINE",
"1030 284 LINE SMOOTH",
"1030 436 OFFCURVE",
"934 572 OFFCURVE",
"757 572 CURVE SMOOTH",
"578 572 OFFCURVE",
"500 434 OFFCURVE",
"500 287 CURVE",
"614 287 LINE",
"614 446 OFFCURVE",
"523 572 OFFCURVE",
"335 572 CURVE SMOOTH",
"147 572 OFFCURVE",
"34 446 OFFCURVE",
"34 287 CURVE SMOOTH",
"34 263 LINE SMOOTH",
"34 111 OFFCURVE",
"140 -18 OFFCURVE",
"335 -18 CURVE SMOOTH"
);
},
{
closed = 1;
nodes = (
"258 134 OFFCURVE",
"216 194 OFFCURVE",
"216 275 CURVE SMOOTH",
"216 358 OFFCURVE",
"261 420 OFFCURVE",
"341 420 CURVE SMOOTH",
"421 420 OFFCURVE",
"466 358 OFFCURVE",
"466 275 CURVE SMOOTH",
"466 194 OFFCURVE",
"424 134 OFFCURVE",
"341 134 CURVE SMOOTH"
);
}
);
width = 1060;
},
{
background = {
paths = (
{
closed = 1;
nodes = (
"498 -16 OFFCURVE",
"589 122 OFFCURVE",
"589 257 CURVE",
"561 260 LINE",
"561 121 OFFCURVE",
"640 -16 OFFCURVE",
"814 -16 CURVE SMOOTH",
"939 -16 OFFCURVE",
"1019 52 OFFCURVE",
"1040 146 CURVE",
"1008 146 LINE",
"992 73 OFFCURVE",
"923 14 OFFCURVE",
"814 14 CURVE SMOOTH",
"662 14 OFFCURVE",
"590 131 OFFCURVE",
"590 263 CURVE SMOOTH",
"590 392 OFFCURVE",
"665 506 OFFCURVE",
"808 506 CURVE SMOOTH",
"940 506 OFFCURVE",
"1018 407 OFFCURVE",
"1018 281 CURVE",
"1031 291 LINE",
"577 291 LINE",
"577 261 LINE",
"1048 261 LINE",
"1048 293 LINE SMOOTH",
"1048 417 OFFCURVE",
"960 536 OFFCURVE",
"808 536 CURVE SMOOTH",
"644 536 OFFCURVE",
"561 402 OFFCURVE",
"561 266 CURVE",
"589 263 LINE",
"589 402 OFFCURVE",
"494 536 OFFCURVE",
"327 536 CURVE SMOOTH",
"160 536 OFFCURVE",
"62 402 OFFCURVE",
"62 263 CURVE SMOOTH",
"62 257 LINE SMOOTH",
"62 122 OFFCURVE",
"156 -16 OFFCURVE",
"327 -16 CURVE SMOOTH"
);
},
{
closed = 1;
nodes = (
"176 14 OFFCURVE",
"94 132 OFFCURVE",
"94 260 CURVE SMOOTH",
"94 392 OFFCURVE",
"180 506 OFFCURVE",
"327 506 CURVE SMOOTH",
"474 506 OFFCURVE",
"560 392 OFFCURVE",
"560 260 CURVE SMOOTH",
"560 132 OFFCURVE",
"478 14 OFFCURVE",
"327 14 CURVE SMOOTH"
);
}
);
};
layerId = "C54A1B2C-2BC8-455F-8AA9-31AEAFF53136";
paths = (
{
closed = 1;
nodes = (
"498 -16 OFFCURVE",
"587 121 OFFCURVE",
"587 259 CURVE",
"563 259 LINE",
"563 121 OFFCURVE",
"640 -16 OFFCURVE",
"814 -16 CURVE SMOOTH",
"939 -16 OFFCURVE",
"1019 52 OFFCURVE",
"1040 146 CURVE",
"1008 146 LINE",
"992 73 OFFCURVE",
"923 14 OFFCURVE",
"814 14 CURVE SMOOTH",
"662 14 OFFCURVE",
"590 131 OFFCURVE",
"590 263 CURVE SMOOTH",
"590 392 OFFCURVE",
"665 506 OFFCURVE",
"808 506 CURVE SMOOTH",
"940 506 OFFCURVE",
"1018 407 OFFCURVE",
"1018 281 CURVE",
"1031 291 LINE",
"577 291 LINE",
"577 261 LINE",
"1048 261 LINE",
"1048 293 LINE SMOOTH",
"1048 417 OFFCURVE",
"960 536 OFFCURVE",
"808 536 CURVE SMOOTH",
"644 536 OFFCURVE",
"563 403 OFFCURVE",
"563 265 CURVE",
"587 265 LINE",
"587 403 OFFCURVE",
"494 536 OFFCURVE",
"327 536 CURVE SMOOTH",
"160 536 OFFCURVE",
"62 402 OFFCURVE",
"62 263 CURVE SMOOTH",
"62 257 LINE SMOOTH",
"62 122 OFFCURVE",
"156 -16 OFFCURVE",
"327 -16 CURVE SMOOTH"
);
},
{
closed = 1;
nodes = (
"176 14 OFFCURVE",
"94 132 OFFCURVE",
"94 260 CURVE SMOOTH",
"94 392 OFFCURVE",
"180 506 OFFCURVE",
"327 506 CURVE SMOOTH",
"474 506 OFFCURVE",
"560 392 OFFCURVE",
"560 260 CURVE SMOOTH",
"560 132 OFFCURVE",
"478 14 OFFCURVE",
"327 14 CURVE SMOOTH"
);
}
);
width = 1100;
}
);
leftKerningGroup = lc_Round;
leftMetricsKey = o;
rightKerningGroup = lc_e;
rightMetricsKey = e;
unicode = 0153;
},
